%TF.GenerationSoftware,KiCad,Pcbnew,8.0.2-8.0.2-0~ubuntu20.04.1*%
%TF.CreationDate,2024-06-25T13:19:00+03:00*%
%TF.ProjectId,PCB_ADNS9800-Board_2024-06-24,5043425f-4144-44e5-9339-3830302d426f,rev?*%
%TF.SameCoordinates,Original*%
%TF.FileFunction,Legend,Top*%
%TF.FilePolarity,Positive*%
%FSLAX46Y46*%
G04 Gerber Fmt 4.6, Leading zero omitted, Abs format (unit mm)*
G04 Created by KiCad (PCBNEW 8.0.2-8.0.2-0~ubuntu20.04.1) date 2024-06-25 13:19:00*
%MOMM*%
%LPD*%
G01*
G04 APERTURE LIST*
%ADD10C,0.150000*%
%ADD11C,0.120000*%
%ADD12C,0.254000*%
G04 APERTURE END LIST*
D10*
X137450533Y-66696780D02*
X137402914Y-66744400D01*
X137402914Y-66744400D02*
X137260057Y-66792019D01*
X137260057Y-66792019D02*
X137164819Y-66792019D01*
X137164819Y-66792019D02*
X137021962Y-66744400D01*
X137021962Y-66744400D02*
X136926724Y-66649161D01*
X136926724Y-66649161D02*
X136879105Y-66553923D01*
X136879105Y-66553923D02*
X136831486Y-66363447D01*
X136831486Y-66363447D02*
X136831486Y-66220590D01*
X136831486Y-66220590D02*
X136879105Y-66030114D01*
X136879105Y-66030114D02*
X136926724Y-65934876D01*
X136926724Y-65934876D02*
X137021962Y-65839638D01*
X137021962Y-65839638D02*
X137164819Y-65792019D01*
X137164819Y-65792019D02*
X137260057Y-65792019D01*
X137260057Y-65792019D02*
X137402914Y-65839638D01*
X137402914Y-65839638D02*
X137450533Y-65887257D01*
X137783867Y-65792019D02*
X138450533Y-65792019D01*
X138450533Y-65792019D02*
X138021962Y-66792019D01*
X137856933Y-54352380D02*
X137809314Y-54400000D01*
X137809314Y-54400000D02*
X137666457Y-54447619D01*
X137666457Y-54447619D02*
X137571219Y-54447619D01*
X137571219Y-54447619D02*
X137428362Y-54400000D01*
X137428362Y-54400000D02*
X137333124Y-54304761D01*
X137333124Y-54304761D02*
X137285505Y-54209523D01*
X137285505Y-54209523D02*
X137237886Y-54019047D01*
X137237886Y-54019047D02*
X137237886Y-53876190D01*
X137237886Y-53876190D02*
X137285505Y-53685714D01*
X137285505Y-53685714D02*
X137333124Y-53590476D01*
X137333124Y-53590476D02*
X137428362Y-53495238D01*
X137428362Y-53495238D02*
X137571219Y-53447619D01*
X137571219Y-53447619D02*
X137666457Y-53447619D01*
X137666457Y-53447619D02*
X137809314Y-53495238D01*
X137809314Y-53495238D02*
X137856933Y-53542857D01*
X138714076Y-53780952D02*
X138714076Y-54447619D01*
X138475981Y-53400000D02*
X138237886Y-54114285D01*
X138237886Y-54114285D02*
X138856933Y-54114285D01*
X105253980Y-50982666D02*
X105301600Y-51030285D01*
X105301600Y-51030285D02*
X105349219Y-51173142D01*
X105349219Y-51173142D02*
X105349219Y-51268380D01*
X105349219Y-51268380D02*
X105301600Y-51411237D01*
X105301600Y-51411237D02*
X105206361Y-51506475D01*
X105206361Y-51506475D02*
X105111123Y-51554094D01*
X105111123Y-51554094D02*
X104920647Y-51601713D01*
X104920647Y-51601713D02*
X104777790Y-51601713D01*
X104777790Y-51601713D02*
X104587314Y-51554094D01*
X104587314Y-51554094D02*
X104492076Y-51506475D01*
X104492076Y-51506475D02*
X104396838Y-51411237D01*
X104396838Y-51411237D02*
X104349219Y-51268380D01*
X104349219Y-51268380D02*
X104349219Y-51173142D01*
X104349219Y-51173142D02*
X104396838Y-51030285D01*
X104396838Y-51030285D02*
X104444457Y-50982666D01*
X105349219Y-50030285D02*
X105349219Y-50601713D01*
X105349219Y-50315999D02*
X104349219Y-50315999D01*
X104349219Y-50315999D02*
X104492076Y-50411237D01*
X104492076Y-50411237D02*
X104587314Y-50506475D01*
X104587314Y-50506475D02*
X104634933Y-50601713D01*
X137806133Y-58119180D02*
X137758514Y-58166800D01*
X137758514Y-58166800D02*
X137615657Y-58214419D01*
X137615657Y-58214419D02*
X137520419Y-58214419D01*
X137520419Y-58214419D02*
X137377562Y-58166800D01*
X137377562Y-58166800D02*
X137282324Y-58071561D01*
X137282324Y-58071561D02*
X137234705Y-57976323D01*
X137234705Y-57976323D02*
X137187086Y-57785847D01*
X137187086Y-57785847D02*
X137187086Y-57642990D01*
X137187086Y-57642990D02*
X137234705Y-57452514D01*
X137234705Y-57452514D02*
X137282324Y-57357276D01*
X137282324Y-57357276D02*
X137377562Y-57262038D01*
X137377562Y-57262038D02*
X137520419Y-57214419D01*
X137520419Y-57214419D02*
X137615657Y-57214419D01*
X137615657Y-57214419D02*
X137758514Y-57262038D01*
X137758514Y-57262038D02*
X137806133Y-57309657D01*
X138663276Y-57214419D02*
X138472800Y-57214419D01*
X138472800Y-57214419D02*
X138377562Y-57262038D01*
X138377562Y-57262038D02*
X138329943Y-57309657D01*
X138329943Y-57309657D02*
X138234705Y-57452514D01*
X138234705Y-57452514D02*
X138187086Y-57642990D01*
X138187086Y-57642990D02*
X138187086Y-58023942D01*
X138187086Y-58023942D02*
X138234705Y-58119180D01*
X138234705Y-58119180D02*
X138282324Y-58166800D01*
X138282324Y-58166800D02*
X138377562Y-58214419D01*
X138377562Y-58214419D02*
X138568038Y-58214419D01*
X138568038Y-58214419D02*
X138663276Y-58166800D01*
X138663276Y-58166800D02*
X138710895Y-58119180D01*
X138710895Y-58119180D02*
X138758514Y-58023942D01*
X138758514Y-58023942D02*
X138758514Y-57785847D01*
X138758514Y-57785847D02*
X138710895Y-57690609D01*
X138710895Y-57690609D02*
X138663276Y-57642990D01*
X138663276Y-57642990D02*
X138568038Y-57595371D01*
X138568038Y-57595371D02*
X138377562Y-57595371D01*
X138377562Y-57595371D02*
X138282324Y-57642990D01*
X138282324Y-57642990D02*
X138234705Y-57690609D01*
X138234705Y-57690609D02*
X138187086Y-57785847D01*
X103526780Y-61745866D02*
X103574400Y-61793485D01*
X103574400Y-61793485D02*
X103622019Y-61936342D01*
X103622019Y-61936342D02*
X103622019Y-62031580D01*
X103622019Y-62031580D02*
X103574400Y-62174437D01*
X103574400Y-62174437D02*
X103479161Y-62269675D01*
X103479161Y-62269675D02*
X103383923Y-62317294D01*
X103383923Y-62317294D02*
X103193447Y-62364913D01*
X103193447Y-62364913D02*
X103050590Y-62364913D01*
X103050590Y-62364913D02*
X102860114Y-62317294D01*
X102860114Y-62317294D02*
X102764876Y-62269675D01*
X102764876Y-62269675D02*
X102669638Y-62174437D01*
X102669638Y-62174437D02*
X102622019Y-62031580D01*
X102622019Y-62031580D02*
X102622019Y-61936342D01*
X102622019Y-61936342D02*
X102669638Y-61793485D01*
X102669638Y-61793485D02*
X102717257Y-61745866D01*
X102622019Y-60841104D02*
X102622019Y-61317294D01*
X102622019Y-61317294D02*
X103098209Y-61364913D01*
X103098209Y-61364913D02*
X103050590Y-61317294D01*
X103050590Y-61317294D02*
X103002971Y-61222056D01*
X103002971Y-61222056D02*
X103002971Y-60983961D01*
X103002971Y-60983961D02*
X103050590Y-60888723D01*
X103050590Y-60888723D02*
X103098209Y-60841104D01*
X103098209Y-60841104D02*
X103193447Y-60793485D01*
X103193447Y-60793485D02*
X103431542Y-60793485D01*
X103431542Y-60793485D02*
X103526780Y-60841104D01*
X103526780Y-60841104D02*
X103574400Y-60888723D01*
X103574400Y-60888723D02*
X103622019Y-60983961D01*
X103622019Y-60983961D02*
X103622019Y-61222056D01*
X103622019Y-61222056D02*
X103574400Y-61317294D01*
X103574400Y-61317294D02*
X103526780Y-61364913D01*
X102561580Y-56564266D02*
X102609200Y-56611885D01*
X102609200Y-56611885D02*
X102656819Y-56754742D01*
X102656819Y-56754742D02*
X102656819Y-56849980D01*
X102656819Y-56849980D02*
X102609200Y-56992837D01*
X102609200Y-56992837D02*
X102513961Y-57088075D01*
X102513961Y-57088075D02*
X102418723Y-57135694D01*
X102418723Y-57135694D02*
X102228247Y-57183313D01*
X102228247Y-57183313D02*
X102085390Y-57183313D01*
X102085390Y-57183313D02*
X101894914Y-57135694D01*
X101894914Y-57135694D02*
X101799676Y-57088075D01*
X101799676Y-57088075D02*
X101704438Y-56992837D01*
X101704438Y-56992837D02*
X101656819Y-56849980D01*
X101656819Y-56849980D02*
X101656819Y-56754742D01*
X101656819Y-56754742D02*
X101704438Y-56611885D01*
X101704438Y-56611885D02*
X101752057Y-56564266D01*
X101656819Y-56230932D02*
X101656819Y-55611885D01*
X101656819Y-55611885D02*
X102037771Y-55945218D01*
X102037771Y-55945218D02*
X102037771Y-55802361D01*
X102037771Y-55802361D02*
X102085390Y-55707123D01*
X102085390Y-55707123D02*
X102133009Y-55659504D01*
X102133009Y-55659504D02*
X102228247Y-55611885D01*
X102228247Y-55611885D02*
X102466342Y-55611885D01*
X102466342Y-55611885D02*
X102561580Y-55659504D01*
X102561580Y-55659504D02*
X102609200Y-55707123D01*
X102609200Y-55707123D02*
X102656819Y-55802361D01*
X102656819Y-55802361D02*
X102656819Y-56088075D01*
X102656819Y-56088075D02*
X102609200Y-56183313D01*
X102609200Y-56183313D02*
X102561580Y-56230932D01*
X112613619Y-66523999D02*
X112137428Y-66857332D01*
X112613619Y-67095427D02*
X111613619Y-67095427D01*
X111613619Y-67095427D02*
X111613619Y-66714475D01*
X111613619Y-66714475D02*
X111661238Y-66619237D01*
X111661238Y-66619237D02*
X111708857Y-66571618D01*
X111708857Y-66571618D02*
X111804095Y-66523999D01*
X111804095Y-66523999D02*
X111946952Y-66523999D01*
X111946952Y-66523999D02*
X112042190Y-66571618D01*
X112042190Y-66571618D02*
X112089809Y-66619237D01*
X112089809Y-66619237D02*
X112137428Y-66714475D01*
X112137428Y-66714475D02*
X112137428Y-67095427D01*
X112613619Y-66095427D02*
X111613619Y-66095427D01*
X111613619Y-66095427D02*
X112327904Y-65762094D01*
X112327904Y-65762094D02*
X111613619Y-65428761D01*
X111613619Y-65428761D02*
X112613619Y-65428761D01*
X111613619Y-64762094D02*
X111613619Y-64571618D01*
X111613619Y-64571618D02*
X111661238Y-64476380D01*
X111661238Y-64476380D02*
X111756476Y-64381142D01*
X111756476Y-64381142D02*
X111946952Y-64333523D01*
X111946952Y-64333523D02*
X112280285Y-64333523D01*
X112280285Y-64333523D02*
X112470761Y-64381142D01*
X112470761Y-64381142D02*
X112566000Y-64476380D01*
X112566000Y-64476380D02*
X112613619Y-64571618D01*
X112613619Y-64571618D02*
X112613619Y-64762094D01*
X112613619Y-64762094D02*
X112566000Y-64857332D01*
X112566000Y-64857332D02*
X112470761Y-64952570D01*
X112470761Y-64952570D02*
X112280285Y-65000189D01*
X112280285Y-65000189D02*
X111946952Y-65000189D01*
X111946952Y-65000189D02*
X111756476Y-64952570D01*
X111756476Y-64952570D02*
X111661238Y-64857332D01*
X111661238Y-64857332D02*
X111613619Y-64762094D01*
X112566000Y-63952570D02*
X112613619Y-63809713D01*
X112613619Y-63809713D02*
X112613619Y-63571618D01*
X112613619Y-63571618D02*
X112566000Y-63476380D01*
X112566000Y-63476380D02*
X112518380Y-63428761D01*
X112518380Y-63428761D02*
X112423142Y-63381142D01*
X112423142Y-63381142D02*
X112327904Y-63381142D01*
X112327904Y-63381142D02*
X112232666Y-63428761D01*
X112232666Y-63428761D02*
X112185047Y-63476380D01*
X112185047Y-63476380D02*
X112137428Y-63571618D01*
X112137428Y-63571618D02*
X112089809Y-63762094D01*
X112089809Y-63762094D02*
X112042190Y-63857332D01*
X112042190Y-63857332D02*
X111994571Y-63904951D01*
X111994571Y-63904951D02*
X111899333Y-63952570D01*
X111899333Y-63952570D02*
X111804095Y-63952570D01*
X111804095Y-63952570D02*
X111708857Y-63904951D01*
X111708857Y-63904951D02*
X111661238Y-63857332D01*
X111661238Y-63857332D02*
X111613619Y-63762094D01*
X111613619Y-63762094D02*
X111613619Y-63523999D01*
X111613619Y-63523999D02*
X111661238Y-63381142D01*
X112613619Y-62952570D02*
X111613619Y-62952570D01*
X110784819Y-68170228D02*
X110308628Y-68503561D01*
X110784819Y-68741656D02*
X109784819Y-68741656D01*
X109784819Y-68741656D02*
X109784819Y-68360704D01*
X109784819Y-68360704D02*
X109832438Y-68265466D01*
X109832438Y-68265466D02*
X109880057Y-68217847D01*
X109880057Y-68217847D02*
X109975295Y-68170228D01*
X109975295Y-68170228D02*
X110118152Y-68170228D01*
X110118152Y-68170228D02*
X110213390Y-68217847D01*
X110213390Y-68217847D02*
X110261009Y-68265466D01*
X110261009Y-68265466D02*
X110308628Y-68360704D01*
X110308628Y-68360704D02*
X110308628Y-68741656D01*
X110737200Y-67789275D02*
X110784819Y-67646418D01*
X110784819Y-67646418D02*
X110784819Y-67408323D01*
X110784819Y-67408323D02*
X110737200Y-67313085D01*
X110737200Y-67313085D02*
X110689580Y-67265466D01*
X110689580Y-67265466D02*
X110594342Y-67217847D01*
X110594342Y-67217847D02*
X110499104Y-67217847D01*
X110499104Y-67217847D02*
X110403866Y-67265466D01*
X110403866Y-67265466D02*
X110356247Y-67313085D01*
X110356247Y-67313085D02*
X110308628Y-67408323D01*
X110308628Y-67408323D02*
X110261009Y-67598799D01*
X110261009Y-67598799D02*
X110213390Y-67694037D01*
X110213390Y-67694037D02*
X110165771Y-67741656D01*
X110165771Y-67741656D02*
X110070533Y-67789275D01*
X110070533Y-67789275D02*
X109975295Y-67789275D01*
X109975295Y-67789275D02*
X109880057Y-67741656D01*
X109880057Y-67741656D02*
X109832438Y-67694037D01*
X109832438Y-67694037D02*
X109784819Y-67598799D01*
X109784819Y-67598799D02*
X109784819Y-67360704D01*
X109784819Y-67360704D02*
X109832438Y-67217847D01*
X110689580Y-66217847D02*
X110737200Y-66265466D01*
X110737200Y-66265466D02*
X110784819Y-66408323D01*
X110784819Y-66408323D02*
X110784819Y-66503561D01*
X110784819Y-66503561D02*
X110737200Y-66646418D01*
X110737200Y-66646418D02*
X110641961Y-66741656D01*
X110641961Y-66741656D02*
X110546723Y-66789275D01*
X110546723Y-66789275D02*
X110356247Y-66836894D01*
X110356247Y-66836894D02*
X110213390Y-66836894D01*
X110213390Y-66836894D02*
X110022914Y-66789275D01*
X110022914Y-66789275D02*
X109927676Y-66741656D01*
X109927676Y-66741656D02*
X109832438Y-66646418D01*
X109832438Y-66646418D02*
X109784819Y-66503561D01*
X109784819Y-66503561D02*
X109784819Y-66408323D01*
X109784819Y-66408323D02*
X109832438Y-66265466D01*
X109832438Y-66265466D02*
X109880057Y-66217847D01*
X110784819Y-65313085D02*
X110784819Y-65789275D01*
X110784819Y-65789275D02*
X109784819Y-65789275D01*
X110784819Y-64979751D02*
X109784819Y-64979751D01*
X110784819Y-64408323D02*
X110213390Y-64836894D01*
X109784819Y-64408323D02*
X110356247Y-64979751D01*
X107318323Y-54701619D02*
X106984990Y-54225428D01*
X106746895Y-54701619D02*
X106746895Y-53701619D01*
X106746895Y-53701619D02*
X107127847Y-53701619D01*
X107127847Y-53701619D02*
X107223085Y-53749238D01*
X107223085Y-53749238D02*
X107270704Y-53796857D01*
X107270704Y-53796857D02*
X107318323Y-53892095D01*
X107318323Y-53892095D02*
X107318323Y-54034952D01*
X107318323Y-54034952D02*
X107270704Y-54130190D01*
X107270704Y-54130190D02*
X107223085Y-54177809D01*
X107223085Y-54177809D02*
X107127847Y-54225428D01*
X107127847Y-54225428D02*
X106746895Y-54225428D01*
X107746895Y-54701619D02*
X107746895Y-53701619D01*
X107746895Y-53701619D02*
X108318323Y-54701619D01*
X108318323Y-54701619D02*
X108318323Y-53701619D01*
X109365942Y-54606380D02*
X109318323Y-54654000D01*
X109318323Y-54654000D02*
X109175466Y-54701619D01*
X109175466Y-54701619D02*
X109080228Y-54701619D01*
X109080228Y-54701619D02*
X108937371Y-54654000D01*
X108937371Y-54654000D02*
X108842133Y-54558761D01*
X108842133Y-54558761D02*
X108794514Y-54463523D01*
X108794514Y-54463523D02*
X108746895Y-54273047D01*
X108746895Y-54273047D02*
X108746895Y-54130190D01*
X108746895Y-54130190D02*
X108794514Y-53939714D01*
X108794514Y-53939714D02*
X108842133Y-53844476D01*
X108842133Y-53844476D02*
X108937371Y-53749238D01*
X108937371Y-53749238D02*
X109080228Y-53701619D01*
X109080228Y-53701619D02*
X109175466Y-53701619D01*
X109175466Y-53701619D02*
X109318323Y-53749238D01*
X109318323Y-53749238D02*
X109365942Y-53796857D01*
X109746895Y-54654000D02*
X109889752Y-54701619D01*
X109889752Y-54701619D02*
X110127847Y-54701619D01*
X110127847Y-54701619D02*
X110223085Y-54654000D01*
X110223085Y-54654000D02*
X110270704Y-54606380D01*
X110270704Y-54606380D02*
X110318323Y-54511142D01*
X110318323Y-54511142D02*
X110318323Y-54415904D01*
X110318323Y-54415904D02*
X110270704Y-54320666D01*
X110270704Y-54320666D02*
X110223085Y-54273047D01*
X110223085Y-54273047D02*
X110127847Y-54225428D01*
X110127847Y-54225428D02*
X109937371Y-54177809D01*
X109937371Y-54177809D02*
X109842133Y-54130190D01*
X109842133Y-54130190D02*
X109794514Y-54082571D01*
X109794514Y-54082571D02*
X109746895Y-53987333D01*
X109746895Y-53987333D02*
X109746895Y-53892095D01*
X109746895Y-53892095D02*
X109794514Y-53796857D01*
X109794514Y-53796857D02*
X109842133Y-53749238D01*
X109842133Y-53749238D02*
X109937371Y-53701619D01*
X109937371Y-53701619D02*
X110175466Y-53701619D01*
X110175466Y-53701619D02*
X110318323Y-53749238D01*
X137075942Y-60709980D02*
X137028323Y-60757600D01*
X137028323Y-60757600D02*
X136885466Y-60805219D01*
X136885466Y-60805219D02*
X136790228Y-60805219D01*
X136790228Y-60805219D02*
X136647371Y-60757600D01*
X136647371Y-60757600D02*
X136552133Y-60662361D01*
X136552133Y-60662361D02*
X136504514Y-60567123D01*
X136504514Y-60567123D02*
X136456895Y-60376647D01*
X136456895Y-60376647D02*
X136456895Y-60233790D01*
X136456895Y-60233790D02*
X136504514Y-60043314D01*
X136504514Y-60043314D02*
X136552133Y-59948076D01*
X136552133Y-59948076D02*
X136647371Y-59852838D01*
X136647371Y-59852838D02*
X136790228Y-59805219D01*
X136790228Y-59805219D02*
X136885466Y-59805219D01*
X136885466Y-59805219D02*
X137028323Y-59852838D01*
X137028323Y-59852838D02*
X137075942Y-59900457D01*
X138028323Y-60805219D02*
X137456895Y-60805219D01*
X137742609Y-60805219D02*
X137742609Y-59805219D01*
X137742609Y-59805219D02*
X137647371Y-59948076D01*
X137647371Y-59948076D02*
X137552133Y-60043314D01*
X137552133Y-60043314D02*
X137456895Y-60090933D01*
X138647371Y-59805219D02*
X138742609Y-59805219D01*
X138742609Y-59805219D02*
X138837847Y-59852838D01*
X138837847Y-59852838D02*
X138885466Y-59900457D01*
X138885466Y-59900457D02*
X138933085Y-59995695D01*
X138933085Y-59995695D02*
X138980704Y-60186171D01*
X138980704Y-60186171D02*
X138980704Y-60424266D01*
X138980704Y-60424266D02*
X138933085Y-60614742D01*
X138933085Y-60614742D02*
X138885466Y-60709980D01*
X138885466Y-60709980D02*
X138837847Y-60757600D01*
X138837847Y-60757600D02*
X138742609Y-60805219D01*
X138742609Y-60805219D02*
X138647371Y-60805219D01*
X138647371Y-60805219D02*
X138552133Y-60757600D01*
X138552133Y-60757600D02*
X138504514Y-60709980D01*
X138504514Y-60709980D02*
X138456895Y-60614742D01*
X138456895Y-60614742D02*
X138409276Y-60424266D01*
X138409276Y-60424266D02*
X138409276Y-60186171D01*
X138409276Y-60186171D02*
X138456895Y-59995695D01*
X138456895Y-59995695D02*
X138504514Y-59900457D01*
X138504514Y-59900457D02*
X138552133Y-59852838D01*
X138552133Y-59852838D02*
X138647371Y-59805219D01*
X136771142Y-63199180D02*
X136723523Y-63246800D01*
X136723523Y-63246800D02*
X136580666Y-63294419D01*
X136580666Y-63294419D02*
X136485428Y-63294419D01*
X136485428Y-63294419D02*
X136342571Y-63246800D01*
X136342571Y-63246800D02*
X136247333Y-63151561D01*
X136247333Y-63151561D02*
X136199714Y-63056323D01*
X136199714Y-63056323D02*
X136152095Y-62865847D01*
X136152095Y-62865847D02*
X136152095Y-62722990D01*
X136152095Y-62722990D02*
X136199714Y-62532514D01*
X136199714Y-62532514D02*
X136247333Y-62437276D01*
X136247333Y-62437276D02*
X136342571Y-62342038D01*
X136342571Y-62342038D02*
X136485428Y-62294419D01*
X136485428Y-62294419D02*
X136580666Y-62294419D01*
X136580666Y-62294419D02*
X136723523Y-62342038D01*
X136723523Y-62342038D02*
X136771142Y-62389657D01*
X137723523Y-63294419D02*
X137152095Y-63294419D01*
X137437809Y-63294419D02*
X137437809Y-62294419D01*
X137437809Y-62294419D02*
X137342571Y-62437276D01*
X137342571Y-62437276D02*
X137247333Y-62532514D01*
X137247333Y-62532514D02*
X137152095Y-62580133D01*
X138675904Y-63294419D02*
X138104476Y-63294419D01*
X138390190Y-63294419D02*
X138390190Y-62294419D01*
X138390190Y-62294419D02*
X138294952Y-62437276D01*
X138294952Y-62437276D02*
X138199714Y-62532514D01*
X138199714Y-62532514D02*
X138104476Y-62580133D01*
X101545580Y-61685466D02*
X101593200Y-61733085D01*
X101593200Y-61733085D02*
X101640819Y-61875942D01*
X101640819Y-61875942D02*
X101640819Y-61971180D01*
X101640819Y-61971180D02*
X101593200Y-62114037D01*
X101593200Y-62114037D02*
X101497961Y-62209275D01*
X101497961Y-62209275D02*
X101402723Y-62256894D01*
X101402723Y-62256894D02*
X101212247Y-62304513D01*
X101212247Y-62304513D02*
X101069390Y-62304513D01*
X101069390Y-62304513D02*
X100878914Y-62256894D01*
X100878914Y-62256894D02*
X100783676Y-62209275D01*
X100783676Y-62209275D02*
X100688438Y-62114037D01*
X100688438Y-62114037D02*
X100640819Y-61971180D01*
X100640819Y-61971180D02*
X100640819Y-61875942D01*
X100640819Y-61875942D02*
X100688438Y-61733085D01*
X100688438Y-61733085D02*
X100736057Y-61685466D01*
X101640819Y-61209275D02*
X101640819Y-61018799D01*
X101640819Y-61018799D02*
X101593200Y-60923561D01*
X101593200Y-60923561D02*
X101545580Y-60875942D01*
X101545580Y-60875942D02*
X101402723Y-60780704D01*
X101402723Y-60780704D02*
X101212247Y-60733085D01*
X101212247Y-60733085D02*
X100831295Y-60733085D01*
X100831295Y-60733085D02*
X100736057Y-60780704D01*
X100736057Y-60780704D02*
X100688438Y-60828323D01*
X100688438Y-60828323D02*
X100640819Y-60923561D01*
X100640819Y-60923561D02*
X100640819Y-61114037D01*
X100640819Y-61114037D02*
X100688438Y-61209275D01*
X100688438Y-61209275D02*
X100736057Y-61256894D01*
X100736057Y-61256894D02*
X100831295Y-61304513D01*
X100831295Y-61304513D02*
X101069390Y-61304513D01*
X101069390Y-61304513D02*
X101164628Y-61256894D01*
X101164628Y-61256894D02*
X101212247Y-61209275D01*
X101212247Y-61209275D02*
X101259866Y-61114037D01*
X101259866Y-61114037D02*
X101259866Y-60923561D01*
X101259866Y-60923561D02*
X101212247Y-60828323D01*
X101212247Y-60828323D02*
X101164628Y-60780704D01*
X101164628Y-60780704D02*
X101069390Y-60733085D01*
X101967180Y-51331866D02*
X102014800Y-51379485D01*
X102014800Y-51379485D02*
X102062419Y-51522342D01*
X102062419Y-51522342D02*
X102062419Y-51617580D01*
X102062419Y-51617580D02*
X102014800Y-51760437D01*
X102014800Y-51760437D02*
X101919561Y-51855675D01*
X101919561Y-51855675D02*
X101824323Y-51903294D01*
X101824323Y-51903294D02*
X101633847Y-51950913D01*
X101633847Y-51950913D02*
X101490990Y-51950913D01*
X101490990Y-51950913D02*
X101300514Y-51903294D01*
X101300514Y-51903294D02*
X101205276Y-51855675D01*
X101205276Y-51855675D02*
X101110038Y-51760437D01*
X101110038Y-51760437D02*
X101062419Y-51617580D01*
X101062419Y-51617580D02*
X101062419Y-51522342D01*
X101062419Y-51522342D02*
X101110038Y-51379485D01*
X101110038Y-51379485D02*
X101157657Y-51331866D01*
X101157657Y-50950913D02*
X101110038Y-50903294D01*
X101110038Y-50903294D02*
X101062419Y-50808056D01*
X101062419Y-50808056D02*
X101062419Y-50569961D01*
X101062419Y-50569961D02*
X101110038Y-50474723D01*
X101110038Y-50474723D02*
X101157657Y-50427104D01*
X101157657Y-50427104D02*
X101252895Y-50379485D01*
X101252895Y-50379485D02*
X101348133Y-50379485D01*
X101348133Y-50379485D02*
X101490990Y-50427104D01*
X101490990Y-50427104D02*
X102062419Y-50998532D01*
X102062419Y-50998532D02*
X102062419Y-50379485D01*
X136028133Y-51456780D02*
X135980514Y-51504400D01*
X135980514Y-51504400D02*
X135837657Y-51552019D01*
X135837657Y-51552019D02*
X135742419Y-51552019D01*
X135742419Y-51552019D02*
X135599562Y-51504400D01*
X135599562Y-51504400D02*
X135504324Y-51409161D01*
X135504324Y-51409161D02*
X135456705Y-51313923D01*
X135456705Y-51313923D02*
X135409086Y-51123447D01*
X135409086Y-51123447D02*
X135409086Y-50980590D01*
X135409086Y-50980590D02*
X135456705Y-50790114D01*
X135456705Y-50790114D02*
X135504324Y-50694876D01*
X135504324Y-50694876D02*
X135599562Y-50599638D01*
X135599562Y-50599638D02*
X135742419Y-50552019D01*
X135742419Y-50552019D02*
X135837657Y-50552019D01*
X135837657Y-50552019D02*
X135980514Y-50599638D01*
X135980514Y-50599638D02*
X136028133Y-50647257D01*
X136599562Y-50980590D02*
X136504324Y-50932971D01*
X136504324Y-50932971D02*
X136456705Y-50885352D01*
X136456705Y-50885352D02*
X136409086Y-50790114D01*
X136409086Y-50790114D02*
X136409086Y-50742495D01*
X136409086Y-50742495D02*
X136456705Y-50647257D01*
X136456705Y-50647257D02*
X136504324Y-50599638D01*
X136504324Y-50599638D02*
X136599562Y-50552019D01*
X136599562Y-50552019D02*
X136790038Y-50552019D01*
X136790038Y-50552019D02*
X136885276Y-50599638D01*
X136885276Y-50599638D02*
X136932895Y-50647257D01*
X136932895Y-50647257D02*
X136980514Y-50742495D01*
X136980514Y-50742495D02*
X136980514Y-50790114D01*
X136980514Y-50790114D02*
X136932895Y-50885352D01*
X136932895Y-50885352D02*
X136885276Y-50932971D01*
X136885276Y-50932971D02*
X136790038Y-50980590D01*
X136790038Y-50980590D02*
X136599562Y-50980590D01*
X136599562Y-50980590D02*
X136504324Y-51028209D01*
X136504324Y-51028209D02*
X136456705Y-51075828D01*
X136456705Y-51075828D02*
X136409086Y-51171066D01*
X136409086Y-51171066D02*
X136409086Y-51361542D01*
X136409086Y-51361542D02*
X136456705Y-51456780D01*
X136456705Y-51456780D02*
X136504324Y-51504400D01*
X136504324Y-51504400D02*
X136599562Y-51552019D01*
X136599562Y-51552019D02*
X136790038Y-51552019D01*
X136790038Y-51552019D02*
X136885276Y-51504400D01*
X136885276Y-51504400D02*
X136932895Y-51456780D01*
X136932895Y-51456780D02*
X136980514Y-51361542D01*
X136980514Y-51361542D02*
X136980514Y-51171066D01*
X136980514Y-51171066D02*
X136932895Y-51075828D01*
X136932895Y-51075828D02*
X136885276Y-51028209D01*
X136885276Y-51028209D02*
X136790038Y-50980590D01*
D11*
%TO.C,REF\u002A\u002A*%
X130750000Y-73447600D02*
X130750000Y-73567600D01*
X130750000Y-73567600D02*
X133410000Y-73567600D01*
X132080000Y-70907600D02*
X133410000Y-70907600D01*
X133410000Y-70907600D02*
X133410000Y-72237600D01*
X133410000Y-73447600D02*
X133410000Y-73567600D01*
X138014400Y-73447600D02*
X138014400Y-73567600D01*
X138014400Y-73567600D02*
X140674400Y-73567600D01*
X139344400Y-70907600D02*
X140674400Y-70907600D01*
X140674400Y-70907600D02*
X140674400Y-72237600D01*
X140674400Y-73447600D02*
X140674400Y-73567600D01*
X122672800Y-73498400D02*
X122672800Y-73618400D01*
X122672800Y-73618400D02*
X125332800Y-73618400D01*
X124002800Y-70958400D02*
X125332800Y-70958400D01*
X125332800Y-70958400D02*
X125332800Y-72288400D01*
X125332800Y-73498400D02*
X125332800Y-73618400D01*
X134407600Y-73396800D02*
X134407600Y-73516800D01*
X134407600Y-73516800D02*
X137067600Y-73516800D01*
X135737600Y-70856800D02*
X137067600Y-70856800D01*
X137067600Y-70856800D02*
X137067600Y-72186800D01*
X137067600Y-73396800D02*
X137067600Y-73516800D01*
X127143200Y-73498400D02*
X127143200Y-73618400D01*
X127143200Y-73618400D02*
X129803200Y-73618400D01*
X128473200Y-70958400D02*
X129803200Y-70958400D01*
X129803200Y-70958400D02*
X129803200Y-72288400D01*
X129803200Y-73498400D02*
X129803200Y-73618400D01*
X106112000Y-73346000D02*
X106112000Y-73466000D01*
X106112000Y-73466000D02*
X108772000Y-73466000D01*
X107442000Y-70806000D02*
X108772000Y-70806000D01*
X108772000Y-70806000D02*
X108772000Y-72136000D01*
X108772000Y-73346000D02*
X108772000Y-73466000D01*
X121218000Y-73498400D02*
X121218000Y-73618400D01*
X121218000Y-70958400D02*
X121218000Y-72288400D01*
X119888000Y-70958400D02*
X121218000Y-70958400D01*
X118558000Y-73618400D02*
X121218000Y-73618400D01*
X118558000Y-73498400D02*
X118558000Y-73618400D01*
X110582400Y-73396800D02*
X110582400Y-73516800D01*
X110582400Y-73516800D02*
X113242400Y-73516800D01*
X111912400Y-70856800D02*
X113242400Y-70856800D01*
X113242400Y-70856800D02*
X113242400Y-72186800D01*
X113242400Y-73396800D02*
X113242400Y-73516800D01*
X117408000Y-73396800D02*
X117408000Y-73516800D01*
X117408000Y-70856800D02*
X117408000Y-72186800D01*
X116078000Y-70856800D02*
X117408000Y-70856800D01*
X114748000Y-73516800D02*
X117408000Y-73516800D01*
X114748000Y-73396800D02*
X114748000Y-73516800D01*
%TO.C,C7*%
X137476620Y-67257200D02*
X137757780Y-67257200D01*
X137476620Y-68277200D02*
X137757780Y-68277200D01*
%TO.C,C4*%
X137883020Y-54912800D02*
X138164180Y-54912800D01*
X137883020Y-55932800D02*
X138164180Y-55932800D01*
%TO.C,C1*%
X105814400Y-50956580D02*
X105814400Y-50675420D01*
X106834400Y-50956580D02*
X106834400Y-50675420D01*
%TO.C,C6*%
X137883020Y-58570400D02*
X138164180Y-58570400D01*
X137883020Y-59590400D02*
X138164180Y-59590400D01*
%TO.C,C5*%
X104087200Y-61719780D02*
X104087200Y-61438620D01*
X105107200Y-61719780D02*
X105107200Y-61438620D01*
%TO.C,C3*%
X104142000Y-56538180D02*
X104142000Y-56257020D01*
X103122000Y-56538180D02*
X103122000Y-56257020D01*
%TO.C,RMOSI*%
X113066300Y-65261258D02*
X113066300Y-64786742D01*
X114111300Y-65261258D02*
X114111300Y-64786742D01*
%TO.C,RSCLK*%
X111237500Y-66836058D02*
X111237500Y-66361542D01*
X112282500Y-66836058D02*
X112282500Y-66361542D01*
%TO.C,RNCS*%
X108271542Y-56199300D02*
X108746058Y-56199300D01*
X108271542Y-55154300D02*
X108746058Y-55154300D01*
%TO.C,U1*%
X116094800Y-64886600D02*
X116094800Y-50736600D01*
X117694800Y-49036600D02*
X130794800Y-49036600D01*
X130794800Y-49036600D02*
X130794800Y-64886600D01*
X130794800Y-64886600D02*
X116094800Y-64886600D01*
D12*
%TO.C,T1*%
X123102000Y-46599600D02*
X123102000Y-47067600D01*
X123524000Y-46599600D02*
X123102000Y-46599600D01*
X124029000Y-47399600D02*
X123875000Y-47399600D01*
X124802000Y-46599600D02*
X124380000Y-46599600D01*
X124802000Y-46599600D02*
X124802000Y-47067600D01*
D11*
%TO.C,C10*%
X137602220Y-61110400D02*
X137883380Y-61110400D01*
X137602220Y-62130400D02*
X137883380Y-62130400D01*
%TO.C,C11*%
X137324220Y-63650400D02*
X137605380Y-63650400D01*
X137324220Y-64670400D02*
X137605380Y-64670400D01*
%TO.C,C9*%
X102106000Y-61659380D02*
X102106000Y-61378220D01*
X103126000Y-61659380D02*
X103126000Y-61378220D01*
%TO.C,C2*%
X100687600Y-51024620D02*
X100687600Y-51305780D01*
X99667600Y-51024620D02*
X99667600Y-51305780D01*
%TO.C,C8*%
X136054220Y-52017200D02*
X136335380Y-52017200D01*
X136054220Y-53037200D02*
X136335380Y-53037200D01*
%TD*%
M02*
