%TF.GenerationSoftware,KiCad,Pcbnew,8.0.2-8.0.2-0~ubuntu20.04.1*%
%TF.CreationDate,2024-06-25T13:19:00+03:00*%
%TF.ProjectId,PCB_ADNS9800-Board_2024-06-24,5043425f-4144-44e5-9339-3830302d426f,rev?*%
%TF.SameCoordinates,Original*%
%TF.FileFunction,Copper,L1,Top*%
%TF.FilePolarity,Positive*%
%FSLAX46Y46*%
G04 Gerber Fmt 4.6, Leading zero omitted, Abs format (unit mm)*
G04 Created by KiCad (PCBNEW 8.0.2-8.0.2-0~ubuntu20.04.1) date 2024-06-25 13:19:00*
%MOMM*%
%LPD*%
G01*
G04 APERTURE LIST*
G04 Aperture macros list*
%AMRoundRect*
0 Rectangle with rounded corners*
0 $1 Rounding radius*
0 $2 $3 $4 $5 $6 $7 $8 $9 X,Y pos of 4 corners*
0 Add a 4 corners polygon primitive as box body*
4,1,4,$2,$3,$4,$5,$6,$7,$8,$9,$2,$3,0*
0 Add four circle primitives for the rounded corners*
1,1,$1+$1,$2,$3*
1,1,$1+$1,$4,$5*
1,1,$1+$1,$6,$7*
1,1,$1+$1,$8,$9*
0 Add four rect primitives between the rounded corners*
20,1,$1+$1,$2,$3,$4,$5,0*
20,1,$1+$1,$4,$5,$6,$7,0*
20,1,$1+$1,$6,$7,$8,$9,0*
20,1,$1+$1,$8,$9,$2,$3,0*%
G04 Aperture macros list end*
%TA.AperFunction,ComponentPad*%
%ADD10R,1.700000X1.700000*%
%TD*%
%TA.AperFunction,SMDPad,CuDef*%
%ADD11RoundRect,0.225000X-0.225000X-0.250000X0.225000X-0.250000X0.225000X0.250000X-0.225000X0.250000X0*%
%TD*%
%TA.AperFunction,SMDPad,CuDef*%
%ADD12RoundRect,0.225000X0.250000X-0.225000X0.250000X0.225000X-0.250000X0.225000X-0.250000X-0.225000X0*%
%TD*%
%TA.AperFunction,SMDPad,CuDef*%
%ADD13RoundRect,0.200000X0.275000X-0.200000X0.275000X0.200000X-0.275000X0.200000X-0.275000X-0.200000X0*%
%TD*%
%TA.AperFunction,SMDPad,CuDef*%
%ADD14RoundRect,0.200000X-0.200000X-0.275000X0.200000X-0.275000X0.200000X0.275000X-0.200000X0.275000X0*%
%TD*%
%TA.AperFunction,ComponentPad*%
%ADD15R,1.524000X1.524000*%
%TD*%
%TA.AperFunction,ComponentPad*%
%ADD16C,1.524000*%
%TD*%
%TA.AperFunction,SMDPad,CuDef*%
%ADD17R,0.400000X0.700000*%
%TD*%
%TA.AperFunction,SMDPad,CuDef*%
%ADD18RoundRect,0.225000X-0.250000X0.225000X-0.250000X-0.225000X0.250000X-0.225000X0.250000X0.225000X0*%
%TD*%
%TA.AperFunction,Conductor*%
%ADD19C,0.800100*%
%TD*%
%TA.AperFunction,Conductor*%
%ADD20C,1.524000*%
%TD*%
G04 APERTURE END LIST*
D10*
%TO.P,REF\u002A\u002A,1*%
%TO.N,PIN10*%
X132080000Y-72237600D03*
%TD*%
%TO.P,REF\u002A\u002A,1*%
%TO.N,VDD2*%
X139344400Y-72237600D03*
%TD*%
%TO.P,REF\u002A\u002A,1*%
%TO.N,MOTION*%
X124002800Y-72288400D03*
%TD*%
%TO.P,REF\u002A\u002A,1*%
%TO.N,GND*%
X135737600Y-72186800D03*
%TD*%
%TO.P,REF\u002A\u002A,1*%
%TO.N,VCC*%
X128473200Y-72288400D03*
%TD*%
%TO.P,REF\u002A\u002A,1*%
%TO.N,H1_8*%
X107442000Y-72136000D03*
%TD*%
%TO.P,REF\u002A\u002A,1*%
%TO.N,H1_6*%
X119888000Y-72288400D03*
%TD*%
%TO.P,REF\u002A\u002A,1*%
%TO.N,MISO*%
X111912400Y-72186800D03*
%TD*%
%TO.P,REF\u002A\u002A,1*%
%TO.N,H1_2*%
X116078000Y-72186800D03*
%TD*%
D11*
%TO.P,C7,1*%
%TO.N,VDD2*%
X136842200Y-67767200D03*
%TO.P,C7,2*%
%TO.N,GND*%
X138392200Y-67767200D03*
%TD*%
%TO.P,C4,1*%
%TO.N,VDD2*%
X137248600Y-55422800D03*
%TO.P,C4,2*%
%TO.N,GND*%
X138798600Y-55422800D03*
%TD*%
D12*
%TO.P,C1,1*%
%TO.N,GND*%
X106324400Y-51591000D03*
%TO.P,C1,2*%
%TO.N,VDD2*%
X106324400Y-50041000D03*
%TD*%
D11*
%TO.P,C6,1*%
%TO.N,U1_13*%
X137248600Y-59080400D03*
%TO.P,C6,2*%
%TO.N,GND*%
X138798600Y-59080400D03*
%TD*%
D12*
%TO.P,C5,1*%
%TO.N,VCC*%
X104597200Y-62354200D03*
%TO.P,C5,2*%
%TO.N,GND*%
X104597200Y-60804200D03*
%TD*%
%TO.P,C3,2*%
%TO.N,U1_1*%
X103632000Y-55622600D03*
%TO.P,C3,1*%
%TO.N,U1_8*%
X103632000Y-57172600D03*
%TD*%
D13*
%TO.P,RMOSI,1*%
%TO.N,H1_6*%
X113588800Y-65849000D03*
%TO.P,RMOSI,2*%
%TO.N,MOSI*%
X113588800Y-64199000D03*
%TD*%
%TO.P,RSCLK,1*%
%TO.N,H1_2*%
X111760000Y-67423800D03*
%TO.P,RSCLK,2*%
%TO.N,SCLK*%
X111760000Y-65773800D03*
%TD*%
D14*
%TO.P,RNCS,2*%
%TO.N,NCS*%
X109333800Y-55676800D03*
%TO.P,RNCS,1*%
%TO.N,H1_8*%
X107683800Y-55676800D03*
%TD*%
D15*
%TO.P,U1,1*%
%TO.N,U1_1*%
X117144800Y-50736600D03*
D16*
%TO.P,U1,2*%
%TO.N,U1_2*%
X117144800Y-52516600D03*
%TO.P,U1,3*%
%TO.N,NCS*%
X117144800Y-54296600D03*
%TO.P,U1,4*%
%TO.N,MISO*%
X117144800Y-56076600D03*
%TO.P,U1,5*%
%TO.N,SCLK*%
X117144800Y-57856600D03*
%TO.P,U1,6*%
%TO.N,MOSI*%
X117144800Y-59636600D03*
%TO.P,U1,7*%
%TO.N,MOTION*%
X117144800Y-61416600D03*
%TO.P,U1,8*%
%TO.N,U1_8*%
X117144800Y-63196600D03*
%TO.P,U1,9*%
%TO.N,VCC*%
X129744800Y-63196600D03*
%TO.P,U1,10*%
%TO.N,PIN10*%
X129744800Y-61416600D03*
%TO.P,U1,11*%
%TO.N,GND*%
X129744800Y-59636600D03*
%TO.P,U1,12*%
%TO.N,VDD2*%
X129744800Y-57856600D03*
%TO.P,U1,13*%
%TO.N,U1_13*%
X129744800Y-56076600D03*
%TO.P,U1,14*%
%TO.N,GND*%
X129744800Y-54296600D03*
%TO.P,U1,15*%
%TO.N,VDD2*%
X129744800Y-52516600D03*
%TO.P,U1,16*%
%TO.N,U1_8*%
X129744800Y-50736600D03*
%TD*%
D17*
%TO.P,T1,1*%
%TO.N,U1_2*%
X123444000Y-47599600D03*
%TO.P,T1,2*%
%TO.N,VDD2*%
X124460000Y-47599600D03*
%TO.P,T1,3*%
%TO.N,U1_1*%
X123952000Y-46399600D03*
%TD*%
D11*
%TO.P,C10,1*%
%TO.N,U1_13*%
X136967800Y-61620400D03*
%TO.P,C10,2*%
%TO.N,GND*%
X138517800Y-61620400D03*
%TD*%
%TO.P,C11,1*%
%TO.N,VDD2*%
X136689800Y-64160400D03*
%TO.P,C11,2*%
%TO.N,GND*%
X138239800Y-64160400D03*
%TD*%
D12*
%TO.P,C9,1*%
%TO.N,VCC*%
X102616000Y-62293800D03*
%TO.P,C9,2*%
%TO.N,GND*%
X102616000Y-60743800D03*
%TD*%
D18*
%TO.P,C2,1*%
%TO.N,VDD2*%
X100177600Y-50390200D03*
%TO.P,C2,2*%
%TO.N,GND*%
X100177600Y-51940200D03*
%TD*%
D11*
%TO.P,C8,1*%
%TO.N,VDD2*%
X135419800Y-52527200D03*
%TO.P,C8,2*%
%TO.N,GND*%
X136969800Y-52527200D03*
%TD*%
D19*
%TO.N,GND*%
X103759000Y-59512200D02*
X101176400Y-56929600D01*
X104597200Y-60350400D02*
X103759000Y-59512200D01*
X103759000Y-59512200D02*
X103759000Y-59600800D01*
X103759000Y-59600800D02*
X102616000Y-60743800D01*
X100888800Y-57217200D02*
X100888800Y-68935600D01*
X144678400Y-74422000D02*
X144678400Y-63195200D01*
X100888800Y-68935600D02*
X102870000Y-70916800D01*
X104190800Y-76860400D02*
X142240000Y-76860400D01*
X102870000Y-70916800D02*
X102870000Y-75539600D01*
X102870000Y-75539600D02*
X104190800Y-76860400D01*
X142240000Y-76860400D02*
X144678400Y-74422000D01*
X106324400Y-51816000D02*
X104438400Y-51816000D01*
X100931600Y-51911200D02*
X100177600Y-52665200D01*
X104438400Y-51816000D02*
X104343200Y-51911200D01*
X104343200Y-51911200D02*
X100931600Y-51911200D01*
X100177600Y-52665200D02*
X100177600Y-56506000D01*
X100177600Y-56506000D02*
X100888800Y-57217200D01*
X104597200Y-60804200D02*
X104597200Y-60350400D01*
X101176400Y-56929600D02*
X100888800Y-57217200D01*
%TO.N,VCC*%
X102666800Y-62636400D02*
X102666800Y-63334600D01*
X102666800Y-63334600D02*
X103555800Y-64223600D01*
X103555800Y-64223600D02*
X103682800Y-64223600D01*
X104597200Y-62687200D02*
X104597200Y-63248800D01*
X104597200Y-63248800D02*
X103632000Y-64214000D01*
X103632000Y-64214000D02*
X103632000Y-67719200D01*
%TO.N,U1_8*%
X117144800Y-63196600D02*
X117144800Y-64922400D01*
X117144800Y-64922400D02*
X117856000Y-65633600D01*
X126187200Y-66395600D02*
X126187200Y-73710800D01*
X117856000Y-65633600D02*
X125425200Y-65633600D01*
X126187200Y-73710800D02*
X124866400Y-75031600D01*
X125425200Y-65633600D02*
X126187200Y-66395600D01*
X132638800Y-47752000D02*
X139496800Y-47752000D01*
X142544800Y-50800000D02*
X142544800Y-73304400D01*
X105054400Y-75031600D02*
X104800400Y-74777600D01*
X106375200Y-69138800D02*
X106375200Y-59915800D01*
X139496800Y-47752000D02*
X142544800Y-50800000D01*
X142544800Y-73304400D02*
X140817600Y-75031600D01*
X140817600Y-75031600D02*
X105054400Y-75031600D01*
X106375200Y-59915800D02*
X103632000Y-57172600D01*
X104800400Y-74777600D02*
X104800400Y-70713600D01*
X104800400Y-70713600D02*
X106375200Y-69138800D01*
%TO.N,H1_8*%
X107683800Y-55676800D02*
X107683800Y-57544200D01*
X107683800Y-57544200D02*
X108305600Y-58166000D01*
X108305600Y-58166000D02*
X108305600Y-71374000D01*
X108305600Y-71374000D02*
X107492800Y-72186800D01*
%TO.N,VDD2*%
X139344400Y-72237600D02*
X139344400Y-71323200D01*
X139344400Y-71323200D02*
X138887200Y-70866000D01*
X138887200Y-70866000D02*
X138877768Y-70866000D01*
X136842200Y-68830432D02*
X136842200Y-68732400D01*
X138877768Y-70866000D02*
X136842200Y-68830432D01*
X134694800Y-52527200D02*
X136422000Y-50800000D01*
X136422000Y-50800000D02*
X139192000Y-50800000D01*
X139192000Y-50800000D02*
X140970000Y-52578000D01*
X140868400Y-68834000D02*
X139344400Y-70358000D01*
X140970000Y-52578000D02*
X140868400Y-52679600D01*
X140868400Y-52679600D02*
X140868400Y-68834000D01*
X139344400Y-70358000D02*
X139344400Y-72237600D01*
%TO.N,GND*%
X129744800Y-59636600D02*
X131823400Y-59636600D01*
X131823400Y-59636600D02*
X133045200Y-60858400D01*
X133045200Y-60858400D02*
X133045200Y-66408800D01*
X133045200Y-66408800D02*
X135178800Y-68542400D01*
X135178800Y-68542400D02*
X135178800Y-71628000D01*
X135178800Y-71628000D02*
X135737600Y-72186800D01*
%TO.N,H1_2*%
X111760000Y-67423800D02*
X111760000Y-68173600D01*
X111760000Y-68173600D02*
X113334800Y-69748400D01*
X113334800Y-69748400D02*
X113995200Y-69748400D01*
X113995200Y-69748400D02*
X116078000Y-71831200D01*
X116078000Y-71831200D02*
X116078000Y-72186800D01*
%TO.N,SCLK*%
X111760000Y-65773800D02*
X111760000Y-59588400D01*
X114401600Y-57861200D02*
X114406200Y-57856600D01*
X111760000Y-59588400D02*
X113487200Y-57861200D01*
X113487200Y-57861200D02*
X114401600Y-57861200D01*
X114406200Y-57856600D02*
X117144800Y-57856600D01*
%TO.N,MISO*%
X111912400Y-72186800D02*
X110032800Y-70307200D01*
X110032800Y-70307200D02*
X110032800Y-57962800D01*
X110032800Y-57962800D02*
X110693200Y-57302400D01*
X113239800Y-56076600D02*
X117144800Y-56076600D01*
X110693200Y-57302400D02*
X112014000Y-57302400D01*
X112014000Y-57302400D02*
X113239800Y-56076600D01*
%TO.N,H1_6*%
X113690400Y-65849000D02*
X113690400Y-66497200D01*
X113690400Y-66497200D02*
X115874800Y-68681600D01*
X115874800Y-68681600D02*
X119227600Y-68681600D01*
X119227600Y-68681600D02*
X119888000Y-69342000D01*
X119888000Y-69342000D02*
X119888000Y-72288400D01*
%TO.N,MOTION*%
X117144800Y-61416600D02*
X115977000Y-61416600D01*
X115977000Y-61416600D02*
X115011200Y-62382400D01*
X115011200Y-65074800D02*
X117144800Y-67208400D01*
X115011200Y-62382400D02*
X115011200Y-65074800D01*
X124002800Y-68326000D02*
X124002800Y-72288400D01*
X117144800Y-67208400D02*
X122885200Y-67208400D01*
X122885200Y-67208400D02*
X124002800Y-68326000D01*
%TO.N,VCC*%
X129744800Y-67714800D02*
X128473200Y-68986400D01*
X128473200Y-68986400D02*
X128473200Y-72288400D01*
X129744800Y-63196600D02*
X129744800Y-67714800D01*
%TO.N,U1_1*%
X114808000Y-45821600D02*
X123698000Y-45821600D01*
X123698000Y-45821600D02*
X123901200Y-46024800D01*
%TO.N,U1_2*%
X115112800Y-47599600D02*
X123139200Y-47599600D01*
%TO.N,VDD2*%
X128473200Y-47599600D02*
X124866400Y-47599600D01*
D20*
%TO.N,VCC*%
X103632000Y-67719200D02*
X103581200Y-67770000D01*
D19*
%TO.N,U1_13*%
X137248600Y-59080400D02*
X137248600Y-60363400D01*
X137248600Y-60363400D02*
X136956800Y-60655200D01*
X136956800Y-60655200D02*
X136956800Y-61609400D01*
X136956800Y-61609400D02*
X136967800Y-61620400D01*
X129744800Y-56076600D02*
X129751400Y-56083200D01*
X135890000Y-59080400D02*
X137248600Y-59080400D01*
X129751400Y-56083200D02*
X132892800Y-56083200D01*
X132892800Y-56083200D02*
X135890000Y-59080400D01*
%TO.N,VDD2*%
X136842200Y-68732400D02*
X136855200Y-68719400D01*
X132583400Y-57856600D02*
X129744800Y-57856600D01*
X136855200Y-68719400D02*
X136855200Y-64325800D01*
X134772400Y-64160400D02*
X134366000Y-63754000D01*
X136855200Y-64325800D02*
X136689800Y-64160400D01*
X136689800Y-64160400D02*
X134772400Y-64160400D01*
X134366000Y-59639200D02*
X132583400Y-57856600D01*
X134366000Y-63754000D02*
X134366000Y-59639200D01*
%TO.N,PIN10*%
X132080000Y-72237600D02*
X132080000Y-68783200D01*
X131673600Y-62026800D02*
X131063400Y-61416600D01*
X132080000Y-68783200D02*
X131673600Y-68376800D01*
X131673600Y-68376800D02*
X131673600Y-62026800D01*
X131063400Y-61416600D02*
X129744800Y-61416600D01*
%TO.N,GND*%
X139023600Y-57251600D02*
X136448800Y-57251600D01*
X136448800Y-57251600D02*
X133493800Y-54296600D01*
X133493800Y-54296600D02*
X129744800Y-54296600D01*
X139023600Y-57251600D02*
X139023600Y-54581000D01*
X139023600Y-54581000D02*
X136969800Y-52527200D01*
%TO.N,VDD2*%
X135419800Y-52527200D02*
X135419800Y-53819000D01*
X135419800Y-53819000D02*
X137023600Y-55422800D01*
X134694800Y-52527200D02*
X135419800Y-52527200D01*
X135419800Y-52527200D02*
X135410200Y-52517600D01*
X135410200Y-52517600D02*
X129745800Y-52517600D01*
%TO.N,U1_1*%
X114808000Y-45821600D02*
X112166400Y-48463200D01*
X112166400Y-48463200D02*
X112166400Y-52476400D01*
X111455200Y-53187600D02*
X106029200Y-53187600D01*
X106029200Y-53187600D02*
X103819200Y-55397600D01*
X112166400Y-52476400D02*
X111455200Y-53187600D01*
%TO.N,U1_2*%
X115112800Y-47599600D02*
X113690400Y-49022000D01*
X113690400Y-49022000D02*
X113690400Y-51917600D01*
X113690400Y-51917600D02*
X114289400Y-52516600D01*
X114289400Y-52516600D02*
X117144800Y-52516600D01*
%TO.N,VDD2*%
X100177600Y-49665200D02*
X104097200Y-49665200D01*
X104097200Y-49665200D02*
X104248000Y-49816000D01*
X106324400Y-49816000D02*
X106324400Y-47768000D01*
X106324400Y-47768000D02*
X110677200Y-47768000D01*
X104248000Y-49816000D02*
X106324400Y-49816000D01*
X110677200Y-47768000D02*
X114096800Y-44348400D01*
X128473200Y-47599600D02*
X129438400Y-47599600D01*
X114096800Y-44348400D02*
X125222000Y-44348400D01*
X125222000Y-44348400D02*
X128473200Y-47599600D01*
%TO.N,NCS*%
X109333800Y-55676800D02*
X110197400Y-54813200D01*
X110197400Y-54813200D02*
X112318800Y-54813200D01*
X112835400Y-54296600D02*
X117144800Y-54296600D01*
X112318800Y-54813200D02*
X112835400Y-54296600D01*
%TO.N,U1_8*%
X129041750Y-49336550D02*
X127812800Y-49336550D01*
X129082800Y-49377600D02*
X129041750Y-49336550D01*
X129744800Y-50736600D02*
X129744800Y-50039600D01*
X129744800Y-50039600D02*
X129082800Y-49377600D01*
%TO.N,GND*%
X138964800Y-64160400D02*
X138964800Y-67165600D01*
X138964800Y-67165600D02*
X138392200Y-67738200D01*
%TO.N,MOSI*%
X117144800Y-59636600D02*
X114556600Y-59636600D01*
X114556600Y-59636600D02*
X113538000Y-60655200D01*
X113538000Y-60655200D02*
X113538000Y-64046600D01*
X113538000Y-64046600D02*
X113690400Y-64199000D01*
%TO.N,U1_1*%
X117144800Y-50736600D02*
X117144800Y-49174400D01*
X115468400Y-49174400D02*
X115417600Y-49225200D01*
X115328600Y-50736600D02*
X115316000Y-50749200D01*
X115328600Y-50736600D02*
X117144800Y-50736600D01*
X117144800Y-49174400D02*
X117246400Y-49072800D01*
X117144800Y-49174400D02*
X115468400Y-49174400D01*
%TO.N,VDD2*%
X129438400Y-47599600D02*
X129767200Y-47599600D01*
%TO.N,GND*%
X139023600Y-57251600D02*
X139023600Y-59080400D01*
X139242800Y-61620400D02*
X139242800Y-63882400D01*
X139023600Y-59080400D02*
X139023600Y-61401200D01*
X139023600Y-61401200D02*
X139242800Y-61620400D01*
X139242800Y-63882400D02*
X138964800Y-64160400D01*
%TO.N,VDD2*%
X129767200Y-47599600D02*
X134694800Y-52527200D01*
%TD*%
%TA.AperFunction,Conductor*%
%TO.N,GND*%
G36*
X113411206Y-43547785D02*
G01*
X113456961Y-43600589D01*
X113466905Y-43669747D01*
X113437880Y-43733303D01*
X113431848Y-43739781D01*
X110340499Y-46831131D01*
X110279176Y-46864616D01*
X110252818Y-46867450D01*
X106235701Y-46867450D01*
X106061726Y-46902056D01*
X106061718Y-46902058D01*
X105897827Y-46969943D01*
X105750337Y-47068493D01*
X105750329Y-47068499D01*
X105624899Y-47193929D01*
X105624893Y-47193937D01*
X105526343Y-47341427D01*
X105458458Y-47505318D01*
X105458456Y-47505326D01*
X105423850Y-47679299D01*
X105423850Y-48791450D01*
X105404165Y-48858489D01*
X105351361Y-48904244D01*
X105299850Y-48915450D01*
X104633681Y-48915450D01*
X104566642Y-48895765D01*
X104564827Y-48894576D01*
X104523770Y-48867143D01*
X104523771Y-48867143D01*
X104523769Y-48867142D01*
X104359881Y-48799258D01*
X104359875Y-48799256D01*
X104185899Y-48764650D01*
X104185897Y-48764650D01*
X104185896Y-48764650D01*
X100088904Y-48764650D01*
X100088901Y-48764650D01*
X99914926Y-48799256D01*
X99914918Y-48799258D01*
X99751027Y-48867143D01*
X99603537Y-48965693D01*
X99603529Y-48965699D01*
X99478099Y-49091129D01*
X99478093Y-49091137D01*
X99379543Y-49238627D01*
X99311658Y-49402518D01*
X99311656Y-49402526D01*
X99277050Y-49576499D01*
X99277050Y-49753900D01*
X99280181Y-49769642D01*
X99273951Y-49839233D01*
X99268601Y-49849931D01*
X99268651Y-49849955D01*
X99265596Y-49856505D01*
X99212251Y-50017490D01*
X99202100Y-50116847D01*
X99202100Y-50663537D01*
X99202101Y-50663555D01*
X99212250Y-50762907D01*
X99212251Y-50762910D01*
X99265596Y-50923894D01*
X99265601Y-50923905D01*
X99354629Y-51068240D01*
X99354632Y-51068244D01*
X99364260Y-51077872D01*
X99397745Y-51139195D01*
X99392761Y-51208887D01*
X99364263Y-51253231D01*
X99355028Y-51262465D01*
X99355024Y-51262471D01*
X99266057Y-51406707D01*
X99266052Y-51406718D01*
X99212744Y-51567593D01*
X99202600Y-51666877D01*
X99202600Y-51690200D01*
X101152599Y-51690200D01*
X101152599Y-51666892D01*
X101152598Y-51666877D01*
X101142455Y-51567592D01*
X101089147Y-51406718D01*
X101089142Y-51406707D01*
X101000175Y-51262471D01*
X101000172Y-51262467D01*
X100990939Y-51253234D01*
X100957454Y-51191911D01*
X100962438Y-51122219D01*
X100990943Y-51077868D01*
X101000568Y-51068244D01*
X101089603Y-50923897D01*
X101142949Y-50762908D01*
X101151710Y-50677146D01*
X101178106Y-50612456D01*
X101235286Y-50572305D01*
X101275068Y-50565750D01*
X103711518Y-50565750D01*
X103778557Y-50585435D01*
X103780389Y-50586634D01*
X103820846Y-50613667D01*
X103821430Y-50614057D01*
X103985319Y-50681942D01*
X103985323Y-50681942D01*
X103985324Y-50681943D01*
X104159300Y-50716550D01*
X104159303Y-50716550D01*
X104159304Y-50716550D01*
X105401246Y-50716550D01*
X105468285Y-50736235D01*
X105514040Y-50789039D01*
X105523984Y-50858197D01*
X105503509Y-50905820D01*
X105505618Y-50907121D01*
X105412857Y-51057507D01*
X105412852Y-51057518D01*
X105359544Y-51218393D01*
X105349400Y-51317677D01*
X105349400Y-51341000D01*
X107299399Y-51341000D01*
X107299399Y-51317692D01*
X107299398Y-51317677D01*
X107289255Y-51218392D01*
X107235947Y-51057518D01*
X107235942Y-51057507D01*
X107146975Y-50913271D01*
X107146972Y-50913267D01*
X107137739Y-50904034D01*
X107104254Y-50842711D01*
X107109238Y-50773019D01*
X107137743Y-50728668D01*
X107147368Y-50719044D01*
X107236403Y-50574697D01*
X107289749Y-50413708D01*
X107299900Y-50314345D01*
X107299899Y-49767656D01*
X107298493Y-49753896D01*
X107289749Y-49668292D01*
X107289747Y-49668286D01*
X107234132Y-49500447D01*
X107234912Y-49500188D01*
X107224950Y-49455251D01*
X107224950Y-48792550D01*
X107244635Y-48725511D01*
X107297439Y-48679756D01*
X107348950Y-48668550D01*
X110765899Y-48668550D01*
X110882947Y-48645266D01*
X110939881Y-48633942D01*
X111094398Y-48569938D01*
X111163866Y-48562470D01*
X111226346Y-48593745D01*
X111261998Y-48653834D01*
X111265850Y-48684500D01*
X111265850Y-52052018D01*
X111246165Y-52119057D01*
X111229531Y-52139699D01*
X111118499Y-52250731D01*
X111057176Y-52284216D01*
X111030818Y-52287050D01*
X107353798Y-52287050D01*
X107286759Y-52267365D01*
X107241004Y-52214561D01*
X107231060Y-52145403D01*
X107236092Y-52124046D01*
X107289255Y-51963607D01*
X107299399Y-51864322D01*
X107299400Y-51864309D01*
X107299400Y-51841000D01*
X105349401Y-51841000D01*
X105349401Y-51864322D01*
X105359544Y-51963607D01*
X105412852Y-52124481D01*
X105412857Y-52124492D01*
X105501824Y-52268728D01*
X105501827Y-52268732D01*
X105507783Y-52274688D01*
X105541268Y-52336011D01*
X105536284Y-52405703D01*
X105494412Y-52461636D01*
X105488995Y-52465470D01*
X105455131Y-52488097D01*
X103294150Y-54649078D01*
X103240193Y-54678540D01*
X103240718Y-54680122D01*
X103234293Y-54682250D01*
X103234292Y-54682251D01*
X103164303Y-54705443D01*
X103073305Y-54735596D01*
X103073294Y-54735601D01*
X102928959Y-54824629D01*
X102928955Y-54824632D01*
X102809032Y-54944555D01*
X102809029Y-54944559D01*
X102720001Y-55088894D01*
X102719996Y-55088905D01*
X102666651Y-55249890D01*
X102656500Y-55349247D01*
X102656500Y-55895937D01*
X102656501Y-55895955D01*
X102666650Y-55995307D01*
X102666651Y-55995310D01*
X102719996Y-56156294D01*
X102720001Y-56156305D01*
X102809029Y-56300640D01*
X102809032Y-56300644D01*
X102818307Y-56309919D01*
X102851792Y-56371242D01*
X102846808Y-56440934D01*
X102818307Y-56485281D01*
X102809032Y-56494555D01*
X102809029Y-56494559D01*
X102720001Y-56638894D01*
X102719996Y-56638905D01*
X102666651Y-56799890D01*
X102656500Y-56899247D01*
X102656500Y-57445937D01*
X102656501Y-57445955D01*
X102666650Y-57545307D01*
X102666651Y-57545310D01*
X102719996Y-57706294D01*
X102720001Y-57706305D01*
X102809029Y-57850640D01*
X102809032Y-57850644D01*
X102928955Y-57970567D01*
X102928959Y-57970570D01*
X103073294Y-58059598D01*
X103073297Y-58059599D01*
X103073303Y-58059603D01*
X103180629Y-58095167D01*
X103234291Y-58112949D01*
X103238823Y-58113411D01*
X103262227Y-58115802D01*
X103326919Y-58142195D01*
X103337309Y-58151479D01*
X104855934Y-59670104D01*
X104889419Y-59731427D01*
X104884435Y-59801119D01*
X104855934Y-59845466D01*
X104847200Y-59854200D01*
X104847200Y-60930200D01*
X104827515Y-60997239D01*
X104774711Y-61042994D01*
X104723200Y-61054200D01*
X103690962Y-61054200D01*
X103623923Y-61034515D01*
X103603281Y-61017881D01*
X103579200Y-60993800D01*
X101641001Y-60993800D01*
X101641001Y-61017122D01*
X101651144Y-61116407D01*
X101704452Y-61277281D01*
X101704457Y-61277292D01*
X101793424Y-61421528D01*
X101793427Y-61421532D01*
X101802660Y-61430765D01*
X101836145Y-61492088D01*
X101831161Y-61561780D01*
X101802663Y-61606124D01*
X101793033Y-61615753D01*
X101793029Y-61615759D01*
X101704001Y-61760094D01*
X101703996Y-61760105D01*
X101650651Y-61921090D01*
X101640500Y-62020447D01*
X101640500Y-62567137D01*
X101640501Y-62567155D01*
X101650650Y-62666507D01*
X101650651Y-62666510D01*
X101703998Y-62827499D01*
X101747788Y-62898492D01*
X101766250Y-62963590D01*
X101766250Y-63245903D01*
X101766250Y-63423297D01*
X101766250Y-63423299D01*
X101766249Y-63423299D01*
X101800856Y-63597275D01*
X101800858Y-63597281D01*
X101868743Y-63761172D01*
X101967293Y-63908662D01*
X101967299Y-63908670D01*
X102695131Y-64636501D01*
X102728616Y-64697824D01*
X102731450Y-64724182D01*
X102731450Y-66782942D01*
X102711765Y-66849981D01*
X102695132Y-66870622D01*
X102618222Y-66947533D01*
X102618221Y-66947534D01*
X102618219Y-66947537D01*
X102606299Y-66963944D01*
X102501413Y-67108305D01*
X102411194Y-67285367D01*
X102411193Y-67285370D01*
X102349787Y-67474362D01*
X102349787Y-67474364D01*
X102318700Y-67670639D01*
X102318700Y-67869361D01*
X102331855Y-67952418D01*
X102349787Y-68065637D01*
X102411193Y-68254629D01*
X102411194Y-68254632D01*
X102475529Y-68380894D01*
X102501413Y-68431694D01*
X102618219Y-68592463D01*
X102758737Y-68732981D01*
X102919506Y-68849787D01*
X103006349Y-68894035D01*
X103096567Y-68940005D01*
X103096570Y-68940006D01*
X103130007Y-68950870D01*
X103285564Y-69001413D01*
X103481839Y-69032500D01*
X103481840Y-69032500D01*
X103680560Y-69032500D01*
X103680561Y-69032500D01*
X103876836Y-69001413D01*
X104065832Y-68940005D01*
X104242894Y-68849787D01*
X104403663Y-68732981D01*
X104594981Y-68541664D01*
X104711787Y-68380894D01*
X104802005Y-68203832D01*
X104863413Y-68014836D01*
X104894500Y-67818561D01*
X104894500Y-67619840D01*
X104894500Y-67619834D01*
X104871459Y-67474364D01*
X104863413Y-67423564D01*
X104820151Y-67290417D01*
X104802006Y-67234570D01*
X104802005Y-67234567D01*
X104732928Y-67098998D01*
X104711787Y-67057506D01*
X104594981Y-66896737D01*
X104568869Y-66870625D01*
X104535384Y-66809302D01*
X104532550Y-66782944D01*
X104532550Y-64638382D01*
X104552235Y-64571343D01*
X104568869Y-64550701D01*
X105262969Y-63856601D01*
X105324292Y-63823116D01*
X105393984Y-63828100D01*
X105449917Y-63869972D01*
X105474334Y-63935436D01*
X105474650Y-63944282D01*
X105474650Y-68714417D01*
X105454965Y-68781456D01*
X105438331Y-68802098D01*
X104100899Y-70139529D01*
X104100893Y-70139537D01*
X104002343Y-70287027D01*
X103934458Y-70450918D01*
X103934456Y-70450926D01*
X103904144Y-70603316D01*
X103904144Y-70603319D01*
X103899850Y-70624904D01*
X103899850Y-74688903D01*
X103899850Y-74866297D01*
X103899850Y-74866299D01*
X103899849Y-74866299D01*
X103934456Y-75040275D01*
X103934458Y-75040281D01*
X104002343Y-75204172D01*
X104100893Y-75351662D01*
X104100899Y-75351670D01*
X104480328Y-75731099D01*
X104480332Y-75731102D01*
X104627823Y-75829653D01*
X104627829Y-75829656D01*
X104627830Y-75829657D01*
X104791719Y-75897542D01*
X104791723Y-75897542D01*
X104791724Y-75897543D01*
X104965700Y-75932150D01*
X104965703Y-75932150D01*
X140906299Y-75932150D01*
X141023347Y-75908866D01*
X141080281Y-75897542D01*
X141244170Y-75829657D01*
X141244170Y-75829656D01*
X141244172Y-75829656D01*
X141317423Y-75780710D01*
X141391667Y-75731103D01*
X143244303Y-73878467D01*
X143297069Y-73799497D01*
X143342856Y-73730972D01*
X143342857Y-73730970D01*
X143410742Y-73567081D01*
X143445350Y-73393096D01*
X143445350Y-73215703D01*
X143445350Y-50711304D01*
X143439509Y-50681942D01*
X143438555Y-50677148D01*
X143410743Y-50537326D01*
X143410742Y-50537319D01*
X143342857Y-50373430D01*
X143342856Y-50373427D01*
X143244306Y-50225937D01*
X143244300Y-50225929D01*
X140070870Y-47052499D01*
X140070862Y-47052493D01*
X139923371Y-46953943D01*
X139923372Y-46953943D01*
X139759481Y-46886058D01*
X139759475Y-46886056D01*
X139585499Y-46851450D01*
X139585497Y-46851450D01*
X139585496Y-46851450D01*
X132550104Y-46851450D01*
X132550101Y-46851450D01*
X132376126Y-46886056D01*
X132376118Y-46886058D01*
X132212227Y-46953943D01*
X132064737Y-47052493D01*
X132064729Y-47052499D01*
X131939299Y-47177929D01*
X131939293Y-47177937D01*
X131840743Y-47325427D01*
X131772858Y-47489318D01*
X131772856Y-47489326D01*
X131738250Y-47663299D01*
X131738250Y-47840700D01*
X131771823Y-48009482D01*
X131765596Y-48079073D01*
X131722733Y-48134251D01*
X131656843Y-48157495D01*
X131588846Y-48141427D01*
X131562525Y-48121354D01*
X130341270Y-46900099D01*
X130341262Y-46900093D01*
X130193771Y-46801543D01*
X130193772Y-46801543D01*
X130029881Y-46733658D01*
X130029875Y-46733656D01*
X129855899Y-46699050D01*
X129855897Y-46699050D01*
X129855896Y-46699050D01*
X129527096Y-46699050D01*
X128897582Y-46699050D01*
X128830543Y-46679365D01*
X128809901Y-46662731D01*
X125886952Y-43739781D01*
X125853467Y-43678458D01*
X125858451Y-43608766D01*
X125900323Y-43552833D01*
X125965787Y-43528416D01*
X125974633Y-43528100D01*
X146441500Y-43528100D01*
X146508539Y-43547785D01*
X146554294Y-43600589D01*
X146565500Y-43652100D01*
X146565500Y-77861500D01*
X146545815Y-77928539D01*
X146493011Y-77974294D01*
X146441500Y-77985500D01*
X98363700Y-77985500D01*
X98296661Y-77965815D01*
X98250906Y-77913011D01*
X98239700Y-77861500D01*
X98239700Y-60470477D01*
X101641000Y-60470477D01*
X101641000Y-60493800D01*
X102366000Y-60493800D01*
X102866000Y-60493800D01*
X103522238Y-60493800D01*
X103589277Y-60513485D01*
X103609919Y-60530119D01*
X103634000Y-60554200D01*
X104347200Y-60554200D01*
X104347200Y-59854200D01*
X104347199Y-59854199D01*
X104298893Y-59854200D01*
X104298875Y-59854201D01*
X104199592Y-59864344D01*
X104038718Y-59917652D01*
X104038707Y-59917657D01*
X103894471Y-60006624D01*
X103894467Y-60006627D01*
X103774626Y-60126468D01*
X103730765Y-60197577D01*
X103678816Y-60244301D01*
X103609853Y-60255522D01*
X103545772Y-60227678D01*
X103519689Y-60197576D01*
X103438575Y-60066071D01*
X103438572Y-60066067D01*
X103318732Y-59946227D01*
X103318728Y-59946224D01*
X103174492Y-59857257D01*
X103174481Y-59857252D01*
X103013606Y-59803944D01*
X102914322Y-59793800D01*
X102866000Y-59793800D01*
X102866000Y-60493800D01*
X102366000Y-60493800D01*
X102366000Y-59793800D01*
X102365999Y-59793799D01*
X102317693Y-59793800D01*
X102317675Y-59793801D01*
X102218392Y-59803944D01*
X102057518Y-59857252D01*
X102057507Y-59857257D01*
X101913271Y-59946224D01*
X101913267Y-59946227D01*
X101793427Y-60066067D01*
X101793424Y-60066071D01*
X101704457Y-60210307D01*
X101704452Y-60210318D01*
X101651144Y-60371193D01*
X101641000Y-60470477D01*
X98239700Y-60470477D01*
X98239700Y-52213522D01*
X99202601Y-52213522D01*
X99212744Y-52312807D01*
X99266052Y-52473681D01*
X99266057Y-52473692D01*
X99355024Y-52617928D01*
X99355027Y-52617932D01*
X99474867Y-52737772D01*
X99474871Y-52737775D01*
X99619107Y-52826742D01*
X99619118Y-52826747D01*
X99779993Y-52880055D01*
X99879283Y-52890199D01*
X100427600Y-52890199D01*
X100475908Y-52890199D01*
X100475922Y-52890198D01*
X100575207Y-52880055D01*
X100736081Y-52826747D01*
X100736092Y-52826742D01*
X100880328Y-52737775D01*
X100880332Y-52737772D01*
X101000172Y-52617932D01*
X101000175Y-52617928D01*
X101089142Y-52473692D01*
X101089147Y-52473681D01*
X101142455Y-52312806D01*
X101152599Y-52213522D01*
X101152600Y-52213509D01*
X101152600Y-52190200D01*
X100427600Y-52190200D01*
X100427600Y-52890199D01*
X99879283Y-52890199D01*
X99927599Y-52890198D01*
X99927600Y-52890198D01*
X99927600Y-52190200D01*
X99202601Y-52190200D01*
X99202601Y-52213522D01*
X98239700Y-52213522D01*
X98239700Y-43652100D01*
X98259385Y-43585061D01*
X98312189Y-43539306D01*
X98363700Y-43528100D01*
X113344167Y-43528100D01*
X113411206Y-43547785D01*
G37*
%TD.AperFunction*%
%TA.AperFunction,Conductor*%
G36*
X132226057Y-58776835D02*
G01*
X132246699Y-58793469D01*
X133429131Y-59975901D01*
X133462616Y-60037224D01*
X133465450Y-60063582D01*
X133465450Y-63665303D01*
X133465450Y-63842697D01*
X133465450Y-63842699D01*
X133465449Y-63842699D01*
X133500056Y-64016675D01*
X133500058Y-64016681D01*
X133567943Y-64180572D01*
X133666493Y-64328062D01*
X133666499Y-64328070D01*
X134072897Y-64734467D01*
X134198333Y-64859903D01*
X134292919Y-64923103D01*
X134345830Y-64958457D01*
X134509719Y-65026342D01*
X134509723Y-65026342D01*
X134509724Y-65026343D01*
X134683700Y-65060950D01*
X134683703Y-65060950D01*
X134683704Y-65060950D01*
X135830650Y-65060950D01*
X135897689Y-65080635D01*
X135943444Y-65133439D01*
X135954650Y-65184950D01*
X135954650Y-67190144D01*
X135948356Y-67229148D01*
X135901851Y-67369490D01*
X135891700Y-67468847D01*
X135891700Y-68065537D01*
X135891701Y-68065555D01*
X135901850Y-68164907D01*
X135901851Y-68164910D01*
X135916506Y-68209134D01*
X135942673Y-68288103D01*
X135948356Y-68305251D01*
X135954650Y-68344255D01*
X135954650Y-68566136D01*
X135952269Y-68590318D01*
X135950310Y-68600170D01*
X135941650Y-68643704D01*
X135941650Y-68741735D01*
X135941650Y-68919129D01*
X135941650Y-68919131D01*
X135941649Y-68919131D01*
X135976256Y-69093107D01*
X135976258Y-69093113D01*
X136044143Y-69257004D01*
X136142693Y-69404494D01*
X136142699Y-69404502D01*
X137960106Y-71221908D01*
X137993591Y-71283231D01*
X137995715Y-71322838D01*
X137993900Y-71339720D01*
X137993900Y-73135470D01*
X137993901Y-73135476D01*
X138000308Y-73195083D01*
X138050602Y-73329928D01*
X138050606Y-73329935D01*
X138136852Y-73445144D01*
X138136855Y-73445147D01*
X138252064Y-73531393D01*
X138252071Y-73531397D01*
X138386917Y-73581691D01*
X138386916Y-73581691D01*
X138391586Y-73582193D01*
X138446527Y-73588100D01*
X140242272Y-73588099D01*
X140301883Y-73581691D01*
X140436731Y-73531396D01*
X140551946Y-73445146D01*
X140638196Y-73329931D01*
X140688491Y-73195083D01*
X140694900Y-73135473D01*
X140694899Y-71339728D01*
X140689438Y-71288923D01*
X140688491Y-71280116D01*
X140638197Y-71145271D01*
X140638193Y-71145264D01*
X140551947Y-71030055D01*
X140551944Y-71030052D01*
X140436735Y-70943806D01*
X140436728Y-70943802D01*
X140325617Y-70902361D01*
X140269683Y-70860490D01*
X140245266Y-70795026D01*
X140244950Y-70786179D01*
X140244950Y-70782382D01*
X140264635Y-70715343D01*
X140281269Y-70694701D01*
X141432569Y-69543401D01*
X141493892Y-69509916D01*
X141563584Y-69514900D01*
X141619517Y-69556772D01*
X141643934Y-69622236D01*
X141644250Y-69631082D01*
X141644250Y-72880018D01*
X141624565Y-72947057D01*
X141607931Y-72967699D01*
X140480899Y-74094731D01*
X140419576Y-74128216D01*
X140393218Y-74131050D01*
X127172539Y-74131050D01*
X127105500Y-74111365D01*
X127059745Y-74058561D01*
X127049801Y-73989403D01*
X127052009Y-73979465D01*
X127051954Y-73979455D01*
X127087750Y-73799499D01*
X127087750Y-73610489D01*
X127107435Y-73543450D01*
X127160239Y-73497695D01*
X127229397Y-73487751D01*
X127286061Y-73511223D01*
X127380864Y-73582193D01*
X127380871Y-73582197D01*
X127515717Y-73632491D01*
X127515716Y-73632491D01*
X127522644Y-73633235D01*
X127575327Y-73638900D01*
X129371072Y-73638899D01*
X129430683Y-73632491D01*
X129565531Y-73582196D01*
X129680746Y-73495946D01*
X129766996Y-73380731D01*
X129817291Y-73245883D01*
X129823700Y-73186273D01*
X129823699Y-71390528D01*
X129817291Y-71330917D01*
X129801640Y-71288955D01*
X129766997Y-71196071D01*
X129766993Y-71196064D01*
X129680747Y-71080855D01*
X129680744Y-71080852D01*
X129565535Y-70994606D01*
X129565528Y-70994602D01*
X129454417Y-70953161D01*
X129398483Y-70911290D01*
X129374066Y-70845826D01*
X129373750Y-70836979D01*
X129373750Y-69410782D01*
X129393435Y-69343743D01*
X129410069Y-69323101D01*
X130444300Y-68288870D01*
X130444303Y-68288867D01*
X130497579Y-68209134D01*
X130545948Y-68136745D01*
X130599560Y-68091939D01*
X130668885Y-68083232D01*
X130731912Y-68113386D01*
X130768632Y-68172829D01*
X130773050Y-68205635D01*
X130773050Y-68288103D01*
X130773050Y-68465497D01*
X130773050Y-68465499D01*
X130773049Y-68465499D01*
X130807656Y-68639475D01*
X130807658Y-68639481D01*
X130875543Y-68803372D01*
X130974093Y-68950862D01*
X130974099Y-68950870D01*
X131143131Y-69119901D01*
X131176616Y-69181224D01*
X131179450Y-69207582D01*
X131179450Y-70786178D01*
X131159765Y-70853217D01*
X131106961Y-70898972D01*
X131098784Y-70902360D01*
X130987669Y-70943803D01*
X130987664Y-70943806D01*
X130872455Y-71030052D01*
X130872452Y-71030055D01*
X130786206Y-71145264D01*
X130786202Y-71145271D01*
X130735908Y-71280117D01*
X130730447Y-71330916D01*
X130729501Y-71339723D01*
X130729500Y-71339735D01*
X130729500Y-73135470D01*
X130729501Y-73135476D01*
X130735908Y-73195083D01*
X130786202Y-73329928D01*
X130786206Y-73329935D01*
X130872452Y-73445144D01*
X130872455Y-73445147D01*
X130987664Y-73531393D01*
X130987671Y-73531397D01*
X131122517Y-73581691D01*
X131122516Y-73581691D01*
X131127186Y-73582193D01*
X131182127Y-73588100D01*
X132977872Y-73588099D01*
X133037483Y-73581691D01*
X133172331Y-73531396D01*
X133287546Y-73445146D01*
X133373796Y-73329931D01*
X133424091Y-73195083D01*
X133430500Y-73135473D01*
X133430499Y-71339728D01*
X133425041Y-71288955D01*
X134387600Y-71288955D01*
X134387600Y-71936800D01*
X135304588Y-71936800D01*
X135271675Y-71993807D01*
X135237600Y-72120974D01*
X135237600Y-72252626D01*
X135271675Y-72379793D01*
X135304588Y-72436800D01*
X134387600Y-72436800D01*
X134387600Y-73084644D01*
X134394001Y-73144172D01*
X134394003Y-73144179D01*
X134444245Y-73278886D01*
X134444249Y-73278893D01*
X134530409Y-73393987D01*
X134530412Y-73393990D01*
X134645506Y-73480150D01*
X134645513Y-73480154D01*
X134780220Y-73530396D01*
X134780227Y-73530398D01*
X134839755Y-73536799D01*
X134839772Y-73536800D01*
X135487600Y-73536800D01*
X135487600Y-72619812D01*
X135544607Y-72652725D01*
X135671774Y-72686800D01*
X135803426Y-72686800D01*
X135930593Y-72652725D01*
X135987600Y-72619812D01*
X135987600Y-73536800D01*
X136635428Y-73536800D01*
X136635444Y-73536799D01*
X136694972Y-73530398D01*
X136694979Y-73530396D01*
X136829686Y-73480154D01*
X136829693Y-73480150D01*
X136944787Y-73393990D01*
X136944790Y-73393987D01*
X137030950Y-73278893D01*
X137030954Y-73278886D01*
X137081196Y-73144179D01*
X137081198Y-73144172D01*
X137087599Y-73084644D01*
X137087600Y-73084627D01*
X137087600Y-72436800D01*
X136170612Y-72436800D01*
X136203525Y-72379793D01*
X136237600Y-72252626D01*
X136237600Y-72120974D01*
X136203525Y-71993807D01*
X136170612Y-71936800D01*
X137087600Y-71936800D01*
X137087600Y-71288972D01*
X137087599Y-71288955D01*
X137081198Y-71229427D01*
X137081196Y-71229420D01*
X137030954Y-71094713D01*
X137030950Y-71094706D01*
X136944790Y-70979612D01*
X136944787Y-70979609D01*
X136829693Y-70893449D01*
X136829686Y-70893445D01*
X136694979Y-70843203D01*
X136694972Y-70843201D01*
X136635444Y-70836800D01*
X135987600Y-70836800D01*
X135987600Y-71753788D01*
X135930593Y-71720875D01*
X135803426Y-71686800D01*
X135671774Y-71686800D01*
X135544607Y-71720875D01*
X135487600Y-71753788D01*
X135487600Y-70836800D01*
X134839755Y-70836800D01*
X134780227Y-70843201D01*
X134780220Y-70843203D01*
X134645513Y-70893445D01*
X134645506Y-70893449D01*
X134530412Y-70979609D01*
X134530409Y-70979612D01*
X134444249Y-71094706D01*
X134444245Y-71094713D01*
X134394003Y-71229420D01*
X134394001Y-71229427D01*
X134387600Y-71288955D01*
X133425041Y-71288955D01*
X133425038Y-71288923D01*
X133424091Y-71280116D01*
X133373797Y-71145271D01*
X133373793Y-71145264D01*
X133287547Y-71030055D01*
X133287544Y-71030052D01*
X133172335Y-70943806D01*
X133172328Y-70943802D01*
X133061217Y-70902361D01*
X133005283Y-70860490D01*
X132980866Y-70795026D01*
X132980550Y-70786179D01*
X132980550Y-68694507D01*
X132980550Y-68694504D01*
X132977506Y-68679203D01*
X132945942Y-68520519D01*
X132900005Y-68409618D01*
X132878058Y-68356632D01*
X132878053Y-68356624D01*
X132831463Y-68286897D01*
X132831463Y-68286896D01*
X132831461Y-68286895D01*
X132779503Y-68209133D01*
X132654067Y-68083697D01*
X132610469Y-68040099D01*
X132576984Y-67978776D01*
X132574150Y-67952418D01*
X132574150Y-61938101D01*
X132574149Y-61938099D01*
X132556635Y-61850050D01*
X132539542Y-61764119D01*
X132474100Y-61606127D01*
X132471656Y-61600227D01*
X132373106Y-61452737D01*
X132373104Y-61452734D01*
X132311333Y-61390963D01*
X132247667Y-61327297D01*
X131948590Y-61028220D01*
X131637470Y-60717099D01*
X131637462Y-60717093D01*
X131489971Y-60618543D01*
X131489972Y-60618543D01*
X131326081Y-60550658D01*
X131326075Y-60550656D01*
X131152099Y-60516050D01*
X131152097Y-60516050D01*
X131152096Y-60516050D01*
X130907822Y-60516050D01*
X130840783Y-60496365D01*
X130795028Y-60443561D01*
X130785084Y-60374403D01*
X130806248Y-60320926D01*
X130841894Y-60270017D01*
X130841900Y-60270007D01*
X130935219Y-60069884D01*
X130935224Y-60069870D01*
X130992373Y-59856586D01*
X130992375Y-59856576D01*
X131011621Y-59636600D01*
X131011621Y-59636599D01*
X130992375Y-59416623D01*
X130992373Y-59416613D01*
X130935224Y-59203329D01*
X130935220Y-59203320D01*
X130841900Y-59003193D01*
X130806246Y-58952274D01*
X130783919Y-58886068D01*
X130800929Y-58818300D01*
X130851877Y-58770487D01*
X130907821Y-58757150D01*
X132159018Y-58757150D01*
X132226057Y-58776835D01*
G37*
%TD.AperFunction*%
%TA.AperFunction,Conductor*%
G36*
X138834657Y-51720235D02*
G01*
X138855299Y-51736869D01*
X139931531Y-52813101D01*
X139965016Y-52874424D01*
X139967850Y-52900782D01*
X139967850Y-54949033D01*
X139948165Y-55016072D01*
X139895361Y-55061827D01*
X139826203Y-55071771D01*
X139762647Y-55042746D01*
X139726144Y-54988037D01*
X139685147Y-54864318D01*
X139685142Y-54864307D01*
X139596175Y-54720071D01*
X139596172Y-54720067D01*
X139476332Y-54600227D01*
X139476328Y-54600224D01*
X139332092Y-54511257D01*
X139332081Y-54511252D01*
X139171206Y-54457944D01*
X139071922Y-54447800D01*
X139048600Y-54447800D01*
X139048600Y-56397799D01*
X139071908Y-56397799D01*
X139071922Y-56397798D01*
X139171207Y-56387655D01*
X139332081Y-56334347D01*
X139332092Y-56334342D01*
X139476328Y-56245375D01*
X139476332Y-56245372D01*
X139596172Y-56125532D01*
X139596175Y-56125528D01*
X139685142Y-55981292D01*
X139685147Y-55981281D01*
X139726144Y-55857562D01*
X139765917Y-55800117D01*
X139830432Y-55773294D01*
X139899208Y-55785609D01*
X139950408Y-55833152D01*
X139967850Y-55896566D01*
X139967850Y-58606633D01*
X139948165Y-58673672D01*
X139895361Y-58719427D01*
X139826203Y-58729371D01*
X139762647Y-58700346D01*
X139726144Y-58645637D01*
X139685147Y-58521918D01*
X139685142Y-58521907D01*
X139596175Y-58377671D01*
X139596172Y-58377667D01*
X139476332Y-58257827D01*
X139476328Y-58257824D01*
X139332092Y-58168857D01*
X139332081Y-58168852D01*
X139171206Y-58115544D01*
X139071922Y-58105400D01*
X139048600Y-58105400D01*
X139048600Y-60055399D01*
X139071908Y-60055399D01*
X139071922Y-60055398D01*
X139171207Y-60045255D01*
X139332081Y-59991947D01*
X139332092Y-59991942D01*
X139476328Y-59902975D01*
X139476332Y-59902972D01*
X139596172Y-59783132D01*
X139596175Y-59783128D01*
X139685142Y-59638892D01*
X139685147Y-59638881D01*
X139726144Y-59515162D01*
X139765917Y-59457717D01*
X139830432Y-59430894D01*
X139899208Y-59443209D01*
X139950408Y-59490752D01*
X139967850Y-59554166D01*
X139967850Y-68409618D01*
X139948165Y-68476657D01*
X139931531Y-68497299D01*
X138944765Y-69484065D01*
X138883442Y-69517550D01*
X138813750Y-69512566D01*
X138769403Y-69484065D01*
X138172549Y-68887211D01*
X138139064Y-68825888D01*
X138142200Y-68782036D01*
X138142200Y-68742199D01*
X138642200Y-68742199D01*
X138665508Y-68742199D01*
X138665522Y-68742198D01*
X138764807Y-68732055D01*
X138925681Y-68678747D01*
X138925692Y-68678742D01*
X139069928Y-68589775D01*
X139069932Y-68589772D01*
X139189772Y-68469932D01*
X139189775Y-68469928D01*
X139278742Y-68325692D01*
X139278747Y-68325681D01*
X139332055Y-68164806D01*
X139342199Y-68065522D01*
X139342200Y-68065509D01*
X139342200Y-68017200D01*
X138642200Y-68017200D01*
X138642200Y-68742199D01*
X138142200Y-68742199D01*
X138142200Y-67517200D01*
X138642200Y-67517200D01*
X139342199Y-67517200D01*
X139342199Y-67468892D01*
X139342198Y-67468877D01*
X139332055Y-67369592D01*
X139278747Y-67208718D01*
X139278742Y-67208707D01*
X139189775Y-67064471D01*
X139189772Y-67064467D01*
X139069932Y-66944627D01*
X139069928Y-66944624D01*
X138925692Y-66855657D01*
X138925681Y-66855652D01*
X138764806Y-66802344D01*
X138665522Y-66792200D01*
X138642200Y-66792200D01*
X138642200Y-67517200D01*
X138142200Y-67517200D01*
X138142200Y-66792199D01*
X138118893Y-66792200D01*
X138118874Y-66792201D01*
X138019591Y-66802344D01*
X137918753Y-66835758D01*
X137848925Y-66838159D01*
X137788883Y-66802427D01*
X137757691Y-66739907D01*
X137755750Y-66718052D01*
X137755750Y-65251184D01*
X137775435Y-65184145D01*
X137828239Y-65138390D01*
X137892353Y-65127826D01*
X137966483Y-65135399D01*
X138489800Y-65135399D01*
X138513108Y-65135399D01*
X138513122Y-65135398D01*
X138612407Y-65125255D01*
X138773281Y-65071947D01*
X138773292Y-65071942D01*
X138917528Y-64982975D01*
X138917532Y-64982972D01*
X139037372Y-64863132D01*
X139037375Y-64863128D01*
X139126342Y-64718892D01*
X139126347Y-64718881D01*
X139179655Y-64558006D01*
X139189799Y-64458722D01*
X139189800Y-64458709D01*
X139189800Y-64410400D01*
X138489800Y-64410400D01*
X138489800Y-65135399D01*
X137966483Y-65135399D01*
X137989800Y-65135398D01*
X137989800Y-63910400D01*
X138489800Y-63910400D01*
X139189799Y-63910400D01*
X139189799Y-63862092D01*
X139189798Y-63862077D01*
X139179655Y-63762792D01*
X139126347Y-63601918D01*
X139126342Y-63601907D01*
X139037375Y-63457671D01*
X139037372Y-63457667D01*
X138917532Y-63337827D01*
X138917528Y-63337824D01*
X138773292Y-63248857D01*
X138773281Y-63248852D01*
X138612406Y-63195544D01*
X138513122Y-63185400D01*
X138489800Y-63185400D01*
X138489800Y-63910400D01*
X137989800Y-63910400D01*
X137989800Y-63185399D01*
X137966493Y-63185400D01*
X137966474Y-63185401D01*
X137867192Y-63195544D01*
X137706318Y-63248852D01*
X137706307Y-63248857D01*
X137562071Y-63337824D01*
X137562065Y-63337828D01*
X137552831Y-63347063D01*
X137491507Y-63380546D01*
X137421815Y-63375559D01*
X137377472Y-63347060D01*
X137367844Y-63337432D01*
X137367840Y-63337429D01*
X137223505Y-63248401D01*
X137223499Y-63248398D01*
X137223497Y-63248397D01*
X137198654Y-63240165D01*
X137062509Y-63195051D01*
X136963146Y-63184900D01*
X136416462Y-63184900D01*
X136416444Y-63184901D01*
X136317092Y-63195050D01*
X136317089Y-63195051D01*
X136205269Y-63232105D01*
X136156103Y-63248397D01*
X136156101Y-63248397D01*
X136149248Y-63250669D01*
X136148989Y-63249888D01*
X136104052Y-63259850D01*
X135390550Y-63259850D01*
X135323511Y-63240165D01*
X135277756Y-63187361D01*
X135266550Y-63135850D01*
X135266550Y-59978893D01*
X135286235Y-59911854D01*
X135339039Y-59866099D01*
X135408197Y-59856155D01*
X135459442Y-59875792D01*
X135463430Y-59878457D01*
X135627319Y-59946342D01*
X135627323Y-59946342D01*
X135627324Y-59946343D01*
X135801300Y-59980950D01*
X135801303Y-59980950D01*
X135801304Y-59980950D01*
X136092250Y-59980950D01*
X136159289Y-60000635D01*
X136205044Y-60053439D01*
X136214988Y-60122597D01*
X136195352Y-60173841D01*
X136158742Y-60228630D01*
X136090858Y-60392518D01*
X136090856Y-60392526D01*
X136062089Y-60537150D01*
X136061602Y-60539600D01*
X136056250Y-60566504D01*
X136056250Y-61115771D01*
X136049956Y-61154775D01*
X136027451Y-61222690D01*
X136017300Y-61322047D01*
X136017300Y-61918737D01*
X136017301Y-61918755D01*
X136027450Y-62018107D01*
X136027451Y-62018110D01*
X136080796Y-62179094D01*
X136080801Y-62179105D01*
X136169829Y-62323440D01*
X136169832Y-62323444D01*
X136289755Y-62443367D01*
X136289759Y-62443370D01*
X136434094Y-62532398D01*
X136434097Y-62532399D01*
X136434103Y-62532403D01*
X136595092Y-62585749D01*
X136694455Y-62595900D01*
X137241144Y-62595899D01*
X137241152Y-62595898D01*
X137241155Y-62595898D01*
X137295560Y-62590340D01*
X137340508Y-62585749D01*
X137501497Y-62532403D01*
X137645844Y-62443368D01*
X137655468Y-62433743D01*
X137716787Y-62400256D01*
X137786479Y-62405235D01*
X137830834Y-62433739D01*
X137840067Y-62442972D01*
X137840071Y-62442975D01*
X137984307Y-62531942D01*
X137984318Y-62531947D01*
X138145193Y-62585255D01*
X138244483Y-62595399D01*
X138767800Y-62595399D01*
X138791108Y-62595399D01*
X138791122Y-62595398D01*
X138890407Y-62585255D01*
X139051281Y-62531947D01*
X139051292Y-62531942D01*
X139195528Y-62442975D01*
X139195532Y-62442972D01*
X139315372Y-62323132D01*
X139315375Y-62323128D01*
X139404342Y-62178892D01*
X139404347Y-62178881D01*
X139457655Y-62018006D01*
X139467799Y-61918722D01*
X139467800Y-61918709D01*
X139467800Y-61870400D01*
X138767800Y-61870400D01*
X138767800Y-62595399D01*
X138244483Y-62595399D01*
X138267800Y-62595398D01*
X138267800Y-61370400D01*
X138767800Y-61370400D01*
X139467799Y-61370400D01*
X139467799Y-61322092D01*
X139467798Y-61322077D01*
X139457655Y-61222792D01*
X139404347Y-61061918D01*
X139404342Y-61061907D01*
X139315375Y-60917671D01*
X139315372Y-60917667D01*
X139195532Y-60797827D01*
X139195528Y-60797824D01*
X139051292Y-60708857D01*
X139051281Y-60708852D01*
X138890406Y-60655544D01*
X138791122Y-60645400D01*
X138767800Y-60645400D01*
X138767800Y-61370400D01*
X138267800Y-61370400D01*
X138267800Y-60645399D01*
X138261798Y-60645400D01*
X138194758Y-60625718D01*
X138149001Y-60572915D01*
X138139056Y-60503757D01*
X138140177Y-60497208D01*
X138149150Y-60452098D01*
X138149150Y-60125239D01*
X138168835Y-60058200D01*
X138221639Y-60012445D01*
X138290797Y-60002501D01*
X138312154Y-60007533D01*
X138425993Y-60045255D01*
X138525283Y-60055399D01*
X138548600Y-60055398D01*
X138548600Y-58105399D01*
X138525293Y-58105400D01*
X138525274Y-58105401D01*
X138425992Y-58115544D01*
X138265118Y-58168852D01*
X138265107Y-58168857D01*
X138120871Y-58257824D01*
X138120865Y-58257828D01*
X138111631Y-58267063D01*
X138050307Y-58300546D01*
X137980615Y-58295559D01*
X137936272Y-58267060D01*
X137926644Y-58257432D01*
X137926640Y-58257429D01*
X137782305Y-58168401D01*
X137782299Y-58168398D01*
X137782297Y-58168397D01*
X137757454Y-58160165D01*
X137621309Y-58115051D01*
X137521946Y-58104900D01*
X136975262Y-58104900D01*
X136975244Y-58104901D01*
X136875892Y-58115050D01*
X136875889Y-58115051D01*
X136789944Y-58143531D01*
X136714903Y-58168397D01*
X136714901Y-58168397D01*
X136708048Y-58170669D01*
X136707789Y-58169888D01*
X136662852Y-58179850D01*
X136314382Y-58179850D01*
X136247343Y-58160165D01*
X136226701Y-58143531D01*
X133466870Y-55383699D01*
X133466862Y-55383693D01*
X133319371Y-55285143D01*
X133319372Y-55285143D01*
X133155481Y-55217258D01*
X133155475Y-55217256D01*
X132981499Y-55182650D01*
X132981497Y-55182650D01*
X132981496Y-55182650D01*
X130903201Y-55182650D01*
X130836162Y-55162965D01*
X130790407Y-55110161D01*
X130780463Y-55041003D01*
X130801626Y-54987526D01*
X130841899Y-54930009D01*
X130841900Y-54930007D01*
X130935219Y-54729884D01*
X130935224Y-54729870D01*
X130992373Y-54516586D01*
X130992375Y-54516576D01*
X131011621Y-54296600D01*
X131011621Y-54296599D01*
X130992375Y-54076623D01*
X130992373Y-54076613D01*
X130935224Y-53863329D01*
X130935220Y-53863320D01*
X130841899Y-53663191D01*
X130841898Y-53663189D01*
X130806947Y-53613273D01*
X130784619Y-53547066D01*
X130801631Y-53479299D01*
X130852579Y-53431487D01*
X130908522Y-53418150D01*
X134395250Y-53418150D01*
X134462289Y-53437835D01*
X134508044Y-53490639D01*
X134519250Y-53542150D01*
X134519250Y-53730303D01*
X134519250Y-53907697D01*
X134519250Y-53907699D01*
X134519249Y-53907699D01*
X134553856Y-54081675D01*
X134553858Y-54081681D01*
X134621743Y-54245572D01*
X134720293Y-54393062D01*
X134720299Y-54393070D01*
X136436450Y-56109220D01*
X136445514Y-56120681D01*
X136446151Y-56120178D01*
X136450628Y-56125840D01*
X136450631Y-56125843D01*
X136450632Y-56125844D01*
X136570556Y-56245768D01*
X136570558Y-56245769D01*
X136570559Y-56245770D01*
X136714894Y-56334798D01*
X136714897Y-56334799D01*
X136714903Y-56334803D01*
X136875892Y-56388149D01*
X136975255Y-56398300D01*
X137521944Y-56398299D01*
X137521952Y-56398298D01*
X137521955Y-56398298D01*
X137576360Y-56392740D01*
X137621308Y-56388149D01*
X137782297Y-56334803D01*
X137926644Y-56245768D01*
X137936268Y-56236143D01*
X137997587Y-56202656D01*
X138067279Y-56207635D01*
X138111634Y-56236139D01*
X138120867Y-56245372D01*
X138120871Y-56245375D01*
X138265107Y-56334342D01*
X138265118Y-56334347D01*
X138425993Y-56387655D01*
X138525283Y-56397799D01*
X138548600Y-56397798D01*
X138548600Y-54447799D01*
X138525293Y-54447800D01*
X138525274Y-54447801D01*
X138425992Y-54457944D01*
X138265118Y-54511252D01*
X138265107Y-54511257D01*
X138120871Y-54600224D01*
X138120865Y-54600228D01*
X138111631Y-54609463D01*
X138050307Y-54642946D01*
X137980615Y-54637959D01*
X137936272Y-54609460D01*
X137926644Y-54599832D01*
X137926640Y-54599829D01*
X137782305Y-54510801D01*
X137782299Y-54510798D01*
X137782297Y-54510797D01*
X137782294Y-54510796D01*
X137621309Y-54457451D01*
X137521952Y-54447300D01*
X137521945Y-54447300D01*
X137373032Y-54447300D01*
X137305993Y-54427615D01*
X137285351Y-54410981D01*
X136586631Y-53712261D01*
X136553146Y-53650938D01*
X136558130Y-53581246D01*
X136600002Y-53525313D01*
X136665466Y-53500896D01*
X136686918Y-53501222D01*
X136696487Y-53502199D01*
X137219800Y-53502199D01*
X137243108Y-53502199D01*
X137243122Y-53502198D01*
X137342407Y-53492055D01*
X137503281Y-53438747D01*
X137503292Y-53438742D01*
X137647528Y-53349775D01*
X137647532Y-53349772D01*
X137767372Y-53229932D01*
X137767375Y-53229928D01*
X137856342Y-53085692D01*
X137856347Y-53085681D01*
X137909655Y-52924806D01*
X137919799Y-52825522D01*
X137919800Y-52825509D01*
X137919800Y-52777200D01*
X137219800Y-52777200D01*
X137219800Y-53502199D01*
X136696487Y-53502199D01*
X136719800Y-53502198D01*
X136719800Y-52401200D01*
X136739485Y-52334161D01*
X136792289Y-52288406D01*
X136843800Y-52277200D01*
X137919799Y-52277200D01*
X137919799Y-52228892D01*
X137919798Y-52228877D01*
X137909655Y-52129592D01*
X137856347Y-51968718D01*
X137856342Y-51968707D01*
X137807577Y-51889647D01*
X137789136Y-51822255D01*
X137810058Y-51755591D01*
X137863700Y-51710821D01*
X137913115Y-51700550D01*
X138767618Y-51700550D01*
X138834657Y-51720235D01*
G37*
%TD.AperFunction*%
%TD*%
M02*
