M48
INCH,LZ
;FILE_FORMAT=2:4
;TYPE=PLATED
;Layer: Drill PTH
;EasyEDA v6.4.20.6, 2021-07-31T12:59:30+08:00
;153d8ea1f4684e84bb4c1cd47195d1c2,dc0dc03e7b3a4ea6afb4baf6e71cf47e,10
;Gerber Generator version 0.2
;Holesize 1 = 0.0120 inch
T01C0.0120
;Holesize 2 = 0.0320 inch
T02C0.0320
;Holesize 3 = 0.0350 inch
T03C0.0350
;Holesize 4 = 0.0430 inch
T04C0.0430
;Holesize 5 = 0.0890 inch
T05C0.0890
%
G05
G90
T01
X004100Y008150
X004100Y009550
X005200Y010500
X006050Y010300
X003250Y004250
X003250Y002950
X006050Y011000
X010350Y011300
X009650Y004200
X010550Y003350
X005050Y003350
X004350Y003850
T02
X004969Y009537G85X004971Y009537
X004969Y008836G85X004971Y008836
X004969Y008135G85X004971Y008135
X004969Y007435G85X004971Y007435
X004969Y006734G85X004971Y006734
X004969Y006033G85X004971Y006033
X004969Y005332G85X004971Y005332
X004969Y004631G85X004971Y004631
X009929Y004631G85X009931Y004631
X009929Y005332G85X009931Y005332
X009929Y006033G85X009931Y006033
X009929Y006734G85X009931Y006734
X009929Y007435G85X009931Y007435
X009929Y008135G85X009931Y008135
X009929Y008836G85X009931Y008836
X009929Y009537G85X009931Y009537
T03
X008313Y003400
X009100Y003400
X009887Y003400
X009106Y010750
X009894Y010750
T04
X002700Y008650
X003700Y008650
X002700Y007650
X003700Y007650
X002700Y006650
X003700Y006650
X002700Y005650
X003700Y005650
T05
X007450Y001770
X007450Y012400
M30
