G04 Layer: TopPasteMaskLayer*
G04 EasyEDA v6.4.20.6, 2021-07-31T12:59:30+08:00*
G04 153d8ea1f4684e84bb4c1cd47195d1c2,dc0dc03e7b3a4ea6afb4baf6e71cf47e,10*
G04 Gerber Generator version 0.2*
G04 Scale: 100 percent, Rotated: No, Reflected: No *
G04 Dimensions in inches *
G04 leading zeros omitted , absolute positions ,3 integer and 6 decimal *
%FSLAX36Y36*%
%MOIN*%

%ADD12R,0.0394X0.0394*%
%ADD13R,0.0610X0.0394*%
%ADD14R,0.0394X0.0610*%
%ADD15R,0.0551X0.0551*%
%ADD16R,0.0276X0.0157*%

%LPD*%
D12*
G01*
X1182240Y1090000D03*
G01*
X1087759Y1090000D03*
G01*
X1182240Y335000D03*
G01*
X1087759Y335000D03*
G01*
X637240Y350000D03*
G01*
X542759Y350000D03*
D13*
G01*
X375000Y390630D03*
G01*
X375000Y469369D03*
G01*
X280000Y390630D03*
G01*
X280000Y469369D03*
D14*
G01*
X565630Y1075000D03*
G01*
X644369Y1075000D03*
D13*
G01*
X540000Y1234369D03*
G01*
X540000Y1155630D03*
D15*
G01*
X1209059Y620000D03*
G01*
X1090950Y620000D03*
G01*
X1209059Y715000D03*
G01*
X1090950Y715000D03*
G36*
X265945Y1015511D02*
G01*
X305315Y1015511D01*
X305315Y954488D01*
X265945Y954488D01*
G37*
G36*
X344684Y1015511D02*
G01*
X384054Y1015511D01*
X384054Y954488D01*
X344684Y954488D01*
G37*
D16*
G01*
X368620Y1070000D03*
G01*
X368620Y1110000D03*
G01*
X321379Y1090000D03*
D15*
G01*
X445000Y1194059D03*
G01*
X445000Y1075949D03*
G36*
X1090945Y545511D02*
G01*
X1130315Y545511D01*
X1130315Y484488D01*
X1090945Y484488D01*
G37*
G36*
X1169684Y545511D02*
G01*
X1209054Y545511D01*
X1209054Y484488D01*
X1169684Y484488D01*
G37*
G36*
X1090945Y840511D02*
G01*
X1130315Y840511D01*
X1130315Y779488D01*
X1090945Y779488D01*
G37*
G36*
X1169684Y840511D02*
G01*
X1209054Y840511D01*
X1209054Y779488D01*
X1169684Y779488D01*
G37*
G36*
X355945Y320511D02*
G01*
X395315Y320511D01*
X395315Y259488D01*
X355945Y259488D01*
G37*
G36*
X434684Y320511D02*
G01*
X474054Y320511D01*
X474054Y259488D01*
X434684Y259488D01*
G37*
G36*
X1090945Y940511D02*
G01*
X1130315Y940511D01*
X1130315Y879488D01*
X1090945Y879488D01*
G37*
G36*
X1169684Y940511D02*
G01*
X1209054Y940511D01*
X1209054Y879488D01*
X1169684Y879488D01*
G37*
G01*
X1209059Y420000D03*
G01*
X1090950Y420000D03*
G01*
X1209059Y1005000D03*
G01*
X1090950Y1005000D03*
M02*
