G04 Layer: BottomSolderMaskLayer*
G04 EasyEDA v6.4.20.6, 2021-07-31T12:59:30+08:00*
G04 153d8ea1f4684e84bb4c1cd47195d1c2,dc0dc03e7b3a4ea6afb4baf6e71cf47e,10*
G04 Gerber Generator version 0.2*
G04 Scale: 100 percent, Rotated: No, Reflected: No *
G04 Dimensions in inches *
G04 leading zeros omitted , absolute positions ,3 integer and 6 decimal *
%FSLAX36Y36*%
%MOIN*%

%ADD29C,0.0671*%
%ADD31C,0.0631*%
%ADD36C,0.0710*%
%ADD39C,0.0631*%
%ADD40C,0.1450*%

%LPD*%
G36*
X797700Y306500D02*
G01*
X797700Y373499D01*
X864799Y373499D01*
X864799Y306500D01*
G37*
D29*
G01*
X910000Y340000D03*
G01*
X988739Y340000D03*
G36*
X879099Y1043400D02*
G01*
X879099Y1106599D01*
X942200Y1106599D01*
X942200Y1043400D01*
G37*
D31*
G01*
X989369Y1075000D03*
G36*
X234499Y829499D02*
G01*
X234499Y900500D01*
X305500Y900500D01*
X305500Y829499D01*
G37*
D36*
G01*
X370000Y865000D03*
G01*
X270000Y765000D03*
G01*
X370000Y765000D03*
G01*
X270000Y665000D03*
G01*
X370000Y665000D03*
G01*
X270000Y565000D03*
G01*
X370000Y565000D03*
G36*
X465399Y922100D02*
G01*
X465399Y985300D01*
X528499Y985300D01*
X528499Y922100D01*
G37*
D39*
G01*
X496970Y883620D03*
G01*
X496970Y813539D03*
G01*
X496970Y743460D03*
G01*
X496970Y673389D03*
G01*
X496970Y603310D03*
G01*
X496970Y533229D03*
G01*
X496970Y463150D03*
G01*
X993029Y463150D03*
G01*
X993029Y533229D03*
G01*
X993029Y603310D03*
G01*
X993029Y673389D03*
G01*
X993029Y743460D03*
G01*
X993029Y813539D03*
G01*
X993029Y883620D03*
G01*
X993029Y953699D03*
D40*
G01*
X745000Y177010D03*
G01*
X745000Y1240000D03*
M02*
