G04 Layer: TopSilkLayer*
G04 EasyEDA v6.4.20.6, 2021-07-31T12:59:30+08:00*
G04 153d8ea1f4684e84bb4c1cd47195d1c2,dc0dc03e7b3a4ea6afb4baf6e71cf47e,10*
G04 Gerber Generator version 0.2*
G04 Scale: 100 percent, Rotated: No, Reflected: No *
G04 Dimensions in inches *
G04 leading zeros omitted , absolute positions ,3 integer and 6 decimal *
%FSLAX36Y36*%
%MOIN*%

%ADD10C,0.0100*%
%ADD25C,0.0080*%
%ADD26C,0.0047*%

%LPD*%
G36*
X420000Y810900D02*
G01*
X420000Y807900D01*
X438920Y807940D01*
X445400Y808300D01*
X445400Y808199D01*
X423000Y800100D01*
X423000Y797800D01*
X438800Y792099D01*
X445400Y789800D01*
X445400Y789599D01*
X441120Y789880D01*
X436900Y790000D01*
X420000Y790000D01*
X420000Y786900D01*
X449300Y786900D01*
X449300Y791000D01*
X431719Y797220D01*
X427000Y798800D01*
X427000Y799000D01*
X433300Y801100D01*
X449300Y806800D01*
X449300Y810900D01*
G37*
G36*
X420000Y778800D02*
G01*
X420000Y775400D01*
X449300Y775400D01*
X449300Y778800D01*
G37*
G36*
X423800Y769400D02*
G01*
X422040Y767340D01*
X420680Y764940D01*
X419799Y762260D01*
X419500Y759300D01*
X419660Y757120D01*
X420140Y755180D01*
X420880Y753480D01*
X421880Y752060D01*
X423080Y750920D01*
X424480Y750080D01*
X426019Y749580D01*
X427700Y749400D01*
X430520Y749880D01*
X432640Y751220D01*
X434260Y753160D01*
X435500Y755500D01*
X437299Y759800D01*
X438100Y761480D01*
X439099Y763020D01*
X440480Y764160D01*
X442400Y764599D01*
X444280Y764200D01*
X445700Y763080D01*
X446599Y761300D01*
X446900Y759000D01*
X446700Y757000D01*
X446140Y755220D01*
X445260Y753620D01*
X444099Y752200D01*
X446200Y750400D01*
X447640Y752080D01*
X448780Y754100D01*
X449540Y756420D01*
X449799Y759000D01*
X449240Y762600D01*
X447660Y765460D01*
X445240Y767320D01*
X442200Y768000D01*
X439380Y767460D01*
X437280Y766060D01*
X435780Y764120D01*
X434700Y762000D01*
X431900Y755840D01*
X430860Y754260D01*
X429420Y753180D01*
X427400Y752800D01*
X425360Y753240D01*
X423780Y754500D01*
X422760Y756520D01*
X422400Y759200D01*
X422660Y761540D01*
X423380Y763720D01*
X424560Y765680D01*
X426100Y767400D01*
G37*
G36*
X434799Y745300D02*
G01*
X431440Y745060D01*
X428440Y744400D01*
X425820Y743300D01*
X423620Y741840D01*
X421860Y740060D01*
X420560Y737960D01*
X419780Y735600D01*
X419500Y733000D01*
X422400Y733000D01*
X422620Y734940D01*
X423260Y736660D01*
X424320Y738180D01*
X425740Y739479D01*
X427540Y740500D01*
X429660Y741260D01*
X432080Y741740D01*
X434799Y741900D01*
X437440Y741740D01*
X439820Y741260D01*
X441880Y740500D01*
X443620Y739479D01*
X445020Y738180D01*
X446060Y736660D01*
X446680Y734940D01*
X446900Y733000D01*
X446680Y731040D01*
X446060Y729280D01*
X445020Y727740D01*
X443620Y726440D01*
X441880Y725400D01*
X439820Y724640D01*
X437440Y724160D01*
X434799Y724000D01*
X432080Y724160D01*
X429660Y724640D01*
X427540Y725400D01*
X425740Y726440D01*
X424320Y727740D01*
X423260Y729280D01*
X422620Y731040D01*
X422400Y733000D01*
X419500Y733000D01*
X419780Y730380D01*
X420560Y727980D01*
X421860Y725860D01*
X423620Y724060D01*
X425820Y722600D01*
X428440Y721520D01*
X431440Y720840D01*
X434799Y720600D01*
X438120Y720840D01*
X441060Y721520D01*
X443640Y722600D01*
X445780Y724060D01*
X447500Y725860D01*
X448760Y727980D01*
X449540Y730380D01*
X449799Y733000D01*
X449540Y735600D01*
X448760Y737960D01*
X447500Y740060D01*
X445780Y741840D01*
X443640Y743300D01*
X441060Y744400D01*
X438120Y745060D01*
G37*
G36*
X420000Y705900D02*
G01*
X420000Y702900D01*
X438920Y702940D01*
X445400Y703300D01*
X445400Y703199D01*
X423000Y695100D01*
X423000Y692800D01*
X438800Y687099D01*
X445400Y684800D01*
X445400Y684599D01*
X441120Y684880D01*
X436900Y685000D01*
X420000Y685000D01*
X420000Y681900D01*
X449300Y681900D01*
X449300Y686000D01*
X431719Y692220D01*
X427000Y693800D01*
X427000Y694000D01*
X433300Y696100D01*
X449300Y701800D01*
X449300Y705900D01*
G37*
G36*
X434799Y675500D02*
G01*
X431440Y675260D01*
X428440Y674580D01*
X425820Y673500D01*
X423620Y672039D01*
X421860Y670240D01*
X420560Y668120D01*
X419780Y665720D01*
X419500Y663100D01*
X422400Y663100D01*
X422620Y665040D01*
X423260Y666780D01*
X424320Y668319D01*
X425740Y669620D01*
X427540Y670680D01*
X429660Y671460D01*
X432080Y671940D01*
X434799Y672099D01*
X437440Y671940D01*
X439820Y671460D01*
X441880Y670680D01*
X443620Y669620D01*
X445020Y668319D01*
X446060Y666780D01*
X446680Y665040D01*
X446900Y663100D01*
X446680Y661160D01*
X446060Y659419D01*
X445020Y657880D01*
X443620Y656580D01*
X441880Y655520D01*
X439820Y654740D01*
X437440Y654260D01*
X434799Y654100D01*
X432080Y654260D01*
X429660Y654740D01*
X427540Y655520D01*
X425740Y656580D01*
X424320Y657880D01*
X423260Y659419D01*
X422620Y661160D01*
X422400Y663100D01*
X419500Y663100D01*
X419780Y660480D01*
X420560Y658080D01*
X421860Y655960D01*
X423620Y654160D01*
X425820Y652700D01*
X428440Y651620D01*
X431440Y650939D01*
X434799Y650699D01*
X438120Y650939D01*
X441060Y651620D01*
X443640Y652700D01*
X445780Y654160D01*
X447500Y655960D01*
X448760Y658080D01*
X449540Y660480D01*
X449799Y663100D01*
X449540Y665720D01*
X448760Y668120D01*
X447500Y670240D01*
X445780Y672039D01*
X443640Y673500D01*
X441060Y674580D01*
X438120Y675260D01*
G37*
G36*
X423800Y646400D02*
G01*
X422040Y644340D01*
X420680Y641960D01*
X419799Y639260D01*
X419500Y636300D01*
X419660Y634120D01*
X420140Y632180D01*
X420880Y630480D01*
X421880Y629060D01*
X423080Y627920D01*
X424480Y627080D01*
X426019Y626580D01*
X427700Y626400D01*
X430520Y626880D01*
X432640Y628220D01*
X434260Y630160D01*
X435500Y632500D01*
X437299Y636800D01*
X438100Y638480D01*
X439099Y640020D01*
X440480Y641160D01*
X442400Y641600D01*
X444280Y641200D01*
X445700Y640080D01*
X446599Y638300D01*
X446900Y636000D01*
X446700Y634000D01*
X446140Y632220D01*
X445260Y630620D01*
X444099Y629200D01*
X446200Y627400D01*
X447640Y629080D01*
X448780Y631100D01*
X449540Y633420D01*
X449799Y636000D01*
X449240Y639600D01*
X447660Y642440D01*
X445240Y644320D01*
X442200Y645000D01*
X439380Y644460D01*
X437280Y643060D01*
X435780Y641120D01*
X434700Y639000D01*
X431900Y632840D01*
X430860Y631240D01*
X429420Y630180D01*
X427400Y629800D01*
X425360Y630240D01*
X423780Y631500D01*
X422760Y633520D01*
X422400Y636200D01*
X422660Y638540D01*
X423380Y640720D01*
X424560Y642680D01*
X426100Y644400D01*
G37*
G36*
X420000Y620600D02*
G01*
X420000Y617300D01*
X449300Y617300D01*
X449300Y620600D01*
G37*
G36*
X425000Y595900D02*
G01*
X425000Y592800D01*
X443300Y592840D01*
X450000Y593200D01*
X450000Y593000D01*
X444000Y589800D01*
X425000Y578800D01*
X425000Y575400D01*
X454300Y575400D01*
X454300Y578500D01*
X436120Y578460D01*
X429300Y578100D01*
X429300Y578300D01*
X435300Y581400D01*
X454300Y592500D01*
X454300Y595900D01*
G37*
G36*
X439600Y568900D02*
G01*
X436260Y568660D01*
X433280Y567960D01*
X430700Y566840D01*
X428519Y565340D01*
X426800Y563500D01*
X425540Y561340D01*
X424760Y558940D01*
X424500Y556300D01*
X424780Y553620D01*
X425580Y551280D01*
X426900Y549220D01*
X428700Y547400D01*
X430800Y549200D01*
X429340Y550720D01*
X428280Y552360D01*
X427620Y554160D01*
X427400Y556200D01*
X427620Y558240D01*
X428260Y560060D01*
X429320Y561640D01*
X430740Y562980D01*
X432520Y564060D01*
X434620Y564840D01*
X437020Y565340D01*
X439700Y565500D01*
X442380Y565320D01*
X444780Y564840D01*
X446860Y564020D01*
X448620Y562920D01*
X450020Y561560D01*
X451040Y559940D01*
X451680Y558080D01*
X451900Y556000D01*
X451700Y554220D01*
X451140Y552620D01*
X450260Y551220D01*
X449099Y550000D01*
X451200Y548100D01*
X452560Y549560D01*
X453720Y551380D01*
X454500Y553580D01*
X454799Y556100D01*
X454540Y558780D01*
X453740Y561220D01*
X452460Y563400D01*
X450720Y565280D01*
X448540Y566800D01*
X445940Y567940D01*
X442960Y568660D01*
G37*
G36*
X428800Y545000D02*
G01*
X427040Y542940D01*
X425680Y540560D01*
X424799Y537860D01*
X424500Y534900D01*
X424660Y532720D01*
X425140Y530780D01*
X425880Y529080D01*
X426880Y527660D01*
X428080Y526520D01*
X429480Y525680D01*
X431019Y525180D01*
X432700Y525000D01*
X435520Y525480D01*
X437640Y526820D01*
X439260Y528760D01*
X440500Y531100D01*
X442299Y535400D01*
X443100Y537080D01*
X444099Y538620D01*
X445480Y539760D01*
X447400Y540200D01*
X449280Y539800D01*
X450700Y538680D01*
X451599Y536900D01*
X451900Y534600D01*
X451700Y532600D01*
X451140Y530820D01*
X450260Y529220D01*
X449099Y527800D01*
X451200Y526000D01*
X452640Y527680D01*
X453780Y529700D01*
X454540Y532020D01*
X454799Y534600D01*
X454240Y538200D01*
X452660Y541060D01*
X450240Y542920D01*
X447200Y543600D01*
X444380Y543060D01*
X442280Y541640D01*
X440780Y539720D01*
X439700Y537600D01*
X436900Y531440D01*
X435860Y529860D01*
X434420Y528780D01*
X432400Y528400D01*
X430360Y528840D01*
X428780Y530100D01*
X427760Y532120D01*
X427400Y534800D01*
X427660Y537140D01*
X428380Y539320D01*
X429560Y541280D01*
X431100Y543000D01*
G37*
G36*
X180000Y605900D02*
G01*
X180000Y602900D01*
X198920Y602940D01*
X205400Y603300D01*
X205400Y603200D01*
X183000Y595100D01*
X183000Y592800D01*
X198800Y587100D01*
X205400Y584800D01*
X205400Y584600D01*
X201119Y584880D01*
X196900Y585000D01*
X180000Y585000D01*
X180000Y581900D01*
X209300Y581900D01*
X209300Y586000D01*
X191720Y592220D01*
X187000Y593800D01*
X187000Y594000D01*
X193299Y596100D01*
X209300Y601800D01*
X209300Y605900D01*
G37*
G36*
X206500Y576600D02*
G01*
X206500Y567600D01*
X180000Y567600D01*
X180000Y564300D01*
X206500Y564300D01*
X206500Y555300D01*
X209300Y555300D01*
X209300Y576600D01*
G37*
G36*
X180000Y550000D02*
G01*
X180000Y546900D01*
X198299Y546940D01*
X205000Y547300D01*
X205000Y547100D01*
X199000Y543900D01*
X180000Y532900D01*
X180000Y529400D01*
X209300Y529400D01*
X209300Y532600D01*
X191119Y532560D01*
X184300Y532200D01*
X184300Y532400D01*
X190300Y535500D01*
X209300Y546600D01*
X209300Y550000D01*
G37*
G36*
X423800Y918100D02*
G01*
X422040Y916040D01*
X420680Y913640D01*
X419799Y910920D01*
X419500Y907900D01*
X419660Y905759D01*
X420140Y903840D01*
X420880Y902159D01*
X421880Y900759D01*
X423080Y899620D01*
X424480Y898780D01*
X426019Y898280D01*
X427700Y898100D01*
X430520Y898580D01*
X432640Y899880D01*
X434260Y901820D01*
X435500Y904200D01*
X438100Y910100D01*
X439099Y911680D01*
X440480Y912840D01*
X442400Y913300D01*
X444280Y912880D01*
X445700Y911720D01*
X446599Y909920D01*
X446900Y907600D01*
X446700Y905600D01*
X446140Y903820D01*
X445260Y902220D01*
X444099Y900800D01*
X446200Y899100D01*
X447640Y900780D01*
X448780Y902780D01*
X449540Y905080D01*
X449799Y907600D01*
X449240Y911200D01*
X447660Y914060D01*
X445240Y915920D01*
X442200Y916600D01*
X439380Y916060D01*
X437280Y914659D01*
X435780Y912760D01*
X434700Y910699D01*
X431900Y904440D01*
X430860Y902840D01*
X429420Y901780D01*
X427400Y901400D01*
X425360Y901860D01*
X423780Y903160D01*
X422760Y905200D01*
X422400Y907900D01*
X422660Y910200D01*
X423380Y912380D01*
X424560Y914360D01*
X426100Y916100D01*
G37*
G36*
X434600Y894000D02*
G01*
X431260Y893760D01*
X428280Y893040D01*
X425700Y891919D01*
X423519Y890400D01*
X421800Y888560D01*
X420540Y886400D01*
X419760Y884000D01*
X419500Y881400D01*
X419780Y878720D01*
X420580Y876340D01*
X421900Y874240D01*
X423700Y872400D01*
X425800Y874300D01*
X424340Y875780D01*
X423280Y877420D01*
X422620Y879200D01*
X422400Y881200D01*
X422620Y883259D01*
X423260Y885120D01*
X424320Y886720D01*
X425740Y888080D01*
X427520Y889160D01*
X429620Y889940D01*
X432020Y890440D01*
X434700Y890600D01*
X437380Y890420D01*
X439780Y889920D01*
X441860Y889100D01*
X443620Y887980D01*
X445020Y886620D01*
X446040Y884980D01*
X446680Y883139D01*
X446900Y881100D01*
X446700Y879260D01*
X446140Y877640D01*
X445260Y876220D01*
X444099Y875000D01*
X446200Y873199D01*
X447560Y874620D01*
X448720Y876440D01*
X449500Y878620D01*
X449799Y881100D01*
X449540Y883780D01*
X448740Y886240D01*
X447460Y888439D01*
X445720Y890320D01*
X443540Y891860D01*
X440940Y893020D01*
X437960Y893740D01*
G37*
G36*
X420000Y866900D02*
G01*
X420000Y850600D01*
X422800Y850600D01*
X422800Y863600D01*
X449300Y863600D01*
X449300Y866900D01*
G37*
G36*
X420000Y845400D02*
G01*
X420000Y842099D01*
X429400Y842099D01*
X435600Y836900D01*
X420000Y827900D01*
X420000Y824200D01*
X438200Y834800D01*
X449300Y825600D01*
X449300Y829400D01*
X434200Y842000D01*
X434200Y842099D01*
X449300Y842099D01*
X449300Y845400D01*
G37*
G36*
X209300Y909900D02*
G01*
X180000Y900500D01*
X180000Y896700D01*
X209300Y887400D01*
X209300Y890699D01*
X183400Y898500D01*
X183400Y898600D01*
X188260Y900120D01*
X193100Y901500D01*
X209300Y906400D01*
G37*
G36*
X194600Y885400D02*
G01*
X191260Y885160D01*
X188280Y884440D01*
X185700Y883319D01*
X183520Y881800D01*
X181800Y879960D01*
X180539Y877800D01*
X179760Y875400D01*
X179500Y872800D01*
X179780Y870120D01*
X180580Y867780D01*
X181900Y865720D01*
X183700Y863900D01*
X185799Y865699D01*
X184340Y867180D01*
X183280Y868820D01*
X182620Y870600D01*
X182399Y872600D01*
X182620Y874659D01*
X183260Y876520D01*
X184320Y878120D01*
X185740Y879479D01*
X187520Y880560D01*
X189620Y881340D01*
X192020Y881840D01*
X194700Y882000D01*
X197380Y881820D01*
X199780Y881320D01*
X201860Y880500D01*
X203619Y879380D01*
X205020Y878020D01*
X206040Y876380D01*
X206680Y874539D01*
X206900Y872500D01*
X206700Y870720D01*
X206140Y869120D01*
X205260Y867680D01*
X204100Y866400D01*
X206200Y864599D01*
X207560Y866060D01*
X208720Y867880D01*
X209500Y870080D01*
X209800Y872600D01*
X209540Y875280D01*
X208740Y877720D01*
X207460Y879900D01*
X205720Y881780D01*
X203540Y883300D01*
X200940Y884440D01*
X197960Y885160D01*
G37*
G36*
X194600Y861200D02*
G01*
X191260Y860960D01*
X188280Y860260D01*
X185700Y859140D01*
X183520Y857640D01*
X181800Y855800D01*
X180539Y853640D01*
X179760Y851240D01*
X179500Y848600D01*
X179780Y845920D01*
X180580Y843580D01*
X181900Y841520D01*
X183700Y839700D01*
X185799Y841600D01*
X184340Y843080D01*
X183280Y844680D01*
X182620Y846460D01*
X182399Y848500D01*
X182620Y850540D01*
X183260Y852360D01*
X184320Y853940D01*
X185740Y855280D01*
X187520Y856360D01*
X189620Y857140D01*
X192020Y857640D01*
X194700Y857800D01*
X197380Y857620D01*
X199780Y857140D01*
X201860Y856320D01*
X203619Y855240D01*
X205020Y853880D01*
X206040Y852280D01*
X206680Y850440D01*
X206900Y848400D01*
X206700Y846560D01*
X206140Y844940D01*
X205260Y843520D01*
X204100Y842300D01*
X206200Y840400D01*
X207560Y841860D01*
X208720Y843680D01*
X209500Y845879D01*
X209800Y848400D01*
X209540Y851080D01*
X208740Y853520D01*
X207460Y855699D01*
X205720Y857580D01*
X203540Y859100D01*
X200940Y860240D01*
X197960Y860960D01*
G37*
G36*
X194600Y807600D02*
G01*
X191260Y807360D01*
X188280Y806640D01*
X185700Y805500D01*
X183520Y803940D01*
X181800Y802060D01*
X180539Y799840D01*
X179760Y797340D01*
X179500Y794599D01*
X179740Y791820D01*
X180440Y789360D01*
X181480Y787260D01*
X182800Y785600D01*
X195000Y785600D01*
X195000Y795100D01*
X192200Y795100D01*
X192200Y788700D01*
X184200Y788700D01*
X183460Y789780D01*
X182880Y791120D01*
X182520Y792660D01*
X182399Y794300D01*
X182620Y796540D01*
X183260Y798500D01*
X184320Y800200D01*
X185740Y801620D01*
X187520Y802720D01*
X189620Y803540D01*
X192020Y804040D01*
X194700Y804200D01*
X197380Y804020D01*
X199780Y803520D01*
X201860Y802680D01*
X203619Y801540D01*
X205020Y800120D01*
X206040Y798420D01*
X206680Y796480D01*
X206900Y794300D01*
X206680Y792180D01*
X206060Y790460D01*
X205180Y789020D01*
X204100Y787800D01*
X206200Y786000D01*
X207520Y787460D01*
X208680Y789300D01*
X209500Y791600D01*
X209800Y794400D01*
X209680Y796280D01*
X209320Y798060D01*
X208740Y799720D01*
X207940Y801240D01*
X206940Y802640D01*
X205720Y803880D01*
X204320Y804980D01*
X202719Y805879D01*
X200940Y806620D01*
X198980Y807159D01*
X196880Y807480D01*
G37*
G36*
X180000Y778600D02*
G01*
X180000Y775400D01*
X198299Y775440D01*
X205000Y775800D01*
X205000Y775600D01*
X199000Y772400D01*
X180000Y761400D01*
X180000Y758000D01*
X209300Y758000D01*
X209300Y761200D01*
X193400Y761200D01*
X188820Y761020D01*
X184300Y760699D01*
X184300Y760900D01*
X190300Y764100D01*
X209300Y775200D01*
X209300Y778600D01*
G37*
G36*
X180000Y749800D02*
G01*
X180000Y746500D01*
X206600Y746500D01*
X206600Y742900D01*
X206400Y740420D01*
X205799Y738259D01*
X204820Y736460D01*
X203480Y734980D01*
X201780Y733860D01*
X199760Y733040D01*
X197440Y732560D01*
X194800Y732400D01*
X192120Y732560D01*
X189740Y733040D01*
X187680Y733860D01*
X185940Y734980D01*
X184560Y736460D01*
X183540Y738259D01*
X182920Y740420D01*
X182700Y742900D01*
X182700Y746500D01*
X180000Y746500D01*
X180000Y742500D01*
X180120Y740360D01*
X180460Y738400D01*
X181020Y736640D01*
X181800Y735040D01*
X182780Y733640D01*
X183939Y732420D01*
X185320Y731380D01*
X186880Y730520D01*
X188600Y729860D01*
X190500Y729380D01*
X192580Y729100D01*
X194800Y729000D01*
X197020Y729100D01*
X199060Y729380D01*
X200940Y729860D01*
X202640Y730520D01*
X204160Y731380D01*
X205500Y732420D01*
X206640Y733660D01*
X207580Y735080D01*
X208320Y736680D01*
X208860Y738460D01*
X209200Y740440D01*
X209300Y742600D01*
X209300Y749800D01*
G37*
G36*
X855400Y294800D02*
G01*
X853000Y294540D01*
X850860Y293820D01*
X848980Y292740D01*
X847300Y291400D01*
X849100Y289200D01*
X850400Y290380D01*
X851840Y291300D01*
X853460Y291920D01*
X855200Y292200D01*
X857360Y291800D01*
X859000Y290800D01*
X860040Y289280D01*
X860400Y287300D01*
X859960Y285000D01*
X858540Y283160D01*
X855980Y281940D01*
X852099Y281500D01*
X852099Y279000D01*
X856420Y278560D01*
X859300Y277300D01*
X860900Y275380D01*
X861400Y272900D01*
X860939Y270540D01*
X859659Y268740D01*
X857720Y267600D01*
X855300Y267200D01*
X852900Y267480D01*
X850920Y268220D01*
X849280Y269300D01*
X847900Y270600D01*
X846200Y268500D01*
X847800Y266980D01*
X849840Y265720D01*
X852380Y264820D01*
X855500Y264500D01*
X857360Y264640D01*
X859080Y265060D01*
X860660Y265760D01*
X862020Y266700D01*
X863139Y267880D01*
X863980Y269300D01*
X864520Y270960D01*
X864700Y272800D01*
X864200Y275540D01*
X862860Y277740D01*
X860860Y279360D01*
X858400Y280300D01*
X858400Y280400D01*
X860580Y281520D01*
X862260Y283060D01*
X863319Y285080D01*
X863700Y287600D01*
X863080Y290660D01*
X861360Y292920D01*
X858720Y294320D01*
G37*
G36*
X867000Y294300D02*
G01*
X876400Y265000D01*
X880200Y265000D01*
X889599Y294300D01*
X886200Y294300D01*
X878500Y268400D01*
X878300Y268400D01*
X870500Y294300D01*
G37*
G36*
X962000Y264300D02*
G01*
X971400Y235000D01*
X975200Y235000D01*
X984599Y264300D01*
X981200Y264300D01*
X973500Y238400D01*
X973300Y238400D01*
X965500Y264300D01*
G37*
G36*
X944400Y264300D02*
G01*
X943500Y250700D01*
X945300Y249600D01*
X946500Y250320D01*
X947640Y250859D01*
X948820Y251180D01*
X950200Y251300D01*
X952780Y250820D01*
X954780Y249460D01*
X956040Y247300D01*
X956500Y244400D01*
X956000Y241420D01*
X954620Y239140D01*
X952580Y237700D01*
X950100Y237200D01*
X947700Y237480D01*
X945740Y238220D01*
X944120Y239259D01*
X942800Y240500D01*
X941100Y238400D01*
X942740Y236940D01*
X944780Y235700D01*
X947280Y234820D01*
X950400Y234500D01*
X952180Y234660D01*
X953900Y235159D01*
X955480Y235980D01*
X956900Y237100D01*
X958100Y238520D01*
X959000Y240240D01*
X959599Y242240D01*
X959800Y244500D01*
X959620Y246759D01*
X959120Y248700D01*
X958300Y250300D01*
X957240Y251580D01*
X955939Y252580D01*
X954440Y253260D01*
X952780Y253660D01*
X951000Y253800D01*
X949720Y253720D01*
X948560Y253500D01*
X947500Y253120D01*
X946500Y252600D01*
X947300Y261500D01*
X958400Y261500D01*
X958400Y264300D01*
G37*
G36*
X940400Y1174800D02*
G01*
X938000Y1174540D01*
X935860Y1173820D01*
X933980Y1172740D01*
X932300Y1171400D01*
X934100Y1169200D01*
X935400Y1170380D01*
X936840Y1171300D01*
X938460Y1171920D01*
X940200Y1172200D01*
X942360Y1171800D01*
X944000Y1170800D01*
X945040Y1169280D01*
X945400Y1167300D01*
X944960Y1165000D01*
X943540Y1163160D01*
X940980Y1161940D01*
X937099Y1161500D01*
X937099Y1159000D01*
X941420Y1158560D01*
X944300Y1157300D01*
X945900Y1155380D01*
X946400Y1152900D01*
X945939Y1150540D01*
X944659Y1148740D01*
X942720Y1147600D01*
X940300Y1147200D01*
X937900Y1147480D01*
X935920Y1148220D01*
X934280Y1149300D01*
X932900Y1150600D01*
X931200Y1148500D01*
X932800Y1146980D01*
X934840Y1145720D01*
X937380Y1144820D01*
X940500Y1144500D01*
X942360Y1144640D01*
X944080Y1145060D01*
X945660Y1145760D01*
X947020Y1146700D01*
X948139Y1147880D01*
X948980Y1149300D01*
X949520Y1150960D01*
X949700Y1152800D01*
X949200Y1155540D01*
X947860Y1157740D01*
X945860Y1159360D01*
X943400Y1160300D01*
X943400Y1160400D01*
X945580Y1161520D01*
X947260Y1163060D01*
X948319Y1165080D01*
X948700Y1167600D01*
X948080Y1170660D01*
X946360Y1172920D01*
X943720Y1174320D01*
G37*
G36*
X952000Y1174300D02*
G01*
X961400Y1145000D01*
X965200Y1145000D01*
X974599Y1174300D01*
X971200Y1174300D01*
X963500Y1148400D01*
X963300Y1148400D01*
X955500Y1174300D01*
G37*
G36*
X1109520Y1154820D02*
G01*
X1106840Y1154540D01*
X1104380Y1153760D01*
X1102200Y1152480D01*
X1100340Y1150740D01*
X1098800Y1148560D01*
X1097660Y1145960D01*
X1096960Y1142960D01*
X1096720Y1139600D01*
X1096960Y1136260D01*
X1097660Y1133280D01*
X1098780Y1130700D01*
X1100280Y1128540D01*
X1102120Y1126800D01*
X1104260Y1125540D01*
X1106680Y1124780D01*
X1109300Y1124520D01*
X1111980Y1124780D01*
X1114320Y1125600D01*
X1116380Y1126920D01*
X1118200Y1128720D01*
X1116320Y1130820D01*
X1114840Y1129360D01*
X1113240Y1128280D01*
X1111440Y1127640D01*
X1109400Y1127400D01*
X1107380Y1127640D01*
X1105560Y1128280D01*
X1103960Y1129320D01*
X1102620Y1130740D01*
X1101540Y1132520D01*
X1100760Y1134620D01*
X1100280Y1137020D01*
X1100120Y1139720D01*
X1100280Y1142380D01*
X1100780Y1144780D01*
X1101580Y1146860D01*
X1102680Y1148620D01*
X1104040Y1150020D01*
X1105640Y1151060D01*
X1107460Y1151700D01*
X1109520Y1151900D01*
X1111340Y1151720D01*
X1112980Y1151140D01*
X1114380Y1150260D01*
X1115600Y1149120D01*
X1117520Y1151220D01*
X1116040Y1152580D01*
X1114220Y1153720D01*
X1112040Y1154520D01*
G37*
G36*
X1083020Y1154820D02*
G01*
X1079400Y1154240D01*
X1076560Y1152660D01*
X1074680Y1150260D01*
X1074000Y1147220D01*
X1074560Y1144400D01*
X1075940Y1142300D01*
X1077840Y1140780D01*
X1079900Y1139720D01*
X1086180Y1136920D01*
X1087760Y1135860D01*
X1088820Y1134440D01*
X1089220Y1132400D01*
X1088760Y1130360D01*
X1087460Y1128780D01*
X1085420Y1127760D01*
X1082700Y1127400D01*
X1080440Y1127660D01*
X1078280Y1128400D01*
X1076280Y1129560D01*
X1074520Y1131100D01*
X1072520Y1128800D01*
X1074620Y1127040D01*
X1077020Y1125680D01*
X1079700Y1124820D01*
X1082700Y1124520D01*
X1084860Y1124680D01*
X1086780Y1125140D01*
X1088440Y1125900D01*
X1089860Y1126880D01*
X1091000Y1128100D01*
X1091820Y1129480D01*
X1092340Y1131040D01*
X1092520Y1132720D01*
X1092040Y1135540D01*
X1090740Y1137660D01*
X1088840Y1139260D01*
X1086500Y1140500D01*
X1080520Y1143100D01*
X1078940Y1144120D01*
X1077760Y1145480D01*
X1077300Y1147400D01*
X1077720Y1149300D01*
X1078880Y1150700D01*
X1080680Y1151600D01*
X1083020Y1151900D01*
X1085000Y1151720D01*
X1086780Y1151140D01*
X1088380Y1150260D01*
X1089800Y1149120D01*
X1091500Y1151220D01*
X1089840Y1152660D01*
X1087820Y1153800D01*
X1085540Y1154540D01*
G37*
G36*
X1145200Y1154320D02*
G01*
X1145200Y1125020D01*
X1148500Y1125020D01*
X1148500Y1134400D01*
X1153720Y1140620D01*
X1162700Y1125020D01*
X1166400Y1125020D01*
X1155920Y1143200D01*
X1165120Y1154320D01*
X1161320Y1154320D01*
X1148600Y1139200D01*
X1148500Y1139200D01*
X1148500Y1154320D01*
G37*
G36*
X1123720Y1154320D02*
G01*
X1123720Y1125020D01*
X1140020Y1125020D01*
X1140020Y1127800D01*
X1127120Y1127800D01*
X1127120Y1154320D01*
G37*
G36*
X1047400Y1154320D02*
G01*
X1047400Y1151620D01*
X1054300Y1151620D01*
X1056800Y1151400D01*
X1058960Y1150800D01*
X1060780Y1149820D01*
X1062280Y1148480D01*
X1063420Y1146800D01*
X1064260Y1144780D01*
X1064740Y1142440D01*
X1064900Y1139820D01*
X1064740Y1137140D01*
X1064260Y1134760D01*
X1063420Y1132680D01*
X1062280Y1130940D01*
X1060780Y1129560D01*
X1058960Y1128540D01*
X1056800Y1127920D01*
X1054300Y1127720D01*
X1050700Y1127720D01*
X1050700Y1151620D01*
X1047400Y1151620D01*
X1047400Y1125020D01*
X1054700Y1125020D01*
X1056840Y1125120D01*
X1058800Y1125460D01*
X1060580Y1126020D01*
X1062200Y1126800D01*
X1063620Y1127780D01*
X1064840Y1128960D01*
X1065900Y1130320D01*
X1066760Y1131880D01*
X1067440Y1133620D01*
X1067920Y1135520D01*
X1068220Y1137580D01*
X1068320Y1139820D01*
X1068220Y1142020D01*
X1067920Y1144080D01*
X1067440Y1145960D01*
X1066760Y1147660D01*
X1065900Y1149180D01*
X1064840Y1150500D01*
X1063600Y1151660D01*
X1062160Y1152600D01*
X1060540Y1153340D01*
X1058740Y1153880D01*
X1056780Y1154200D01*
X1054620Y1154320D01*
G37*
G36*
X1141400Y294800D02*
G01*
X1137780Y294240D01*
X1134900Y292660D01*
X1133000Y290240D01*
X1132300Y287200D01*
X1132860Y284380D01*
X1134280Y282280D01*
X1136220Y280780D01*
X1138300Y279700D01*
X1144460Y276900D01*
X1146040Y275860D01*
X1147120Y274420D01*
X1147500Y272400D01*
X1147060Y270360D01*
X1145800Y268780D01*
X1143780Y267760D01*
X1141100Y267400D01*
X1138800Y267660D01*
X1136620Y268380D01*
X1134640Y269560D01*
X1132900Y271100D01*
X1130900Y268800D01*
X1132960Y267040D01*
X1135340Y265680D01*
X1138040Y264800D01*
X1141000Y264500D01*
X1143180Y264660D01*
X1145120Y265140D01*
X1146820Y265880D01*
X1148240Y266880D01*
X1149380Y268080D01*
X1150220Y269480D01*
X1150720Y271020D01*
X1150900Y272700D01*
X1150420Y275520D01*
X1149120Y277640D01*
X1147180Y279260D01*
X1144800Y280500D01*
X1138860Y283100D01*
X1137280Y284100D01*
X1136140Y285480D01*
X1135700Y287400D01*
X1136120Y289280D01*
X1137280Y290700D01*
X1139080Y291600D01*
X1141400Y291900D01*
X1143380Y291700D01*
X1145120Y291140D01*
X1146680Y290260D01*
X1148100Y289100D01*
X1149900Y291200D01*
X1148220Y292640D01*
X1146220Y293780D01*
X1143920Y294540D01*
G37*
G36*
X1114200Y294800D02*
G01*
X1111600Y294540D01*
X1109220Y293760D01*
X1107120Y292500D01*
X1105300Y290780D01*
X1103820Y288640D01*
X1102720Y286060D01*
X1102040Y283120D01*
X1101800Y279800D01*
X1105200Y279800D01*
X1105360Y282440D01*
X1105840Y284820D01*
X1106620Y286880D01*
X1107680Y288620D01*
X1108980Y290020D01*
X1110520Y291060D01*
X1112260Y291680D01*
X1114200Y291900D01*
X1116140Y291680D01*
X1117880Y291060D01*
X1119420Y290020D01*
X1120720Y288620D01*
X1121780Y286880D01*
X1122560Y284820D01*
X1123040Y282440D01*
X1123200Y279800D01*
X1123040Y277080D01*
X1122560Y274660D01*
X1121780Y272540D01*
X1120720Y270740D01*
X1119420Y269320D01*
X1117880Y268260D01*
X1116140Y267620D01*
X1114200Y267400D01*
X1112260Y267620D01*
X1110520Y268260D01*
X1108980Y269320D01*
X1107680Y270740D01*
X1106620Y272540D01*
X1105840Y274660D01*
X1105360Y277080D01*
X1105200Y279800D01*
X1101800Y279800D01*
X1102040Y276440D01*
X1102720Y273440D01*
X1103820Y270820D01*
X1105300Y268620D01*
X1107120Y266860D01*
X1109220Y265560D01*
X1111600Y264780D01*
X1114200Y264500D01*
X1116820Y264780D01*
X1119220Y265560D01*
X1121340Y266860D01*
X1123140Y268620D01*
X1124600Y270820D01*
X1125680Y273440D01*
X1126360Y276440D01*
X1126600Y279800D01*
X1126360Y283120D01*
X1125680Y286060D01*
X1124600Y288640D01*
X1123140Y290780D01*
X1121340Y292500D01*
X1119220Y293760D01*
X1116820Y294540D01*
G37*
G36*
X1156700Y294300D02*
G01*
X1156700Y265000D01*
X1160000Y265000D01*
X1160000Y294300D01*
G37*
G36*
X1071400Y294300D02*
G01*
X1071400Y265000D01*
X1074400Y265000D01*
X1074360Y283920D01*
X1074000Y290400D01*
X1074200Y290400D01*
X1076500Y283800D01*
X1082200Y268000D01*
X1084500Y268000D01*
X1092600Y290400D01*
X1092700Y290400D01*
X1092300Y281900D01*
X1092300Y265000D01*
X1095400Y265000D01*
X1095400Y294300D01*
X1091300Y294300D01*
X1085600Y278300D01*
X1083600Y272000D01*
X1083400Y272000D01*
X1075500Y294300D01*
G37*
G36*
X1044100Y294300D02*
G01*
X1044100Y291600D01*
X1051000Y291600D01*
X1053500Y291400D01*
X1055660Y290800D01*
X1057480Y289820D01*
X1058960Y288480D01*
X1060120Y286780D01*
X1060940Y284760D01*
X1061440Y282440D01*
X1061600Y279800D01*
X1061440Y277120D01*
X1060940Y274740D01*
X1060120Y272680D01*
X1058960Y270940D01*
X1057480Y269560D01*
X1055660Y268540D01*
X1053500Y267920D01*
X1051000Y267700D01*
X1047400Y267700D01*
X1047400Y291600D01*
X1044100Y291600D01*
X1044100Y265000D01*
X1051400Y265000D01*
X1053540Y265120D01*
X1055500Y265460D01*
X1057280Y266020D01*
X1058880Y266800D01*
X1060300Y267780D01*
X1061540Y268940D01*
X1062580Y270320D01*
X1063460Y271880D01*
X1064120Y273600D01*
X1064620Y275500D01*
X1064900Y277580D01*
X1065000Y279800D01*
X1064900Y282020D01*
X1064620Y284060D01*
X1064120Y285940D01*
X1063440Y287640D01*
X1062580Y289160D01*
X1061520Y290500D01*
X1060280Y291640D01*
X1058860Y292580D01*
X1057240Y293320D01*
X1055440Y293860D01*
X1053460Y294200D01*
X1051300Y294300D01*
G37*
G36*
X627800Y309800D02*
G01*
X624180Y309240D01*
X621300Y307660D01*
X619400Y305240D01*
X618700Y302200D01*
X619260Y299380D01*
X620680Y297280D01*
X622620Y295780D01*
X624700Y294700D01*
X630860Y291900D01*
X632440Y290860D01*
X633520Y289420D01*
X633900Y287400D01*
X633460Y285360D01*
X632200Y283780D01*
X630180Y282760D01*
X627500Y282400D01*
X625200Y282660D01*
X623020Y283380D01*
X621040Y284560D01*
X619300Y286100D01*
X617300Y283800D01*
X619360Y282040D01*
X621760Y280680D01*
X624440Y279800D01*
X627400Y279500D01*
X629580Y279660D01*
X631520Y280140D01*
X633220Y280880D01*
X634640Y281880D01*
X635780Y283080D01*
X636620Y284480D01*
X637120Y286020D01*
X637300Y287700D01*
X636820Y290520D01*
X635520Y292640D01*
X633580Y294260D01*
X631200Y295500D01*
X625260Y298100D01*
X623680Y299100D01*
X622540Y300480D01*
X622100Y302400D01*
X622520Y304280D01*
X623680Y305700D01*
X625480Y306600D01*
X627800Y306900D01*
X629780Y306700D01*
X631520Y306140D01*
X633080Y305260D01*
X634500Y304100D01*
X636300Y306200D01*
X634620Y307640D01*
X632620Y308780D01*
X630320Y309540D01*
G37*
G36*
X606200Y309800D02*
G01*
X603520Y309540D01*
X601080Y308740D01*
X598900Y307460D01*
X597020Y305720D01*
X595500Y303540D01*
X594360Y300940D01*
X593640Y297960D01*
X593400Y294600D01*
X593640Y291260D01*
X594360Y288280D01*
X595480Y285700D01*
X597000Y283520D01*
X598840Y281800D01*
X601000Y280540D01*
X603400Y279760D01*
X606000Y279500D01*
X608680Y279780D01*
X611020Y280580D01*
X613080Y281900D01*
X614900Y283700D01*
X613100Y285800D01*
X611620Y284340D01*
X609980Y283280D01*
X608200Y282620D01*
X606200Y282400D01*
X604140Y282620D01*
X602280Y283260D01*
X600680Y284320D01*
X599320Y285740D01*
X598240Y287520D01*
X597460Y289620D01*
X596960Y292020D01*
X596800Y294700D01*
X596980Y297380D01*
X597480Y299780D01*
X598300Y301860D01*
X599420Y303620D01*
X600780Y305020D01*
X602420Y306040D01*
X604260Y306680D01*
X606300Y306900D01*
X608080Y306700D01*
X609680Y306140D01*
X611120Y305260D01*
X612400Y304100D01*
X614200Y306200D01*
X612740Y307560D01*
X610920Y308720D01*
X608720Y309500D01*
G37*
G36*
X566400Y309300D02*
G01*
X566400Y280000D01*
X569500Y280000D01*
X569460Y298300D01*
X569100Y305000D01*
X569300Y305000D01*
X572500Y299000D01*
X583500Y280000D01*
X587000Y280000D01*
X587000Y309300D01*
X583800Y309300D01*
X583840Y291120D01*
X584200Y284300D01*
X584000Y284300D01*
X580900Y290300D01*
X569800Y309300D01*
G37*
G36*
X539100Y309300D02*
G01*
X539100Y306600D01*
X546000Y306600D01*
X548500Y306400D01*
X550660Y305800D01*
X552480Y304820D01*
X553960Y303480D01*
X555120Y301780D01*
X555940Y299760D01*
X556440Y297440D01*
X556600Y294800D01*
X556440Y292120D01*
X555940Y289740D01*
X555120Y287680D01*
X553960Y285940D01*
X552480Y284560D01*
X550660Y283540D01*
X548500Y282920D01*
X546000Y282700D01*
X542400Y282700D01*
X542400Y306600D01*
X539100Y306600D01*
X539100Y280000D01*
X546400Y280000D01*
X548540Y280120D01*
X550500Y280460D01*
X552280Y281020D01*
X553880Y281800D01*
X555300Y282780D01*
X556540Y283940D01*
X557580Y285320D01*
X558460Y286880D01*
X559120Y288600D01*
X559620Y290500D01*
X559900Y292580D01*
X560000Y294800D01*
X559900Y297020D01*
X559620Y299060D01*
X559120Y300940D01*
X558440Y302640D01*
X557580Y304160D01*
X556520Y305500D01*
X555280Y306640D01*
X553860Y307580D01*
X552240Y308320D01*
X550440Y308860D01*
X548460Y309200D01*
X546300Y309300D01*
G37*
G36*
X436700Y420920D02*
G01*
X433160Y420780D01*
X430100Y420319D01*
X427520Y419560D01*
X425420Y418540D01*
X423780Y417260D01*
X422620Y415740D01*
X421940Y414000D01*
X421700Y412020D01*
X424300Y412020D01*
X424480Y413260D01*
X425040Y414360D01*
X425980Y415319D01*
X427320Y416160D01*
X429040Y416820D01*
X431180Y417320D01*
X433720Y417620D01*
X436700Y417740D01*
X439739Y417620D01*
X442340Y417320D01*
X444500Y416820D01*
X446260Y416160D01*
X447600Y415319D01*
X448560Y414360D01*
X449120Y413260D01*
X449300Y412020D01*
X449120Y410780D01*
X448560Y409640D01*
X447600Y408620D01*
X446260Y407760D01*
X444500Y407080D01*
X442340Y406560D01*
X439739Y406240D01*
X436700Y406120D01*
X433720Y406240D01*
X431180Y406560D01*
X429040Y407080D01*
X427320Y407760D01*
X425980Y408620D01*
X425040Y409640D01*
X424480Y410780D01*
X424300Y412020D01*
X421700Y412020D01*
X421920Y410060D01*
X422600Y408300D01*
X423760Y406760D01*
X425379Y405460D01*
X427480Y404420D01*
X430060Y403660D01*
X433120Y403200D01*
X436700Y403020D01*
X440280Y403200D01*
X443400Y403660D01*
X446019Y404420D01*
X448180Y405460D01*
X449840Y406760D01*
X451040Y408300D01*
X451760Y410060D01*
X452000Y412020D01*
X451760Y414000D01*
X451040Y415740D01*
X449840Y417260D01*
X448180Y418540D01*
X446019Y419560D01*
X443400Y420319D01*
X440280Y420780D01*
G37*
G36*
X443700Y398740D02*
G01*
X440920Y398240D01*
X438720Y396900D01*
X437140Y394940D01*
X436200Y392540D01*
X436000Y392540D01*
X434940Y394660D01*
X433420Y396300D01*
X431420Y397360D01*
X428900Y397740D01*
X425840Y397100D01*
X423579Y395379D01*
X422180Y392760D01*
X421700Y389440D01*
X421960Y387040D01*
X422680Y384940D01*
X423760Y383040D01*
X425100Y381320D01*
X427200Y383140D01*
X426019Y384440D01*
X425120Y385940D01*
X424520Y387580D01*
X424300Y389320D01*
X424660Y391440D01*
X425660Y393040D01*
X427160Y394060D01*
X429099Y394440D01*
X431400Y394000D01*
X433240Y392600D01*
X434460Y390040D01*
X434900Y386120D01*
X437500Y386120D01*
X437939Y390460D01*
X439140Y393340D01*
X441040Y394940D01*
X443500Y395439D01*
X445920Y394980D01*
X447760Y393740D01*
X448900Y391800D01*
X449300Y389320D01*
X449000Y386940D01*
X448240Y384960D01*
X447140Y383320D01*
X445900Y381940D01*
X448000Y380240D01*
X449460Y381840D01*
X450740Y383860D01*
X451659Y386400D01*
X452000Y389520D01*
X451860Y391380D01*
X451440Y393120D01*
X450740Y394680D01*
X449799Y396040D01*
X448620Y397160D01*
X447200Y398000D01*
X445540Y398540D01*
G37*
G36*
X443700Y376719D02*
G01*
X440920Y376260D01*
X438720Y374940D01*
X437140Y372980D01*
X436200Y370520D01*
X436000Y370520D01*
X434940Y372660D01*
X433420Y374300D01*
X431420Y375360D01*
X428900Y375720D01*
X425840Y375100D01*
X423579Y373380D01*
X422180Y370760D01*
X421700Y367420D01*
X421960Y365080D01*
X422680Y362980D01*
X423760Y361100D01*
X425100Y359440D01*
X427200Y361120D01*
X426019Y362480D01*
X425120Y363960D01*
X424520Y365580D01*
X424300Y367340D01*
X424660Y369480D01*
X425660Y371079D01*
X427160Y372080D01*
X429099Y372420D01*
X431400Y372000D01*
X433240Y370620D01*
X434460Y368080D01*
X434900Y364219D01*
X437500Y364219D01*
X437939Y368560D01*
X439140Y371440D01*
X441040Y373040D01*
X443500Y373540D01*
X445920Y373060D01*
X447760Y371780D01*
X448900Y369820D01*
X449300Y367340D01*
X449000Y365000D01*
X448240Y363020D01*
X447140Y361360D01*
X445900Y359920D01*
X448000Y358340D01*
X449460Y359900D01*
X450740Y361920D01*
X451659Y364440D01*
X452000Y367540D01*
X451860Y369420D01*
X451440Y371160D01*
X450740Y372720D01*
X449799Y374080D01*
X448620Y375200D01*
X447200Y376019D01*
X445540Y376540D01*
G37*
G36*
X216700Y505920D02*
G01*
X213160Y505780D01*
X210100Y505319D01*
X207520Y504560D01*
X205420Y503540D01*
X203780Y502260D01*
X202620Y500740D01*
X201940Y499000D01*
X201700Y497020D01*
X204300Y497020D01*
X204480Y498260D01*
X205040Y499360D01*
X205980Y500319D01*
X207320Y501160D01*
X209040Y501820D01*
X211180Y502320D01*
X213720Y502620D01*
X216700Y502740D01*
X219740Y502620D01*
X222340Y502320D01*
X224500Y501820D01*
X226260Y501160D01*
X227600Y500319D01*
X228560Y499360D01*
X229120Y498260D01*
X229300Y497020D01*
X229120Y495780D01*
X228560Y494640D01*
X227600Y493620D01*
X226260Y492760D01*
X224500Y492080D01*
X222340Y491560D01*
X219740Y491240D01*
X216700Y491120D01*
X213720Y491240D01*
X211180Y491560D01*
X209040Y492080D01*
X207320Y492760D01*
X205980Y493620D01*
X205040Y494640D01*
X204480Y495780D01*
X204300Y497020D01*
X201700Y497020D01*
X201920Y495060D01*
X202600Y493300D01*
X203760Y491760D01*
X205380Y490460D01*
X207480Y489420D01*
X210060Y488660D01*
X213120Y488200D01*
X216700Y488020D01*
X220280Y488200D01*
X223400Y488660D01*
X226020Y489420D01*
X228180Y490460D01*
X229840Y491760D01*
X231040Y493300D01*
X231759Y495060D01*
X232000Y497020D01*
X231759Y499000D01*
X231040Y500740D01*
X229840Y502260D01*
X228180Y503540D01*
X226020Y504560D01*
X223400Y505319D01*
X220280Y505780D01*
G37*
G36*
X223700Y483740D02*
G01*
X220920Y483240D01*
X218720Y481900D01*
X217140Y479940D01*
X216200Y477540D01*
X216000Y477540D01*
X214940Y479660D01*
X213420Y481300D01*
X211420Y482360D01*
X208900Y482740D01*
X205840Y482100D01*
X203580Y480379D01*
X202180Y477760D01*
X201700Y474440D01*
X201960Y472040D01*
X202680Y469940D01*
X203760Y468040D01*
X205100Y466320D01*
X207200Y468140D01*
X206020Y469440D01*
X205120Y470940D01*
X204520Y472580D01*
X204300Y474320D01*
X204660Y476440D01*
X205660Y478040D01*
X207160Y479060D01*
X209100Y479440D01*
X211400Y479000D01*
X213240Y477600D01*
X214460Y475040D01*
X214899Y471120D01*
X217500Y471120D01*
X217940Y475460D01*
X219140Y478340D01*
X221040Y479940D01*
X223500Y480439D01*
X225920Y479980D01*
X227760Y478740D01*
X228900Y476800D01*
X229300Y474320D01*
X229000Y471940D01*
X228240Y469960D01*
X227140Y468320D01*
X225900Y466940D01*
X228000Y465240D01*
X229460Y466840D01*
X230740Y468860D01*
X231660Y471400D01*
X232000Y474520D01*
X231860Y476380D01*
X231439Y478120D01*
X230740Y479680D01*
X229800Y481040D01*
X228619Y482160D01*
X227200Y483000D01*
X225539Y483540D01*
G37*
G36*
X223700Y461719D02*
G01*
X220920Y461260D01*
X218720Y459940D01*
X217140Y457980D01*
X216200Y455520D01*
X216000Y455520D01*
X214940Y457660D01*
X213420Y459300D01*
X211420Y460360D01*
X208900Y460720D01*
X205840Y460100D01*
X203580Y458380D01*
X202180Y455760D01*
X201700Y452420D01*
X201960Y450080D01*
X202680Y447980D01*
X203760Y446100D01*
X205100Y444440D01*
X207200Y446120D01*
X206020Y447480D01*
X205120Y448960D01*
X204520Y450580D01*
X204300Y452340D01*
X204660Y454480D01*
X205660Y456079D01*
X207160Y457080D01*
X209100Y457420D01*
X211400Y457000D01*
X213240Y455620D01*
X214460Y453080D01*
X214899Y449219D01*
X217500Y449219D01*
X217940Y453560D01*
X219140Y456440D01*
X221040Y458040D01*
X223500Y458540D01*
X225920Y458060D01*
X227760Y456780D01*
X228900Y454820D01*
X229300Y452340D01*
X229000Y450000D01*
X228240Y448020D01*
X227140Y446360D01*
X225900Y444920D01*
X228000Y443340D01*
X229460Y444900D01*
X230740Y446920D01*
X231660Y449440D01*
X232000Y452540D01*
X231860Y454420D01*
X231439Y456160D01*
X230740Y457720D01*
X229800Y459080D01*
X228619Y460200D01*
X227200Y461019D01*
X225539Y461540D01*
G37*
G36*
X697300Y1107340D02*
G01*
X693760Y1107180D01*
X690699Y1106720D01*
X688120Y1105960D01*
X686020Y1104940D01*
X684380Y1103660D01*
X683220Y1102140D01*
X682540Y1100400D01*
X682300Y1098420D01*
X684900Y1098420D01*
X685080Y1099680D01*
X685639Y1100820D01*
X686580Y1101800D01*
X687920Y1102640D01*
X689640Y1103320D01*
X691780Y1103820D01*
X694320Y1104120D01*
X697300Y1104220D01*
X700380Y1104120D01*
X703000Y1103820D01*
X705180Y1103320D01*
X706940Y1102640D01*
X708300Y1101800D01*
X709260Y1100820D01*
X709820Y1099680D01*
X710000Y1098420D01*
X709820Y1097180D01*
X709260Y1096040D01*
X708300Y1095060D01*
X706960Y1094220D01*
X705180Y1093540D01*
X703000Y1093040D01*
X700380Y1092740D01*
X697300Y1092620D01*
X694320Y1092740D01*
X691780Y1093040D01*
X689640Y1093540D01*
X687920Y1094220D01*
X686580Y1095060D01*
X685639Y1096040D01*
X685080Y1097180D01*
X684900Y1098420D01*
X682300Y1098420D01*
X682540Y1096460D01*
X683220Y1094700D01*
X684380Y1093160D01*
X686020Y1091860D01*
X688120Y1090820D01*
X690699Y1090060D01*
X693760Y1089600D01*
X697300Y1089440D01*
X700920Y1089600D01*
X704040Y1090060D01*
X706660Y1090820D01*
X708820Y1091860D01*
X710480Y1093160D01*
X711660Y1094700D01*
X712360Y1096460D01*
X712600Y1098420D01*
X712360Y1100400D01*
X711660Y1102140D01*
X710480Y1103660D01*
X708820Y1104940D01*
X706660Y1105960D01*
X704040Y1106720D01*
X700920Y1107180D01*
G37*
G36*
X704300Y1085120D02*
G01*
X701560Y1084640D01*
X699360Y1083300D01*
X697740Y1081340D01*
X696800Y1078940D01*
X696700Y1078940D01*
X695580Y1081060D01*
X694040Y1082700D01*
X692020Y1083760D01*
X689500Y1084140D01*
X686440Y1083500D01*
X684180Y1081780D01*
X682780Y1079160D01*
X682300Y1075840D01*
X682560Y1073480D01*
X683280Y1071360D01*
X684360Y1069460D01*
X685699Y1067740D01*
X687900Y1069520D01*
X686720Y1070880D01*
X685800Y1072360D01*
X685180Y1073980D01*
X684900Y1075720D01*
X685300Y1077880D01*
X686300Y1079480D01*
X687820Y1080480D01*
X689800Y1080840D01*
X692099Y1080400D01*
X693940Y1079020D01*
X695160Y1076480D01*
X695600Y1072620D01*
X698100Y1072620D01*
X698540Y1076960D01*
X699800Y1079840D01*
X701720Y1081440D01*
X704200Y1081940D01*
X706560Y1081460D01*
X708360Y1080180D01*
X709500Y1078220D01*
X709900Y1075720D01*
X709620Y1073400D01*
X708880Y1071440D01*
X707800Y1069760D01*
X706500Y1068340D01*
X708600Y1066720D01*
X710120Y1068300D01*
X711380Y1070320D01*
X712280Y1072840D01*
X712600Y1075920D01*
X712460Y1077820D01*
X712039Y1079560D01*
X711340Y1081120D01*
X710400Y1082480D01*
X709220Y1083600D01*
X707800Y1084420D01*
X706140Y1084940D01*
G37*
G36*
X704300Y1063220D02*
G01*
X701560Y1062740D01*
X699360Y1061400D01*
X697740Y1059400D01*
X696800Y1056940D01*
X696700Y1056940D01*
X695580Y1059100D01*
X694040Y1060780D01*
X692020Y1061860D01*
X689500Y1062220D01*
X686440Y1061600D01*
X684180Y1059880D01*
X682780Y1057260D01*
X682300Y1053940D01*
X682560Y1051520D01*
X683280Y1049400D01*
X684360Y1047500D01*
X685699Y1045840D01*
X687900Y1047620D01*
X686720Y1048920D01*
X685800Y1050380D01*
X685180Y1051980D01*
X684900Y1053740D01*
X685300Y1055900D01*
X686300Y1057540D01*
X687820Y1058560D01*
X689800Y1058940D01*
X692099Y1058500D01*
X693940Y1057060D01*
X695160Y1054500D01*
X695600Y1050640D01*
X698100Y1050640D01*
X698540Y1054960D01*
X699800Y1057820D01*
X701720Y1059440D01*
X704200Y1059920D01*
X706560Y1059460D01*
X708360Y1058200D01*
X709500Y1056260D01*
X709900Y1053820D01*
X709620Y1051440D01*
X708880Y1049460D01*
X707800Y1047820D01*
X706500Y1046440D01*
X708600Y1044720D01*
X710120Y1046340D01*
X711380Y1048360D01*
X712280Y1050900D01*
X712600Y1054020D01*
X712460Y1055880D01*
X712039Y1057620D01*
X711340Y1059180D01*
X710400Y1060540D01*
X709220Y1061660D01*
X707800Y1062500D01*
X706140Y1063040D01*
G37*
G36*
X591600Y1275940D02*
G01*
X591600Y1259340D01*
X620900Y1259340D01*
X620900Y1262640D01*
X607500Y1262640D01*
X607500Y1273940D01*
X604700Y1273940D01*
X604700Y1262640D01*
X594400Y1262640D01*
X594400Y1275940D01*
G37*
G36*
X607100Y1251740D02*
G01*
X603460Y1251340D01*
X600840Y1250160D01*
X599240Y1248100D01*
X598700Y1245140D01*
X599000Y1243060D01*
X599800Y1241200D01*
X600980Y1239500D01*
X602400Y1237940D01*
X602400Y1237740D01*
X599300Y1237440D01*
X599300Y1234840D01*
X620900Y1234840D01*
X620900Y1238040D01*
X605100Y1238040D01*
X603520Y1239640D01*
X602400Y1241140D01*
X601720Y1242620D01*
X601500Y1244240D01*
X601860Y1246160D01*
X602960Y1247500D01*
X604840Y1248280D01*
X607500Y1248540D01*
X620900Y1248540D01*
X620900Y1251740D01*
G37*
G36*
X606100Y1228940D02*
G01*
X602560Y1228780D01*
X599500Y1228320D01*
X596920Y1227560D01*
X594820Y1226540D01*
X593180Y1225260D01*
X592020Y1223740D01*
X591340Y1222000D01*
X591100Y1220040D01*
X593700Y1220040D01*
X593880Y1221280D01*
X594420Y1222420D01*
X595360Y1223400D01*
X596680Y1224240D01*
X598400Y1224920D01*
X600540Y1225420D01*
X603100Y1225720D01*
X606100Y1225840D01*
X609140Y1225720D01*
X611740Y1225420D01*
X613900Y1224920D01*
X615660Y1224240D01*
X617000Y1223400D01*
X617960Y1222420D01*
X618520Y1221280D01*
X618700Y1220040D01*
X618520Y1218780D01*
X617960Y1217640D01*
X617000Y1216660D01*
X615660Y1215820D01*
X613900Y1215140D01*
X611740Y1214640D01*
X609140Y1214340D01*
X606100Y1214240D01*
X603100Y1214340D01*
X600540Y1214640D01*
X598400Y1215140D01*
X596680Y1215820D01*
X595360Y1216660D01*
X594420Y1217640D01*
X593880Y1218780D01*
X593700Y1220040D01*
X591100Y1220040D01*
X591320Y1218060D01*
X592000Y1216300D01*
X593160Y1214760D01*
X594780Y1213460D01*
X596880Y1212420D01*
X599460Y1211660D01*
X602520Y1211200D01*
X606100Y1211040D01*
X609680Y1211200D01*
X612800Y1211660D01*
X615420Y1212420D01*
X617580Y1213460D01*
X619240Y1214760D01*
X620440Y1216300D01*
X621160Y1218060D01*
X621400Y1220040D01*
X621160Y1222000D01*
X620440Y1223740D01*
X619240Y1225260D01*
X617580Y1226540D01*
X615420Y1227560D01*
X612800Y1228320D01*
X609680Y1228780D01*
G37*
G36*
X618100Y1206440D02*
G01*
X618100Y1200440D01*
X591600Y1200440D01*
X591600Y1197940D01*
X592220Y1196720D01*
X592760Y1195360D01*
X593600Y1192040D01*
X595700Y1192040D01*
X595700Y1197240D01*
X618100Y1197240D01*
X618100Y1190640D01*
X620900Y1190640D01*
X620900Y1206440D01*
G37*
G36*
X1242800Y662200D02*
G01*
X1242800Y645600D01*
X1272100Y645600D01*
X1272100Y648900D01*
X1258700Y648900D01*
X1258700Y660200D01*
X1255900Y660200D01*
X1255900Y648900D01*
X1245600Y648900D01*
X1245600Y662200D01*
G37*
G36*
X1250500Y637700D02*
G01*
X1250500Y634500D01*
X1266000Y634500D01*
X1267700Y632940D01*
X1268880Y631480D01*
X1269580Y630020D01*
X1269800Y628400D01*
X1269440Y626460D01*
X1268340Y625120D01*
X1266460Y624340D01*
X1263800Y624100D01*
X1250500Y624100D01*
X1250500Y620900D01*
X1264200Y620900D01*
X1267840Y621280D01*
X1270460Y622480D01*
X1272060Y624520D01*
X1272600Y627500D01*
X1272320Y629600D01*
X1271520Y631440D01*
X1270280Y633100D01*
X1268700Y634700D01*
X1268700Y634800D01*
X1272100Y635100D01*
X1272100Y637700D01*
G37*
G36*
X1257300Y615400D02*
G01*
X1253760Y615240D01*
X1250700Y614760D01*
X1248120Y614000D01*
X1246020Y612980D01*
X1244380Y611680D01*
X1243220Y610160D01*
X1242540Y608420D01*
X1242300Y606500D01*
X1244900Y606500D01*
X1245080Y607720D01*
X1245640Y608820D01*
X1246580Y609800D01*
X1247920Y610620D01*
X1249640Y611280D01*
X1251780Y611780D01*
X1254320Y612100D01*
X1257300Y612200D01*
X1260380Y612100D01*
X1263000Y611780D01*
X1265180Y611280D01*
X1266940Y610620D01*
X1268300Y609800D01*
X1269260Y608820D01*
X1269820Y607720D01*
X1270000Y606500D01*
X1269820Y605240D01*
X1269260Y604100D01*
X1268300Y603100D01*
X1266940Y602240D01*
X1265180Y601540D01*
X1263000Y601020D01*
X1260380Y600700D01*
X1257300Y600600D01*
X1254320Y600700D01*
X1251780Y601020D01*
X1249640Y601540D01*
X1247920Y602240D01*
X1246580Y603100D01*
X1245640Y604100D01*
X1245080Y605240D01*
X1244900Y606500D01*
X1242300Y606500D01*
X1242540Y604500D01*
X1243220Y602720D01*
X1244380Y601180D01*
X1246020Y599900D01*
X1248120Y598860D01*
X1250700Y598120D01*
X1253760Y597660D01*
X1257300Y597500D01*
X1260920Y597660D01*
X1264040Y598120D01*
X1266660Y598860D01*
X1268820Y599900D01*
X1270480Y601180D01*
X1271660Y602720D01*
X1272360Y604500D01*
X1272600Y606500D01*
X1272360Y608420D01*
X1271660Y610160D01*
X1270480Y611680D01*
X1268820Y612980D01*
X1266660Y614000D01*
X1264040Y614760D01*
X1260920Y615240D01*
G37*
G36*
X1269400Y592800D02*
G01*
X1269400Y586900D01*
X1242800Y586900D01*
X1242800Y584400D01*
X1243440Y583200D01*
X1243980Y581820D01*
X1244440Y580260D01*
X1244800Y578500D01*
X1246900Y578500D01*
X1246900Y583600D01*
X1269400Y583600D01*
X1269400Y577100D01*
X1272100Y577100D01*
X1272100Y592800D01*
G37*
G36*
X1242800Y757200D02*
G01*
X1242800Y740600D01*
X1272100Y740600D01*
X1272100Y743900D01*
X1258700Y743900D01*
X1258700Y755200D01*
X1255900Y755200D01*
X1255900Y743900D01*
X1245600Y743900D01*
X1245600Y757200D01*
G37*
G36*
X1250500Y732700D02*
G01*
X1250500Y729500D01*
X1266000Y729500D01*
X1267700Y727940D01*
X1268880Y726480D01*
X1269580Y725020D01*
X1269800Y723400D01*
X1269440Y721460D01*
X1268340Y720120D01*
X1266460Y719340D01*
X1263800Y719100D01*
X1250500Y719100D01*
X1250500Y715900D01*
X1264200Y715900D01*
X1267840Y716280D01*
X1270460Y717480D01*
X1272060Y719520D01*
X1272600Y722500D01*
X1272320Y724599D01*
X1271520Y726440D01*
X1270280Y728100D01*
X1268700Y729700D01*
X1268700Y729800D01*
X1272100Y730100D01*
X1272100Y732700D01*
G37*
G36*
X1257300Y710400D02*
G01*
X1253760Y710240D01*
X1250700Y709760D01*
X1248120Y709000D01*
X1246020Y707980D01*
X1244380Y706680D01*
X1243220Y705160D01*
X1242540Y703420D01*
X1242300Y701500D01*
X1244900Y701500D01*
X1245080Y702720D01*
X1245640Y703820D01*
X1246580Y704800D01*
X1247920Y705620D01*
X1249640Y706280D01*
X1251780Y706780D01*
X1254320Y707099D01*
X1257300Y707200D01*
X1260380Y707099D01*
X1263000Y706780D01*
X1265180Y706280D01*
X1266940Y705620D01*
X1268300Y704800D01*
X1269260Y703820D01*
X1269820Y702720D01*
X1270000Y701500D01*
X1269820Y700240D01*
X1269260Y699100D01*
X1268300Y698100D01*
X1266940Y697240D01*
X1265180Y696540D01*
X1263000Y696020D01*
X1260380Y695699D01*
X1257300Y695600D01*
X1254320Y695699D01*
X1251780Y696020D01*
X1249640Y696540D01*
X1247920Y697240D01*
X1246580Y698100D01*
X1245640Y699100D01*
X1245080Y700240D01*
X1244900Y701500D01*
X1242300Y701500D01*
X1242540Y699500D01*
X1243220Y697720D01*
X1244380Y696180D01*
X1246020Y694900D01*
X1248120Y693860D01*
X1250700Y693120D01*
X1253760Y692660D01*
X1257300Y692500D01*
X1260920Y692660D01*
X1264040Y693120D01*
X1266660Y693860D01*
X1268820Y694900D01*
X1270480Y696180D01*
X1271660Y697720D01*
X1272360Y699500D01*
X1272600Y701500D01*
X1272360Y703420D01*
X1271660Y705160D01*
X1270480Y706680D01*
X1268820Y707980D01*
X1266660Y709000D01*
X1264040Y709760D01*
X1260920Y710240D01*
G37*
G36*
X1269400Y687800D02*
G01*
X1269400Y681900D01*
X1242800Y681900D01*
X1242800Y679400D01*
X1243440Y678199D01*
X1243980Y676820D01*
X1244440Y675260D01*
X1244800Y673500D01*
X1246900Y673500D01*
X1246900Y678600D01*
X1269400Y678600D01*
X1269400Y672099D01*
X1272100Y672099D01*
X1272100Y687800D01*
G37*
G36*
X228200Y1034840D02*
G01*
X228200Y1031440D01*
X230799Y1031440D01*
X241200Y1024340D01*
X245500Y1022020D01*
X245500Y1021840D01*
X241500Y1022020D01*
X230799Y1022020D01*
X230799Y1031440D01*
X228200Y1031440D01*
X228200Y1022020D01*
X220000Y1022020D01*
X220000Y1018940D01*
X228200Y1018940D01*
X228200Y1014920D01*
X230799Y1014920D01*
X230799Y1018940D01*
X249300Y1018940D01*
X249300Y1022420D01*
X230300Y1034840D01*
G37*
G36*
X246500Y1011720D02*
G01*
X246500Y997340D01*
X244520Y998700D01*
X242540Y999940D01*
X240580Y1001020D01*
X238580Y1001979D01*
X236560Y1002800D01*
X234480Y1003500D01*
X232340Y1004100D01*
X230120Y1004580D01*
X227780Y1004980D01*
X222740Y1005500D01*
X220000Y1005639D01*
X220000Y1002220D01*
X225360Y1001940D01*
X230159Y1001360D01*
X232420Y1000920D01*
X234579Y1000360D01*
X236700Y999680D01*
X238800Y998840D01*
X240880Y997820D01*
X242979Y996640D01*
X245120Y995240D01*
X247300Y993620D01*
X249300Y993620D01*
X249300Y1011720D01*
G37*
G36*
X234800Y989720D02*
G01*
X231180Y989560D01*
X228060Y989100D01*
X225440Y988340D01*
X223280Y987300D01*
X221620Y986000D01*
X220440Y984460D01*
X219740Y982700D01*
X219500Y980720D01*
X222100Y980720D01*
X222280Y981979D01*
X222840Y983120D01*
X223800Y984100D01*
X225140Y984940D01*
X226920Y985620D01*
X229100Y986120D01*
X231720Y986420D01*
X234800Y986520D01*
X237780Y986420D01*
X240320Y986120D01*
X242460Y985620D01*
X244180Y984940D01*
X245520Y984100D01*
X246460Y983120D01*
X247020Y981979D01*
X247200Y980720D01*
X247020Y979479D01*
X246460Y978340D01*
X245520Y977360D01*
X244180Y976520D01*
X242460Y975840D01*
X240320Y975340D01*
X237780Y975040D01*
X234800Y974920D01*
X231720Y975040D01*
X229100Y975340D01*
X226920Y975840D01*
X225140Y976520D01*
X223800Y977360D01*
X222840Y978340D01*
X222280Y979479D01*
X222100Y980720D01*
X219500Y980720D01*
X219740Y978760D01*
X220440Y977020D01*
X221620Y975500D01*
X223280Y974220D01*
X225440Y973199D01*
X228060Y972440D01*
X231180Y971979D01*
X234800Y971840D01*
X238340Y971979D01*
X241400Y972440D01*
X243980Y973199D01*
X246080Y974220D01*
X247719Y975500D01*
X248880Y977020D01*
X249560Y978760D01*
X249800Y980720D01*
X249560Y982700D01*
X248880Y984460D01*
X247719Y986000D01*
X246080Y987300D01*
X243980Y988340D01*
X241400Y989100D01*
X238340Y989560D01*
G37*
G36*
X210700Y965920D02*
G01*
X210700Y962740D01*
X218200Y962740D01*
X222000Y962820D01*
X220940Y961280D01*
X220140Y959740D01*
X219660Y958240D01*
X219552Y957220D01*
X222200Y957220D01*
X222320Y958379D01*
X222719Y959720D01*
X223460Y961180D01*
X224600Y962740D01*
X236300Y962740D01*
X237620Y961120D01*
X238600Y959560D01*
X239200Y958080D01*
X239400Y956640D01*
X238800Y953880D01*
X237079Y952020D01*
X234460Y950960D01*
X231100Y950639D01*
X227380Y951120D01*
X224579Y952500D01*
X222820Y954599D01*
X222200Y957220D01*
X219552Y957220D01*
X219500Y956720D01*
X219700Y954880D01*
X220280Y953139D01*
X221260Y951520D01*
X222580Y950100D01*
X224240Y948920D01*
X226260Y948020D01*
X228580Y947440D01*
X231200Y947220D01*
X233560Y947380D01*
X235700Y947780D01*
X237580Y948480D01*
X239180Y949440D01*
X240460Y950680D01*
X241400Y952159D01*
X242000Y953920D01*
X242200Y955920D01*
X241940Y957780D01*
X241260Y959560D01*
X240260Y961260D01*
X239100Y962820D01*
X239100Y963020D01*
X241600Y963340D01*
X241600Y965920D01*
G37*
G36*
X220000Y941040D02*
G01*
X220000Y937740D01*
X233400Y937740D01*
X233400Y926440D01*
X236200Y926440D01*
X236200Y937740D01*
X246500Y937740D01*
X246500Y924440D01*
X249300Y924440D01*
X249300Y941040D01*
G37*
G36*
X384600Y1160960D02*
G01*
X383400Y1160320D01*
X382020Y1159760D01*
X380460Y1159300D01*
X378700Y1158960D01*
X378700Y1156860D01*
X383900Y1156860D01*
X383900Y1134360D01*
X377299Y1134360D01*
X377299Y1131660D01*
X393100Y1131660D01*
X393100Y1134360D01*
X387100Y1134360D01*
X387100Y1160960D01*
G37*
G36*
X351300Y1160960D02*
G01*
X351300Y1158160D01*
X360200Y1158160D01*
X360200Y1131660D01*
X363600Y1131660D01*
X363600Y1158160D01*
X372500Y1158160D01*
X372500Y1160960D01*
G37*
G36*
X462200Y1040600D02*
G01*
X462200Y1011300D01*
X465500Y1011300D01*
X465500Y1024700D01*
X476800Y1024700D01*
X476800Y1027500D01*
X465500Y1027500D01*
X465500Y1037800D01*
X478900Y1037800D01*
X478900Y1040600D01*
G37*
G36*
X423000Y1040600D02*
G01*
X421800Y1039960D01*
X420420Y1039419D01*
X418860Y1038960D01*
X417100Y1038600D01*
X417100Y1036500D01*
X422200Y1036500D01*
X422200Y1014000D01*
X415700Y1014000D01*
X415700Y1011300D01*
X431400Y1011300D01*
X431400Y1014000D01*
X425500Y1014000D01*
X425500Y1040600D01*
G37*
G36*
X437500Y1032900D02*
G01*
X437500Y1019200D01*
X437900Y1015560D01*
X439099Y1012940D01*
X441160Y1011340D01*
X444099Y1010800D01*
X446200Y1011080D01*
X448060Y1011880D01*
X449739Y1013120D01*
X451300Y1014700D01*
X451400Y1014700D01*
X451700Y1011300D01*
X454400Y1011300D01*
X454400Y1032900D01*
X451100Y1032900D01*
X451100Y1017400D01*
X449580Y1015699D01*
X448140Y1014520D01*
X446659Y1013820D01*
X445100Y1013600D01*
X443120Y1013960D01*
X441780Y1015060D01*
X441019Y1016940D01*
X440800Y1019599D01*
X440800Y1032900D01*
G37*
G36*
X1040699Y575160D02*
G01*
X1040699Y558560D01*
X1070000Y558560D01*
X1070000Y561860D01*
X1056600Y561860D01*
X1056600Y573180D01*
X1053800Y573180D01*
X1053800Y561860D01*
X1043500Y561860D01*
X1043500Y575160D01*
G37*
G36*
X1056300Y550980D02*
G01*
X1052660Y550580D01*
X1049980Y549400D01*
X1048360Y547340D01*
X1047800Y544360D01*
X1048100Y542300D01*
X1048920Y540440D01*
X1050120Y538740D01*
X1051600Y537180D01*
X1051600Y536980D01*
X1048400Y536660D01*
X1048400Y534080D01*
X1070000Y534080D01*
X1070000Y537260D01*
X1054200Y537260D01*
X1052680Y538880D01*
X1051580Y540380D01*
X1050920Y541860D01*
X1050700Y543480D01*
X1051040Y545400D01*
X1052120Y546740D01*
X1054000Y547520D01*
X1056700Y547780D01*
X1070000Y547780D01*
X1070000Y550980D01*
G37*
G36*
X1055200Y528180D02*
G01*
X1051660Y528020D01*
X1048600Y527560D01*
X1046020Y526800D01*
X1043920Y525780D01*
X1042280Y524500D01*
X1041120Y522980D01*
X1040440Y521240D01*
X1040200Y519280D01*
X1042800Y519280D01*
X1042980Y520520D01*
X1043540Y521659D01*
X1044479Y522640D01*
X1045819Y523480D01*
X1047540Y524159D01*
X1049680Y524660D01*
X1052220Y524960D01*
X1055200Y525080D01*
X1058280Y524960D01*
X1060900Y524660D01*
X1063080Y524159D01*
X1064840Y523480D01*
X1066200Y522640D01*
X1067160Y521659D01*
X1067720Y520520D01*
X1067900Y519280D01*
X1067720Y518020D01*
X1067160Y516880D01*
X1066200Y515900D01*
X1064860Y515060D01*
X1063080Y514380D01*
X1060900Y513880D01*
X1058280Y513579D01*
X1055200Y513480D01*
X1052220Y513579D01*
X1049680Y513880D01*
X1047540Y514380D01*
X1045819Y515060D01*
X1044479Y515900D01*
X1043540Y516880D01*
X1042980Y518020D01*
X1042800Y519280D01*
X1040200Y519280D01*
X1040440Y517299D01*
X1041120Y515540D01*
X1042280Y514000D01*
X1043920Y512700D01*
X1046020Y511659D01*
X1048600Y510900D01*
X1051660Y510439D01*
X1055200Y510280D01*
X1058820Y510439D01*
X1061940Y510900D01*
X1064560Y511659D01*
X1066720Y512700D01*
X1068380Y514000D01*
X1069560Y515540D01*
X1070260Y517299D01*
X1070500Y519280D01*
X1070260Y521240D01*
X1069560Y522980D01*
X1068380Y524500D01*
X1066720Y525780D01*
X1064560Y526800D01*
X1061940Y527560D01*
X1058820Y528020D01*
G37*
G36*
X1055200Y506260D02*
G01*
X1051660Y506100D01*
X1048600Y505640D01*
X1046020Y504880D01*
X1043920Y503840D01*
X1042280Y502560D01*
X1041120Y501040D01*
X1040440Y499300D01*
X1040200Y497380D01*
X1042800Y497380D01*
X1042980Y498600D01*
X1043540Y499700D01*
X1044479Y500660D01*
X1045819Y501500D01*
X1047540Y502160D01*
X1049680Y502660D01*
X1052220Y502960D01*
X1055200Y503060D01*
X1058280Y502960D01*
X1060900Y502660D01*
X1063080Y502160D01*
X1064840Y501500D01*
X1066200Y500660D01*
X1067160Y499700D01*
X1067720Y498600D01*
X1067900Y497380D01*
X1067720Y496120D01*
X1067160Y494980D01*
X1066200Y493960D01*
X1064860Y493100D01*
X1063080Y492420D01*
X1060900Y491900D01*
X1058280Y491580D01*
X1055200Y491460D01*
X1052220Y491580D01*
X1049680Y491900D01*
X1047540Y492420D01*
X1045819Y493100D01*
X1044479Y493960D01*
X1043540Y494980D01*
X1042980Y496120D01*
X1042800Y497380D01*
X1040200Y497380D01*
X1040440Y495379D01*
X1041120Y493600D01*
X1042280Y492060D01*
X1043920Y490780D01*
X1046020Y489739D01*
X1048600Y488980D01*
X1051660Y488519D01*
X1055200Y488360D01*
X1058820Y488519D01*
X1061940Y488980D01*
X1064560Y489739D01*
X1066720Y490780D01*
X1068380Y492060D01*
X1069560Y493600D01*
X1070260Y495379D01*
X1070500Y497380D01*
X1070260Y499300D01*
X1069560Y501040D01*
X1068380Y502560D01*
X1066720Y503840D01*
X1064560Y504880D01*
X1061940Y505640D01*
X1058820Y506100D01*
G37*
G36*
X1067300Y483680D02*
G01*
X1067300Y477780D01*
X1040699Y477780D01*
X1040699Y475280D01*
X1041340Y474060D01*
X1041880Y472700D01*
X1042340Y471140D01*
X1042700Y469360D01*
X1044800Y469360D01*
X1044800Y474480D01*
X1067300Y474480D01*
X1067300Y467980D01*
X1070000Y467980D01*
X1070000Y483680D01*
G37*
G36*
X1040699Y870160D02*
G01*
X1040699Y853560D01*
X1070000Y853560D01*
X1070000Y856860D01*
X1056600Y856860D01*
X1056600Y868180D01*
X1053800Y868180D01*
X1053800Y856860D01*
X1043500Y856860D01*
X1043500Y870160D01*
G37*
G36*
X1056300Y845980D02*
G01*
X1052660Y845580D01*
X1049980Y844400D01*
X1048360Y842340D01*
X1047800Y839360D01*
X1048100Y837300D01*
X1048920Y835440D01*
X1050120Y833740D01*
X1051600Y832180D01*
X1051600Y831979D01*
X1048400Y831660D01*
X1048400Y829080D01*
X1070000Y829080D01*
X1070000Y832260D01*
X1054200Y832260D01*
X1052680Y833880D01*
X1051580Y835380D01*
X1050920Y836860D01*
X1050700Y838480D01*
X1051040Y840400D01*
X1052120Y841740D01*
X1054000Y842520D01*
X1056700Y842780D01*
X1070000Y842780D01*
X1070000Y845980D01*
G37*
G36*
X1055200Y823180D02*
G01*
X1051660Y823020D01*
X1048600Y822560D01*
X1046020Y821800D01*
X1043920Y820780D01*
X1042280Y819500D01*
X1041120Y817980D01*
X1040440Y816240D01*
X1040200Y814280D01*
X1042800Y814280D01*
X1042980Y815520D01*
X1043540Y816660D01*
X1044479Y817640D01*
X1045819Y818480D01*
X1047540Y819160D01*
X1049680Y819659D01*
X1052220Y819960D01*
X1055200Y820080D01*
X1058280Y819960D01*
X1060900Y819659D01*
X1063080Y819160D01*
X1064840Y818480D01*
X1066200Y817640D01*
X1067160Y816660D01*
X1067720Y815520D01*
X1067900Y814280D01*
X1067720Y813020D01*
X1067160Y811880D01*
X1066200Y810900D01*
X1064860Y810060D01*
X1063080Y809380D01*
X1060900Y808880D01*
X1058280Y808580D01*
X1055200Y808480D01*
X1052220Y808580D01*
X1049680Y808880D01*
X1047540Y809380D01*
X1045819Y810060D01*
X1044479Y810900D01*
X1043540Y811880D01*
X1042980Y813020D01*
X1042800Y814280D01*
X1040200Y814280D01*
X1040440Y812300D01*
X1041120Y810540D01*
X1042280Y809000D01*
X1043920Y807700D01*
X1046020Y806660D01*
X1048600Y805900D01*
X1051660Y805440D01*
X1055200Y805280D01*
X1058820Y805440D01*
X1061940Y805900D01*
X1064560Y806660D01*
X1066720Y807700D01*
X1068380Y809000D01*
X1069560Y810540D01*
X1070260Y812300D01*
X1070500Y814280D01*
X1070260Y816240D01*
X1069560Y817980D01*
X1068380Y819500D01*
X1066720Y820780D01*
X1064560Y821800D01*
X1061940Y822560D01*
X1058820Y823020D01*
G37*
G36*
X1055200Y801260D02*
G01*
X1051660Y801100D01*
X1048600Y800639D01*
X1046020Y799880D01*
X1043920Y798840D01*
X1042280Y797560D01*
X1041120Y796040D01*
X1040440Y794300D01*
X1040200Y792380D01*
X1042800Y792380D01*
X1042980Y793600D01*
X1043540Y794700D01*
X1044479Y795660D01*
X1045819Y796500D01*
X1047540Y797159D01*
X1049680Y797660D01*
X1052220Y797960D01*
X1055200Y798060D01*
X1058280Y797960D01*
X1060900Y797660D01*
X1063080Y797159D01*
X1064840Y796500D01*
X1066200Y795660D01*
X1067160Y794700D01*
X1067720Y793600D01*
X1067900Y792380D01*
X1067720Y791120D01*
X1067160Y789980D01*
X1066200Y788960D01*
X1064860Y788100D01*
X1063080Y787420D01*
X1060900Y786900D01*
X1058280Y786580D01*
X1055200Y786460D01*
X1052220Y786580D01*
X1049680Y786900D01*
X1047540Y787420D01*
X1045819Y788100D01*
X1044479Y788960D01*
X1043540Y789980D01*
X1042980Y791120D01*
X1042800Y792380D01*
X1040200Y792380D01*
X1040440Y790380D01*
X1041120Y788600D01*
X1042280Y787060D01*
X1043920Y785780D01*
X1046020Y784740D01*
X1048600Y783980D01*
X1051660Y783520D01*
X1055200Y783360D01*
X1058820Y783520D01*
X1061940Y783980D01*
X1064560Y784740D01*
X1066720Y785780D01*
X1068380Y787060D01*
X1069560Y788600D01*
X1070260Y790380D01*
X1070500Y792380D01*
X1070260Y794300D01*
X1069560Y796040D01*
X1068380Y797560D01*
X1066720Y798840D01*
X1064560Y799880D01*
X1061940Y800639D01*
X1058820Y801100D01*
G37*
G36*
X1067300Y778680D02*
G01*
X1067300Y772780D01*
X1040699Y772780D01*
X1040699Y770280D01*
X1041340Y769060D01*
X1041880Y767700D01*
X1042340Y766140D01*
X1042700Y764360D01*
X1044800Y764360D01*
X1044800Y769479D01*
X1067300Y769479D01*
X1067300Y762980D01*
X1070000Y762980D01*
X1070000Y778680D01*
G37*
G36*
X444260Y239800D02*
G01*
X442299Y239579D01*
X440540Y238880D01*
X439000Y237719D01*
X437700Y236080D01*
X436659Y233980D01*
X435900Y231400D01*
X435420Y228340D01*
X435260Y224800D01*
X438459Y224800D01*
X438579Y227780D01*
X438880Y230320D01*
X439380Y232460D01*
X440060Y234180D01*
X440900Y235520D01*
X441880Y236460D01*
X443020Y237020D01*
X444260Y237200D01*
X445520Y237020D01*
X446659Y236460D01*
X447640Y235520D01*
X448480Y234180D01*
X449159Y232460D01*
X449660Y230320D01*
X449960Y227780D01*
X450060Y224800D01*
X449960Y221720D01*
X449660Y219100D01*
X449159Y216920D01*
X448480Y215159D01*
X447640Y213800D01*
X446659Y212840D01*
X445520Y212280D01*
X444260Y212100D01*
X443020Y212280D01*
X441880Y212840D01*
X440900Y213800D01*
X440060Y215159D01*
X439380Y216920D01*
X438880Y219100D01*
X438579Y221720D01*
X438459Y224800D01*
X435260Y224800D01*
X435420Y221180D01*
X435900Y218060D01*
X436659Y215440D01*
X437700Y213280D01*
X439000Y211620D01*
X440540Y210440D01*
X442299Y209740D01*
X444260Y209500D01*
X446220Y209740D01*
X447980Y210440D01*
X449500Y211620D01*
X450780Y213280D01*
X451800Y215440D01*
X452560Y218060D01*
X453020Y221180D01*
X453160Y224800D01*
X453020Y228340D01*
X452560Y231400D01*
X451800Y233980D01*
X450780Y236080D01*
X449500Y237719D01*
X447980Y238880D01*
X446220Y239579D01*
G37*
G36*
X422360Y239800D02*
G01*
X420379Y239579D01*
X418600Y238880D01*
X417060Y237719D01*
X415760Y236080D01*
X414739Y233980D01*
X413980Y231400D01*
X413519Y228340D01*
X413360Y224800D01*
X416460Y224800D01*
X416580Y227780D01*
X416900Y230320D01*
X417420Y232460D01*
X418100Y234180D01*
X418960Y235520D01*
X419960Y236460D01*
X421100Y237020D01*
X422360Y237200D01*
X423579Y237020D01*
X424700Y236460D01*
X425660Y235520D01*
X426500Y234180D01*
X427160Y232460D01*
X427660Y230320D01*
X427960Y227780D01*
X428060Y224800D01*
X427960Y221720D01*
X427660Y219100D01*
X427160Y216920D01*
X426500Y215159D01*
X425660Y213800D01*
X424700Y212840D01*
X423579Y212280D01*
X422360Y212100D01*
X421100Y212280D01*
X419960Y212840D01*
X418960Y213800D01*
X418100Y215159D01*
X417420Y216920D01*
X416900Y219100D01*
X416580Y221720D01*
X416460Y224800D01*
X413360Y224800D01*
X413519Y221180D01*
X413980Y218060D01*
X414739Y215440D01*
X415760Y213280D01*
X417060Y211620D01*
X418600Y210440D01*
X420379Y209740D01*
X422360Y209500D01*
X424300Y209740D01*
X426040Y210440D01*
X427560Y211620D01*
X428840Y213280D01*
X429880Y215440D01*
X430640Y218060D01*
X431100Y221180D01*
X431260Y224800D01*
X431100Y228340D01*
X430640Y231400D01*
X429880Y233980D01*
X428840Y236080D01*
X427560Y237719D01*
X426040Y238880D01*
X424300Y239579D01*
G37*
G36*
X483560Y239300D02*
G01*
X483560Y210000D01*
X486860Y210000D01*
X486860Y223400D01*
X498160Y223400D01*
X498160Y226200D01*
X486860Y226200D01*
X486860Y236500D01*
X500160Y236500D01*
X500160Y239300D01*
G37*
G36*
X400260Y239300D02*
G01*
X399060Y238660D01*
X397700Y238120D01*
X396140Y237659D01*
X394360Y237300D01*
X394360Y235200D01*
X399460Y235200D01*
X399460Y212700D01*
X392960Y212700D01*
X392960Y210000D01*
X408660Y210000D01*
X408660Y212700D01*
X402760Y212700D01*
X402760Y239300D01*
G37*
G36*
X469360Y232200D02*
G01*
X467299Y231900D01*
X465439Y231080D01*
X463720Y229880D01*
X462160Y228400D01*
X461960Y228400D01*
X461659Y231600D01*
X459060Y231600D01*
X459060Y210000D01*
X462260Y210000D01*
X462260Y225799D01*
X463880Y227320D01*
X465360Y228420D01*
X466860Y229080D01*
X468459Y229300D01*
X470400Y228960D01*
X471740Y227880D01*
X472520Y226020D01*
X472760Y223299D01*
X472760Y210000D01*
X475959Y210000D01*
X475959Y223700D01*
X475580Y227340D01*
X474400Y230020D01*
X472340Y231640D01*
G37*
G36*
X1225700Y970160D02*
G01*
X1225700Y953560D01*
X1255000Y953560D01*
X1255000Y956860D01*
X1241600Y956860D01*
X1241600Y968180D01*
X1238800Y968180D01*
X1238800Y956860D01*
X1228500Y956860D01*
X1228500Y970160D01*
G37*
G36*
X1241300Y945980D02*
G01*
X1237660Y945580D01*
X1234980Y944400D01*
X1233360Y942340D01*
X1232800Y939360D01*
X1233100Y937300D01*
X1233920Y935440D01*
X1235120Y933740D01*
X1236600Y932180D01*
X1236600Y931979D01*
X1233400Y931660D01*
X1233400Y929080D01*
X1255000Y929080D01*
X1255000Y932260D01*
X1239200Y932260D01*
X1237680Y933880D01*
X1236580Y935380D01*
X1235920Y936860D01*
X1235700Y938480D01*
X1236040Y940400D01*
X1237120Y941740D01*
X1239000Y942520D01*
X1241700Y942780D01*
X1255000Y942780D01*
X1255000Y945980D01*
G37*
G36*
X1240200Y923180D02*
G01*
X1236660Y923020D01*
X1233600Y922560D01*
X1231020Y921800D01*
X1228920Y920780D01*
X1227280Y919500D01*
X1226120Y917980D01*
X1225440Y916240D01*
X1225200Y914280D01*
X1227800Y914280D01*
X1227980Y915520D01*
X1228540Y916660D01*
X1229480Y917640D01*
X1230820Y918480D01*
X1232540Y919160D01*
X1234680Y919659D01*
X1237220Y919960D01*
X1240200Y920080D01*
X1243280Y919960D01*
X1245900Y919659D01*
X1248080Y919160D01*
X1249840Y918480D01*
X1251200Y917640D01*
X1252160Y916660D01*
X1252720Y915520D01*
X1252900Y914280D01*
X1252720Y913020D01*
X1252160Y911880D01*
X1251200Y910900D01*
X1249860Y910060D01*
X1248080Y909380D01*
X1245900Y908880D01*
X1243280Y908580D01*
X1240200Y908480D01*
X1237220Y908580D01*
X1234680Y908880D01*
X1232540Y909380D01*
X1230820Y910060D01*
X1229480Y910900D01*
X1228540Y911880D01*
X1227980Y913020D01*
X1227800Y914280D01*
X1225200Y914280D01*
X1225440Y912300D01*
X1226120Y910540D01*
X1227280Y909000D01*
X1228920Y907700D01*
X1231020Y906660D01*
X1233600Y905900D01*
X1236660Y905440D01*
X1240200Y905280D01*
X1243820Y905440D01*
X1246940Y905900D01*
X1249560Y906660D01*
X1251720Y907700D01*
X1253380Y909000D01*
X1254560Y910540D01*
X1255260Y912300D01*
X1255500Y914280D01*
X1255260Y916240D01*
X1254560Y917980D01*
X1253380Y919500D01*
X1251720Y920780D01*
X1249560Y921800D01*
X1246940Y922560D01*
X1243820Y923020D01*
G37*
G36*
X1240200Y901260D02*
G01*
X1236660Y901100D01*
X1233600Y900639D01*
X1231020Y899880D01*
X1228920Y898840D01*
X1227280Y897560D01*
X1226120Y896040D01*
X1225440Y894300D01*
X1225200Y892380D01*
X1227800Y892380D01*
X1227980Y893600D01*
X1228540Y894700D01*
X1229480Y895660D01*
X1230820Y896500D01*
X1232540Y897159D01*
X1234680Y897660D01*
X1237220Y897960D01*
X1240200Y898060D01*
X1243280Y897960D01*
X1245900Y897660D01*
X1248080Y897159D01*
X1249840Y896500D01*
X1251200Y895660D01*
X1252160Y894700D01*
X1252720Y893600D01*
X1252900Y892380D01*
X1252720Y891120D01*
X1252160Y889980D01*
X1251200Y888960D01*
X1249860Y888100D01*
X1248080Y887420D01*
X1245900Y886900D01*
X1243280Y886580D01*
X1240200Y886460D01*
X1237220Y886580D01*
X1234680Y886900D01*
X1232540Y887420D01*
X1230820Y888100D01*
X1229480Y888960D01*
X1228540Y889980D01*
X1227980Y891120D01*
X1227800Y892380D01*
X1225200Y892380D01*
X1225440Y890380D01*
X1226120Y888600D01*
X1227280Y887060D01*
X1228920Y885780D01*
X1231020Y884740D01*
X1233600Y883980D01*
X1236660Y883520D01*
X1240200Y883360D01*
X1243820Y883520D01*
X1246940Y883980D01*
X1249560Y884740D01*
X1251720Y885780D01*
X1253380Y887060D01*
X1254560Y888600D01*
X1255260Y890380D01*
X1255500Y892380D01*
X1255260Y894300D01*
X1254560Y896040D01*
X1253380Y897560D01*
X1251720Y898840D01*
X1249560Y899880D01*
X1246940Y900639D01*
X1243820Y901100D01*
G37*
G36*
X1252300Y878680D02*
G01*
X1252300Y872780D01*
X1225700Y872780D01*
X1225700Y870280D01*
X1226340Y869060D01*
X1226880Y867700D01*
X1227340Y866140D01*
X1227700Y864360D01*
X1229800Y864360D01*
X1229800Y869479D01*
X1252300Y869479D01*
X1252300Y862980D01*
X1255000Y862980D01*
X1255000Y878680D01*
G37*
G36*
X1242800Y491000D02*
G01*
X1242800Y474400D01*
X1272100Y474400D01*
X1272100Y477700D01*
X1258700Y477700D01*
X1258700Y489000D01*
X1255900Y489000D01*
X1255900Y477700D01*
X1245600Y477700D01*
X1245600Y491000D01*
G37*
G36*
X1250500Y466500D02*
G01*
X1250500Y463300D01*
X1266000Y463300D01*
X1267700Y461740D01*
X1268880Y460280D01*
X1269580Y458800D01*
X1269800Y457200D01*
X1269440Y455260D01*
X1268340Y453920D01*
X1266460Y453140D01*
X1263800Y452900D01*
X1250500Y452900D01*
X1250500Y449700D01*
X1264200Y449700D01*
X1267840Y450080D01*
X1270460Y451260D01*
X1272060Y453320D01*
X1272600Y456300D01*
X1272320Y458380D01*
X1271520Y460240D01*
X1270280Y461900D01*
X1268700Y463500D01*
X1268700Y463600D01*
X1272100Y463900D01*
X1272100Y466500D01*
G37*
G36*
X1242800Y444300D02*
G01*
X1242800Y426200D01*
X1245600Y426200D01*
X1245600Y440600D01*
X1247580Y439219D01*
X1251520Y436900D01*
X1255540Y435120D01*
X1257620Y434420D01*
X1259760Y433820D01*
X1261980Y433340D01*
X1264320Y432939D01*
X1266760Y432640D01*
X1272100Y432299D01*
X1272100Y435700D01*
X1266740Y436000D01*
X1261940Y436560D01*
X1259680Y437000D01*
X1257520Y437560D01*
X1255400Y438240D01*
X1253300Y439080D01*
X1251220Y440100D01*
X1249120Y441280D01*
X1246980Y442680D01*
X1244800Y444300D01*
G37*
G36*
X1270100Y421300D02*
G01*
X1269000Y421100D01*
X1268140Y420560D01*
X1267600Y419780D01*
X1267400Y418800D01*
X1267600Y417879D01*
X1268160Y417100D01*
X1269000Y416580D01*
X1270100Y416400D01*
X1271120Y416580D01*
X1271920Y417100D01*
X1272420Y417879D01*
X1272600Y418800D01*
X1272420Y419780D01*
X1271920Y420560D01*
X1271120Y421100D01*
G37*
G36*
X1261300Y412200D02*
G01*
X1261300Y408200D01*
X1242800Y408200D01*
X1242800Y405300D01*
X1246600Y405300D01*
X1251800Y405100D01*
X1261300Y405100D01*
X1261300Y395700D01*
X1250900Y402800D01*
X1246600Y405100D01*
X1246600Y405300D01*
X1242800Y405300D01*
X1242800Y404700D01*
X1261800Y392299D01*
X1263900Y392299D01*
X1263900Y405100D01*
X1272100Y405100D01*
X1272100Y408200D01*
X1263900Y408200D01*
X1263900Y412200D01*
G37*
G36*
X1242800Y1059000D02*
G01*
X1242800Y1042400D01*
X1272100Y1042400D01*
X1272100Y1045699D01*
X1258700Y1045699D01*
X1258700Y1057000D01*
X1255900Y1057000D01*
X1255900Y1045699D01*
X1245600Y1045699D01*
X1245600Y1059000D01*
G37*
G36*
X1250500Y1034500D02*
G01*
X1250500Y1031300D01*
X1266000Y1031300D01*
X1267700Y1029740D01*
X1268880Y1028280D01*
X1269580Y1026820D01*
X1269800Y1025200D01*
X1269440Y1023259D01*
X1268340Y1021919D01*
X1266460Y1021140D01*
X1263800Y1020900D01*
X1250500Y1020900D01*
X1250500Y1017700D01*
X1264200Y1017700D01*
X1267840Y1018080D01*
X1270460Y1019280D01*
X1272060Y1021320D01*
X1272600Y1024300D01*
X1272320Y1026400D01*
X1271520Y1028240D01*
X1270280Y1029900D01*
X1268700Y1031500D01*
X1268700Y1031600D01*
X1272100Y1031900D01*
X1272100Y1034500D01*
G37*
G36*
X1264300Y1011900D02*
G01*
X1261560Y1011400D01*
X1259360Y1010080D01*
X1257740Y1008100D01*
X1256800Y1005699D01*
X1256700Y1005699D01*
X1255580Y1007820D01*
X1254040Y1009460D01*
X1252020Y1010520D01*
X1249500Y1010900D01*
X1246440Y1010280D01*
X1244180Y1008540D01*
X1242780Y1005920D01*
X1242300Y1002600D01*
X1242560Y1000240D01*
X1243280Y998139D01*
X1244360Y996220D01*
X1245700Y994500D01*
X1247900Y996300D01*
X1246720Y997640D01*
X1245800Y999140D01*
X1245180Y1000759D01*
X1244900Y1002500D01*
X1245300Y1004640D01*
X1246300Y1006240D01*
X1247820Y1007260D01*
X1249800Y1007600D01*
X1252100Y1007180D01*
X1253940Y1005780D01*
X1255160Y1003259D01*
X1255600Y999400D01*
X1258100Y999400D01*
X1258540Y1003720D01*
X1259800Y1006600D01*
X1261720Y1008199D01*
X1264200Y1008700D01*
X1266560Y1008240D01*
X1268360Y1006940D01*
X1269500Y1004980D01*
X1269900Y1002500D01*
X1269620Y1000160D01*
X1268880Y998199D01*
X1267800Y996540D01*
X1266500Y995100D01*
X1268600Y993500D01*
X1270120Y995060D01*
X1271380Y997080D01*
X1272280Y999620D01*
X1272600Y1002700D01*
X1272460Y1004580D01*
X1272040Y1006320D01*
X1271340Y1007900D01*
X1270400Y1009240D01*
X1269220Y1010360D01*
X1267800Y1011200D01*
X1266140Y1011720D01*
G37*
G36*
X1270100Y989300D02*
G01*
X1269000Y989100D01*
X1268140Y988580D01*
X1267600Y987780D01*
X1267400Y986800D01*
X1267600Y985879D01*
X1268160Y985100D01*
X1269000Y984580D01*
X1270100Y984400D01*
X1271120Y984580D01*
X1271920Y985100D01*
X1272420Y985879D01*
X1272600Y986800D01*
X1272420Y987780D01*
X1271920Y988580D01*
X1271120Y989100D01*
G37*
G36*
X1264300Y979200D02*
G01*
X1261560Y978700D01*
X1259360Y977360D01*
X1257740Y975360D01*
X1256800Y972900D01*
X1256700Y972900D01*
X1255580Y975080D01*
X1254040Y976740D01*
X1252020Y977820D01*
X1249500Y978199D01*
X1246440Y977580D01*
X1244180Y975840D01*
X1242780Y973220D01*
X1242300Y969900D01*
X1242560Y967500D01*
X1243280Y965360D01*
X1244360Y963480D01*
X1245700Y961800D01*
X1247900Y963600D01*
X1246720Y964880D01*
X1245800Y966340D01*
X1245180Y967960D01*
X1244900Y969700D01*
X1245300Y971860D01*
X1246300Y973500D01*
X1247820Y974539D01*
X1249800Y974900D01*
X1252100Y974460D01*
X1253940Y973040D01*
X1255160Y970460D01*
X1255600Y966600D01*
X1258100Y966600D01*
X1258540Y970920D01*
X1259800Y973800D01*
X1261720Y975400D01*
X1264200Y975900D01*
X1266560Y975440D01*
X1268360Y974160D01*
X1269500Y972220D01*
X1269900Y969800D01*
X1269620Y967400D01*
X1268880Y965420D01*
X1267800Y963780D01*
X1266500Y962400D01*
X1268600Y960699D01*
X1270120Y962300D01*
X1271380Y964340D01*
X1272280Y966880D01*
X1272600Y970000D01*
X1272460Y971860D01*
X1272040Y973580D01*
X1271340Y975140D01*
X1270400Y976500D01*
X1269220Y977640D01*
X1267800Y978480D01*
X1266140Y979020D01*
G37*
D10*
X915000Y280000D02*
G01*
X1000000Y280000D01*
X835000Y255000D02*
G01*
X920000Y255000D01*
X915000Y1135000D02*
G01*
X995000Y1135000D01*
X784016Y379369D02*
G01*
X1035983Y379369D01*
X784016Y379369D02*
G01*
X784016Y300630D01*
X1035983Y300630D01*
X1035983Y379369D02*
G01*
X1035983Y300630D01*
X870630Y379369D02*
G01*
X870630Y300630D01*
X949920Y1115369D02*
G01*
X949920Y1035630D01*
D25*
X871629Y1115369D02*
G01*
X1029369Y1115369D01*
X1029369Y1035630D01*
X871629Y1035630D01*
X871629Y1115369D01*
D10*
X1095630Y1121496D02*
G01*
X1174369Y1121496D01*
X1095630Y1058503D02*
G01*
X1174369Y1058503D01*
X1121171Y1121496D02*
G01*
X1121171Y1058503D01*
X1095630Y366496D02*
G01*
X1174369Y366496D01*
X1095630Y303503D02*
G01*
X1174369Y303503D01*
X1121171Y366496D02*
G01*
X1121171Y303503D01*
X550630Y381496D02*
G01*
X629369Y381496D01*
X550630Y318503D02*
G01*
X629369Y318503D01*
X576172Y381496D02*
G01*
X576172Y318503D01*
X415156Y449684D02*
G01*
X415156Y498897D01*
X334843Y449684D02*
G01*
X334843Y498897D01*
X415156Y410315D02*
G01*
X415156Y361102D01*
X334843Y410315D02*
G01*
X334843Y361102D01*
X415156Y498899D02*
G01*
X334843Y498897D01*
X415156Y361102D02*
G01*
X334843Y361102D01*
X320156Y449684D02*
G01*
X320156Y498897D01*
X239843Y449684D02*
G01*
X239843Y498897D01*
X320156Y410315D02*
G01*
X320156Y361102D01*
X239843Y410315D02*
G01*
X239843Y361102D01*
X320156Y498899D02*
G01*
X239843Y498897D01*
X320156Y361102D02*
G01*
X239843Y361102D01*
X624684Y1034843D02*
G01*
X673897Y1034843D01*
X624684Y1115156D02*
G01*
X673897Y1115156D01*
X585315Y1034843D02*
G01*
X536102Y1034843D01*
X585315Y1115156D02*
G01*
X536102Y1115156D01*
X673899Y1034843D02*
G01*
X673897Y1115156D01*
X536102Y1034843D02*
G01*
X536102Y1115156D01*
X571496Y1126100D02*
G01*
X508503Y1126100D01*
X571496Y1263899D02*
G01*
X508503Y1263897D01*
X499054Y1175315D02*
G01*
X499054Y1133976D01*
X580945Y1175315D02*
G01*
X580945Y1133976D01*
X499054Y1214684D02*
G01*
X499054Y1256023D01*
X580945Y1214684D02*
G01*
X580945Y1256023D01*
X572280Y1263899D02*
G01*
X571496Y1263899D01*
X573069Y1263899D02*
G01*
X571496Y1263899D01*
X506930Y1263897D02*
G01*
X508503Y1263897D01*
X573069Y1126100D02*
G01*
X571496Y1126100D01*
X506930Y1126100D02*
G01*
X508503Y1126100D01*
X1216934Y580630D02*
G01*
X1083076Y580630D01*
X1216934Y659369D02*
G01*
X1083076Y659369D01*
X1128452Y580630D02*
G01*
X1128452Y659369D01*
X1216934Y675630D02*
G01*
X1083076Y675630D01*
X1216934Y754369D02*
G01*
X1083076Y754369D01*
X1128452Y675630D02*
G01*
X1128452Y754369D01*
X393899Y1016496D02*
G01*
X393899Y953503D01*
X256100Y1016496D02*
G01*
X256102Y953503D01*
X344684Y944054D02*
G01*
X386023Y944054D01*
X344684Y1025945D02*
G01*
X386023Y1025945D01*
X305315Y944054D02*
G01*
X263976Y944054D01*
X305315Y1025945D02*
G01*
X263976Y1025945D01*
X256100Y1017280D02*
G01*
X256100Y1016496D01*
X256100Y1018069D02*
G01*
X256100Y1016496D01*
X256102Y951930D02*
G01*
X256102Y953503D01*
X393899Y1018069D02*
G01*
X393899Y1016496D01*
X393899Y951930D02*
G01*
X393899Y953503D01*
D25*
X420000Y915000D02*
G01*
X220000Y915000D01*
X220000Y515000D01*
X420000Y515000D01*
X420000Y915000D01*
D10*
X329252Y1123465D02*
G01*
X329252Y1106846D01*
X329252Y1073155D02*
G01*
X329252Y1056536D01*
X329252Y1123465D02*
G01*
X347692Y1123465D01*
X329252Y1056536D02*
G01*
X347692Y1056536D01*
X360747Y1093029D02*
G01*
X360747Y1086970D01*
X484369Y1201934D02*
G01*
X484369Y1068076D01*
X405630Y1201934D02*
G01*
X405630Y1068076D01*
X484369Y1113452D02*
G01*
X405630Y1113452D01*
D26*
X518620Y1020628D02*
G01*
X1034369Y1020628D01*
X1034369Y396608D01*
X455630Y396608D01*
X455630Y953699D01*
D10*
X1218899Y546496D02*
G01*
X1218899Y483503D01*
X1081100Y546496D02*
G01*
X1081102Y483503D01*
X1169684Y474054D02*
G01*
X1211022Y474054D01*
X1169684Y555945D02*
G01*
X1211022Y555945D01*
X1130315Y474054D02*
G01*
X1088977Y474054D01*
X1130315Y555945D02*
G01*
X1088977Y555945D01*
X1081100Y547280D02*
G01*
X1081100Y546496D01*
X1081100Y548069D02*
G01*
X1081100Y546496D01*
X1081102Y481930D02*
G01*
X1081102Y483503D01*
X1218899Y548069D02*
G01*
X1218899Y546496D01*
X1218899Y481930D02*
G01*
X1218899Y483503D01*
X1218899Y841496D02*
G01*
X1218899Y778503D01*
X1081100Y841496D02*
G01*
X1081102Y778503D01*
X1169684Y769054D02*
G01*
X1211022Y769054D01*
X1169684Y850945D02*
G01*
X1211022Y850945D01*
X1130315Y769054D02*
G01*
X1088977Y769054D01*
X1130315Y850945D02*
G01*
X1088977Y850945D01*
X1081100Y842280D02*
G01*
X1081100Y841496D01*
X1081100Y843069D02*
G01*
X1081100Y841496D01*
X1081102Y776930D02*
G01*
X1081102Y778503D01*
X1218899Y843069D02*
G01*
X1218899Y841496D01*
X1218899Y776930D02*
G01*
X1218899Y778503D01*
X483899Y321496D02*
G01*
X483899Y258503D01*
X346100Y321496D02*
G01*
X346102Y258503D01*
X434684Y249054D02*
G01*
X476023Y249054D01*
X434684Y330945D02*
G01*
X476023Y330945D01*
X395315Y249054D02*
G01*
X353976Y249054D01*
X395315Y330945D02*
G01*
X353976Y330945D01*
X346100Y322280D02*
G01*
X346100Y321496D01*
X346100Y323069D02*
G01*
X346100Y321496D01*
X346102Y256930D02*
G01*
X346102Y258503D01*
X483899Y323069D02*
G01*
X483899Y321496D01*
X483899Y256930D02*
G01*
X483899Y258503D01*
X1218899Y941496D02*
G01*
X1218899Y878503D01*
X1081100Y941496D02*
G01*
X1081102Y878503D01*
X1169684Y869054D02*
G01*
X1211022Y869054D01*
X1169684Y950945D02*
G01*
X1211022Y950945D01*
X1130315Y869054D02*
G01*
X1088977Y869054D01*
X1130315Y950945D02*
G01*
X1088977Y950945D01*
X1081100Y942280D02*
G01*
X1081100Y941496D01*
X1081100Y943069D02*
G01*
X1081100Y941496D01*
X1081102Y876930D02*
G01*
X1081102Y878503D01*
X1218899Y943069D02*
G01*
X1218899Y941496D01*
X1218899Y876930D02*
G01*
X1218899Y878503D01*
X1216934Y380630D02*
G01*
X1083076Y380630D01*
X1216934Y459369D02*
G01*
X1083076Y459369D01*
X1128452Y380630D02*
G01*
X1128452Y459369D01*
X1216934Y965630D02*
G01*
X1083076Y965630D01*
X1216934Y1044369D02*
G01*
X1083076Y1044369D01*
X1128452Y965630D02*
G01*
X1128452Y1044369D01*
G75*
G01*
X580945Y1256023D02*
G03*
X573069Y1263899I-7876J0D01*
G75*
G01*
X499055Y1256023D02*
G02*
X506930Y1263898I7875J0D01*
G75*
G01*
X580945Y1133977D02*
G02*
X573069Y1126101I-7876J0D01*
G75*
G01*
X499055Y1133977D02*
G03*
X506931Y1126101I7876J0D01*
G75*
G01*
X263977Y1025945D02*
G03*
X256101Y1018069I0J-7876D01*
G75*
G01*
X263977Y944055D02*
G02*
X256102Y951930I0J7875D01*
G75*
G01*
X386023Y1025945D02*
G02*
X393899Y1018069I0J-7876D01*
G75*
G01*
X386023Y944055D02*
G03*
X393899Y951931I0J7876D01*
G75*
G01*
X1088977Y555945D02*
G03*
X1081101Y548069I0J-7876D01*
G75*
G01*
X1088977Y474055D02*
G02*
X1081102Y481930I0J7875D01*
G75*
G01*
X1211023Y555945D02*
G02*
X1218899Y548069I0J-7876D01*
G75*
G01*
X1211023Y474055D02*
G03*
X1218899Y481931I0J7876D01*
G75*
G01*
X1088977Y850945D02*
G03*
X1081101Y843069I0J-7876D01*
G75*
G01*
X1088977Y769055D02*
G02*
X1081102Y776930I0J7875D01*
G75*
G01*
X1211023Y850945D02*
G02*
X1218899Y843069I0J-7876D01*
G75*
G01*
X1211023Y769055D02*
G03*
X1218899Y776931I0J7876D01*
G75*
G01*
X353977Y330945D02*
G03*
X346101Y323069I0J-7876D01*
G75*
G01*
X353977Y249055D02*
G02*
X346102Y256930I0J7875D01*
G75*
G01*
X476023Y330945D02*
G02*
X483899Y323069I0J-7876D01*
G75*
G01*
X476023Y249055D02*
G03*
X483899Y256931I0J7876D01*
G75*
G01*
X1088977Y950945D02*
G03*
X1081101Y943069I0J-7876D01*
G75*
G01*
X1088977Y869055D02*
G02*
X1081102Y876930I0J7875D01*
G75*
G01*
X1211023Y950945D02*
G02*
X1218899Y943069I0J-7876D01*
G75*
G01*
X1211023Y869055D02*
G03*
X1218899Y876931I0J7876D01*
G75*
G01
X1012070Y1135000D02*
G03X1012070Y1135000I-7070J0D01*
G75*
G01
X912070Y1135000D02*
G03X912070Y1135000I-7070J0D01*
G75*
G01
X922070Y255000D02*
G03X922070Y255000I-7070J0D01*
G75*
G01
X842070Y255000D02*
G03X842070Y255000I-7070J0D01*
G75*
G01
X922070Y280000D02*
G03X922070Y280000I-7070J0D01*
G75*
G01
X1007070Y280000D02*
G03X1007070Y280000I-7070J0D01*
M02*
